<?xml version="1.0" encoding="UTF-8" standalone="no"?>
<svg
   data-name="Layer 1"
   width="618.67538"
   height="487.32493"
   viewBox="0 0 618.67538 487.32493"
   version="1.1"
   id="svg537"
   sodipodi:docname="logoinfast.svg"
   inkscape:version="1.2.2 (732a01da63, 2022-12-09)"
   xmlns:inkscape="http://www.inkscape.org/namespaces/inkscape"
   xmlns:sodipodi="http://sodipodi.sourceforge.net/DTD/sodipodi-0.dtd"
   xmlns="http://www.w3.org/2000/svg"
   xmlns:svg="http://www.w3.org/2000/svg">
  <defs
     id="defs541" />
  <sodipodi:namedview
     id="namedview539"
     pagecolor="#ffffff"
     bordercolor="#000000"
     borderopacity="0.25"
     inkscape:showpageshadow="2"
     inkscape:pageopacity="0.0"
     inkscape:pagecheckerboard="0"
     inkscape:deskcolor="#d1d1d1"
     showgrid="false"
     inkscape:zoom="1.1666012"
     inkscape:cx="234.01313"
     inkscape:cy="303.017"
     inkscape:window-width="1920"
     inkscape:window-height="991"
     inkscape:window-x="-9"
     inkscape:window-y="-9"
     inkscape:window-maximized="1"
     inkscape:current-layer="svg537" />
  <path
     d="m 124.3564,264.87569 a 21.361984,21.404761 0 0 1 -22.2865,-16.41794 c -0.23291,-1.00046 1.30771,-1.41011 1.54093,-0.40832 a 19.780719,19.820329 0 0 0 20.76224,15.22965 c 1.0225,-0.077 0.99996,1.52007 -0.0167,1.59661 z"
     fill="#ffffff"
     id="path459"
     style="stroke-width:1.34623" />
  <path
     d="m 143.88625,304.09235 a 41.173447,41.255895 0 0 0 10.32014,-28.23183 c -0.0233,-1.02804 1.57017,-1.01008 1.59342,0.0167 a 42.82661,42.912369 0 0 1 -10.79864,29.35598 c -0.6828,0.76918 -1.79408,-0.37579 -1.11492,-1.1408 z"
     fill="#ffffff"
     id="path461"
     style="stroke-width:1.34623" />
  <path
     d="m 125.9244,218.39609 a 12.091887,12.116101 0 0 0 10.74162,-4.04098 c 0.67274,-0.77747 1.78332,0.36837 1.11491,1.14079 a 13.549961,13.577094 0 0 1 -11.87329,4.4968 0.82352866,0.82517774 0 0 1 -0.78837,-0.80666 0.8007866,0.80239015 0 0 1 0.80505,-0.78995 z"
     fill="#ffffff"
     id="path463"
     style="stroke-width:1.34623" />
  <path
     d="m 254.67893,216.60793 a 142.38297,142.66809 0 0 0 -59.94326,64.01065 61.314636,61.437416 0 0 0 -5.70181,18.38224 35.166828,35.237248 0 0 0 2.84918,18.32418 c 2.28479,5.40349 5.24641,10.66555 6.18049,16.53145 a 21.532798,21.575917 0 0 1 -4.83066,16.96837 c -4.71597,5.92637 -11.27587,9.80139 -17.82234,13.36745 -7.26859,3.95944 -14.88099,7.95666 -19.80153,14.86479 -0.59619,0.83703 -1.8575,-0.1388 -1.26221,-0.97461 8.56089,-12.01896 24.18781,-15.05922 34.59321,-24.93651 4.85534,-4.60896 8.3539,-10.71192 7.72957,-17.59991 -0.54596,-6.02319 -3.59533,-11.45209 -5.95592,-16.90321 a 37.525761,37.600905 0 0 1 -3.45212,-17.81309 56.683797,56.797304 0 0 1 4.97545,-18.53408 138.13672,138.41333 0 0 1 23.42526,-36.33886 144.90777,145.19794 0 0 1 38.41771,-30.82874 c 0.8956,-0.49515 1.48871,0.98798 0.59896,1.47989 z"
     fill="#ffffff"
     id="path467"
     style="stroke-width:1.34623" />
  <path
     d="m 198.33493,271.64389 a 21.361971,21.404747 0 0 1 -7.92955,-26.55368 c 0.41518,-0.93926 1.89143,-0.33699 1.4757,0.60358 a 19.780732,19.820342 0 0 0 7.42647,24.68537 c 0.86268,0.55535 -0.11493,1.81691 -0.97266,1.26473 z"
     fill="#ffffff"
     id="path469"
     style="stroke-width:1.34623" />
  <path
     d="m 190.36445,314.7381 a 41.173487,41.255936 0 0 0 25.20363,-16.3157 c 0.59913,-0.83488 1.86063,0.14075 1.26222,0.97461 a 42.82661,42.912369 0 0 1 -26.2611,16.92455 c -1.00732,0.20225 -1.20664,-1.38232 -0.20475,-1.58341 z"
     fill="#ffffff"
     id="path471"
     style="stroke-width:1.34623" />
  <path
     d="m 170.41249,421.16608 a 14.969029,15.547734 0 0 0 13.62318,4.17523 c 1.24328,-0.27581 1.48863,1.75793 0.25347,2.03188 a 16.774053,17.422541 0 0 1 -15.08075,-4.58426 1.0194789,1.0588922 0 0 1 -0.17922,-1.4368 0.99130898,1.0296332 0 0 1 1.38332,-0.18615 z"
     fill="#ffffff"
     id="path473"
     style="stroke-width:1.69677" />
  <path
     d="m 324.2369,124.88841 a 26.864612,27.959078 0 0 1 0.61072,4.35648 l 109.63531,65.82496 26.64842,-15.96602 28.40877,38.70629 -44.53646,33.03611 a 20.417486,21.249296 0 0 1 -24.49637,-0.6211 L 307.45443,157.40341 a 26.790542,27.881991 0 1 1 16.78247,-32.51484 z"
     fill="#ffb6b6"
     id="path475"
     style="stroke-width:2.28425" />
  <path
     d="M 510.00078,139.81584 A 15.970942,16.621599 0 0 0 496.59291,123.51531 L 267.40611,84.346895 a 15.969352,16.619945 0 0 0 -6.60386,0.30543 l -53.71131,14.45393 -30.8179,8.302915 -56.87316,15.30082 a 16.02112,16.673822 0 0 0 -11.99362,16.13394 v 195.49538 a 16.091114,16.746668 0 0 0 12.67404,16.28654 l 233.44255,51.69279 a 15.554337,16.188021 0 0 0 3.33528,0.36086 15.978824,16.629802 0 0 0 4.81628,-0.76356 L 500.36849,356.33272 A 15.94367,16.593216 0 0 0 511.5617,340.3098 Z"
     fill="#ffffff"
     id="path509"
     style="stroke-width:2.28425" />
  <path
     d="m 265.18269,99.379875 a 1.9384929,2.0174673 0 0 0 -0.49574,0.0664 L 123.28362,137.50425 a 1.9987916,2.0802225 0 0 0 -1.49761,2.01353 v 195.49249 a 2.0086211,2.0904525 0 0 0 1.5823,2.03525 l 233.44261,51.69174 a 2.0166595,2.0988184 0 0 0 1.01878,-0.0515 l 138.69668,-45.58192 a 1.9874394,2.0684078 0 0 0 1.39533,-2.00133 l -1.55428,-200.49314 a 1.9955897,2.0768902 0 0 0 -1.67545,-2.03522 L 265.50578,99.406975 a 2.0791301,2.1638341 0 0 0 -0.32309,-0.0271 z"
     fill="#4fb3d9"
     id="path511"
     style="stroke-width:2.28425" />
  <path
     d="M 510.00078,139.81584 A 15.970942,16.621599 0 0 0 496.59291,123.51531 L 267.40611,84.346895 a 15.969352,16.619945 0 0 0 -6.60386,0.30543 l -53.71131,14.45393 -30.8179,8.302915 -56.87316,15.30082 a 16.02112,16.673822 0 0 0 -11.99362,16.13394 v 195.49538 a 16.091114,16.746668 0 0 0 12.67404,16.28654 l 233.44255,51.69279 a 15.554337,16.188021 0 0 0 3.33528,0.36086 15.978824,16.629802 0 0 0 4.81628,-0.76356 L 500.36849,356.33272 A 15.94367,16.593216 0 0 0 511.5617,340.3098 Z m -10.83296,212.54572 -138.69416,45.58323 a 12.17322,12.669158 0 0 1 -6.11024,0.30541 L 120.90745,346.55795 a 12.070468,12.56222 0 0 1 -9.49887,-12.21853 V 138.8441 a 12.020693,12.510417 0 0 1 7.87128,-11.73261 9.9729105,10.379208 0 0 1 1.1206,-0.36102 l 60.16845,-16.18935 35.5807,-9.58043 45.65323,-12.287865 a 11.444687,11.910945 0 0 1 3.00175,-0.4027 11.874525,12.358294 0 0 1 1.94783,0.16662 l 229.18679,39.168615 a 12.042144,12.532742 0 0 1 8.72513,6.56741 12.008737,12.497973 0 0 1 1.33412,5.651 l 1.56089,200.49398 a 11.96494,12.452393 0 0 1 -8.39153,12.02388 z"
     fill="#3f3d56"
     id="path513"
     style="stroke-width:2.28425" />
  <path
     d="m 504.66434,134.19279 a 1.738654,1.8094869 0 0 1 -0.50697,0.23594 l -67.41263,18.96641 -20.98554,5.90098 -59.68809,16.78635 a 2.3160707,2.4104277 0 0 1 -0.52032,0.0694 3.2649974,3.3980137 0 0 1 -0.36023,-0.0278 l -240.67348,-45.66648 -0.80052,-0.15263 a 2.0070763,2.0888446 0 0 1 0.72047,-4.10981 l 4.84283,0.91627 236.19099,44.81962 51.44312,-14.46777 28.77679,-8.09485 66.37198,-18.67475 1.05392,-0.29152 a 2.0107036,2.0926197 0 0 1 2.3347,1.13845 1.5626614,1.6263245 0 0 1 0.11997,0.33324 2.0062254,2.0879591 0 0 1 -0.90712,2.31893 z"
     fill="#3f3d56"
     id="path515"
     style="stroke-width:2.28425" />
  <path
     d="m 357.55196,403.16557 a 2.0012099,2.0827392 0 0 1 -2.00117,-2.0637 l -2.00117,-227.01356 a 2.0017472,2.0832985 0 0 1 1.98295,-2.10169 h 0.0179 a 2.0011874,2.0827159 0 0 1 2.00116,2.06373 l 2.00116,227.01356 a 2.0017472,2.0832985 0 0 1 -1.98291,2.10166 z"
     fill="#3f3d56"
     id="path517"
     style="stroke-width:2.28425" />
  <path
     d="M 436.74474,375.54905 415.7592,381.45 406.91397,157.46329 181.22256,110.72767 a 5.1853312,5.3965821 0 0 1 -0.6538,-0.16662 7.9564749,8.2806222 0 0 1 -4.29588,-3.15184 l 30.8179,-8.302895 9.05867,1.874375 214.15143,44.33368 a 7.9609531,8.2852828 0 0 1 5.38979,4.0542 c 0.6672,1.20789 1.0407,224.73658 1.05407,226.18046 z"
     fill="#3f3d56"
     id="path519"
     style="stroke-width:2.28425" />
  <ellipse
     cx="356.48074"
     cy="208.62778"
     fill="#4fb3d9"
     id="circle527"
     style="fill:#f9f9f9;stroke-width:0.66539"
     rx="23.376055"
     ry="24.289213" />
  <path
     d="m 353.68742,222.09144 a 2.5994986,2.7010452 0 0 1 -2.07999,-1.08097 l -6.37735,-8.83542 a 2.6002036,2.7017777 0 1 1 4.16042,-3.242 l 4.17228,5.77991 10.71596,-16.70162 a 2.6003145,2.701893 0 1 1 4.32715,2.99747 l -12.75466,19.87943 a 2.6013654,2.7029849 0 0 1 -2.09145,1.20232 c -0.0241,4.5e-4 -0.0483,6.7e-4 -0.0724,6.7e-4 z"
     fill="#ffffff"
     id="path529"
     style="fill:#4fb3d9;fill-opacity:1;stroke-width:0.66539" />
  <path
     d="m 173.3172,224.1831 a 5.0089322,4.8417021 15.459522 0 1 -1.09076,0.12681 l -105.001265,0.84808 a 4.9696435,4.8037251 15.459513 0 1 -0.25777,-9.63105 l 105.001235,-0.84807 a 4.9704376,4.8044926 15.4595 0 1 1.3486,9.50432 z"
     fill="#ffffff"
     id="path531-8"
     style="stroke-width:3.25702" />
  <path
     d="m 192.01016,242.43844 a 5.0089322,4.8417021 15.459522 0 1 -1.09076,0.12681 l -105.001265,0.84808 a 4.9696435,4.8037251 15.459513 0 1 -0.25777,-9.63105 L 190.6616,232.93421 a 4.9704376,4.8044926 15.4595 0 1 1.3486,9.50432 z"
     fill="#ffffff"
     id="path531-8-8"
     style="stroke-width:3.25702" />
  <path
     d="m 205.84407,262.65329 a 5.0089322,4.8417021 15.459522 0 1 -1.09076,0.1268 l -105.001265,0.84809 a 4.9696435,4.8037251 15.459513 0 1 -0.25777,-9.63105 l 105.001235,-0.84808 a 4.9704376,4.8044926 15.4595 0 1 1.3486,9.50433 z"
     fill="#ffffff"
     id="path531-8-2"
     style="stroke-width:3.25702" />
  <path
     d="m 192.77887,280.55785 a 5.0089322,4.8417021 15.459522 0 1 -1.09075,0.12681 l -105.001285,0.84809 a 4.9696468,4.8037283 15.459513 0 1 -0.25776,-9.63106 l 105.001235,-0.84807 a 4.9704376,4.8044926 15.4595 0 1 1.3486,9.50433 z"
     fill="#ffffff"
     id="path531-8-81"
     style="stroke-width:3.25702" />
  <path
     d="m 161.46074,299.04001 a 5.0089322,4.8417021 15.459522 0 1 -1.09076,0.12681 L 55.368715,300.0149 a 4.9696435,4.8037251 15.459513 0 1 -0.25778,-9.63105 l 105.001245,-0.84807 a 4.9704376,4.8044926 15.4595 0 1 1.3486,9.50432 z"
     fill="#ffffff"
     id="path531-8-4"
     style="stroke-width:3.25702" />
  <text
     xml:space="preserve"
     style="font-size:30.2203px;fill:#ffc91f;stroke-width:0.708286"
     x="214.78746"
     y="223.95116"
     id="text1023"
     transform="matrix(1.1064417,0.19118233,-0.10037801,0.88645386,0,0)"><tspan
       sodipodi:role="line"
       id="tspan1021"
       x="214.78746"
       y="223.95116"
       style="font-style:normal;font-variant:normal;font-weight:normal;font-stretch:normal;font-size:30.2203px;font-family:'Franklin Gothic Medium';-inkscape-font-specification:'Franklin Gothic Medium, ';fill:#f2f2f2;stroke-width:0.708286">INFAST</tspan></text>
</svg>
