<svg xmlns="http://www.w3.org/2000/svg" xmlns:xlink="http://www.w3.org/1999/xlink" width="500" zoomAndPan="magnify" viewBox="0 0 375 374.999991" height="500" preserveAspectRatio="xMidYMid meet" version="1.0"><defs><clipPath id="bae1092d88"><path d="M 7.105469 6.503906 L 265.105469 6.503906 L 265.105469 264.503906 L 7.105469 264.503906 Z M 7.105469 6.503906 " clip-rule="nonzero"/></clipPath><clipPath id="50ee6fa6d2"><path d="M 117.292969 112.195312 L 375 112.195312 L 375 370.191406 L 117.292969 370.191406 Z M 117.292969 112.195312 " clip-rule="nonzero"/></clipPath></defs><rect x="-37.5" width="450" fill="#ffffff" y="-37.499999" height="449.999989" fill-opacity="1"/><rect x="-37.5" width="450" fill="#ffffff" y="-37.499999" height="449.999989" fill-opacity="1"/><rect x="-37.5" width="450" fill="#ffc107" y="-37.499999" height="449.999989" fill-opacity="1"/><g clip-path="url(#bae1092d88)"><path fill="#f1f7fb" d="M 240.917969 111.316406 L 160.292969 111.316406 L 160.292969 30.691406 C 160.292969 17.332031 149.464844 6.503906 136.105469 6.503906 C 122.746094 6.503906 111.917969 17.332031 111.917969 30.691406 L 111.917969 111.316406 L 31.292969 111.316406 C 17.933594 111.316406 7.105469 122.144531 7.105469 135.503906 C 7.105469 148.863281 17.933594 159.691406 31.292969 159.691406 L 111.917969 159.691406 L 111.917969 240.316406 C 111.917969 253.675781 122.746094 264.503906 136.105469 264.503906 C 149.464844 264.503906 160.292969 253.675781 160.292969 240.316406 L 160.292969 159.691406 L 240.917969 159.691406 C 254.277344 159.691406 265.105469 148.863281 265.105469 135.503906 C 265.105469 122.144531 254.277344 111.316406 240.917969 111.316406 Z M 240.917969 111.316406 " fill-opacity="1" fill-rule="nonzero"/></g><g clip-path="url(#50ee6fa6d2)"><path fill="#f1f7fb" d="M 351.105469 217.007812 L 270.480469 217.007812 L 270.480469 136.382812 C 270.480469 123.019531 259.65625 112.195312 246.292969 112.195312 C 232.933594 112.195312 222.105469 123.019531 222.105469 136.382812 L 222.105469 217.007812 L 141.480469 217.007812 C 128.121094 217.007812 117.292969 227.832031 117.292969 241.195312 C 117.292969 254.554688 128.121094 265.382812 141.480469 265.382812 L 222.105469 265.382812 L 222.105469 346.003906 C 222.105469 359.367188 232.933594 370.191406 246.292969 370.191406 C 259.65625 370.191406 270.480469 359.367188 270.480469 346.003906 L 270.480469 265.382812 L 351.105469 265.382812 C 364.46875 265.382812 375.292969 254.554688 375.292969 241.195312 C 375.292969 227.832031 364.46875 217.007812 351.105469 217.007812 Z M 351.105469 217.007812 " fill-opacity="1" fill-rule="nonzero"/></g></svg>