<svg xmlns="http://www.w3.org/2000/svg" xmlns:xlink="http://www.w3.org/1999/xlink" width="500" zoomAndPan="magnify" viewBox="0 0 375 374.999991" height="500" preserveAspectRatio="xMidYMid meet" version="1.0"><defs><clipPath id="0b39fb4c8b"><path d="M 58.1875 205.652344 L 180.4375 205.652344 L 180.4375 327.902344 L 58.1875 327.902344 Z M 58.1875 205.652344 " clip-rule="nonzero"/></clipPath><clipPath id="ac857f025d"><path d="M 55.1875 206.667969 L 175.1875 206.667969 L 175.1875 327.417969 L 55.1875 327.417969 Z M 55.1875 206.667969 " clip-rule="nonzero"/></clipPath><clipPath id="3ecd857b25"><path d="M 63.292969 215.21875 L 136.792969 215.21875 L 136.792969 288.71875 L 63.292969 288.71875 Z M 63.292969 215.21875 " clip-rule="nonzero"/></clipPath><clipPath id="5f9d329c68"><path d="M 93.726562 246.070312 L 167.226562 246.070312 L 167.226562 319.570312 L 93.726562 319.570312 Z M 93.726562 246.070312 " clip-rule="nonzero"/></clipPath><clipPath id="a877511b26"><path d="M 87 66 L 211 66 L 211 189 L 87 189 Z M 87 66 " clip-rule="nonzero"/></clipPath><clipPath id="cbb5b693df"><path d="M 112.230469 49.257812 L 227.277344 90.609375 L 185.921875 205.652344 L 70.878906 164.300781 Z M 112.230469 49.257812 " clip-rule="nonzero"/></clipPath><clipPath id="04e700946e"><path d="M 112.230469 49.257812 L 227.277344 90.609375 L 185.921875 205.652344 L 70.878906 164.300781 Z M 112.230469 49.257812 " clip-rule="nonzero"/></clipPath><clipPath id="4510bfb37c"><path d="M 113 89 L 180 89 L 180 171 L 113 171 Z M 113 89 " clip-rule="nonzero"/></clipPath><clipPath id="fb8972e34b"><path d="M 112.230469 49.257812 L 227.277344 90.609375 L 185.921875 205.652344 L 70.878906 164.300781 Z M 112.230469 49.257812 " clip-rule="nonzero"/></clipPath><clipPath id="60bae49da7"><path d="M 112.230469 49.257812 L 227.277344 90.609375 L 185.921875 205.652344 L 70.878906 164.300781 Z M 112.230469 49.257812 " clip-rule="nonzero"/></clipPath><clipPath id="94156d07e0"><path d="M 84 66 L 205 66 L 205 188 L 84 188 Z M 84 66 " clip-rule="nonzero"/></clipPath><clipPath id="f647236f55"><path d="M 108.546875 49.804688 L 221.472656 90.394531 L 180.628906 204.027344 L 67.703125 163.433594 Z M 108.546875 49.804688 " clip-rule="nonzero"/></clipPath><clipPath id="7c1c418aaf"><path d="M 108.546875 49.804688 L 221.472656 90.394531 L 180.628906 204.027344 L 67.703125 163.433594 Z M 108.546875 49.804688 " clip-rule="nonzero"/></clipPath><clipPath id="6613693b0c"><path d="M 109 89 L 175 89 L 175 170 L 109 170 Z M 109 89 " clip-rule="nonzero"/></clipPath><clipPath id="5410a1dbc0"><path d="M 108.546875 49.804688 L 221.472656 90.394531 L 180.628906 204.027344 L 67.703125 163.433594 Z M 108.546875 49.804688 " clip-rule="nonzero"/></clipPath><clipPath id="1b53873685"><path d="M 108.546875 49.804688 L 221.472656 90.394531 L 180.628906 204.027344 L 67.703125 163.433594 Z M 108.546875 49.804688 " clip-rule="nonzero"/></clipPath><clipPath id="43665a7e63"><path d="M 100 72 L 171 72 L 171 143 L 100 143 Z M 100 72 " clip-rule="nonzero"/></clipPath><clipPath id="491ba68a7c"><path d="M 113.28125 60.59375 L 182.445312 85.453125 L 157.585938 154.621094 L 88.417969 129.757812 Z M 113.28125 60.59375 " clip-rule="nonzero"/></clipPath><clipPath id="159f458912"><path d="M 113.28125 60.59375 L 182.445312 85.453125 L 157.585938 154.621094 L 88.417969 129.757812 Z M 113.28125 60.59375 " clip-rule="nonzero"/></clipPath><clipPath id="a768bc606d"><path d="M 118 111 L 189 111 L 189 182 L 118 182 Z M 118 111 " clip-rule="nonzero"/></clipPath><clipPath id="8b706384d8"><path d="M 131.484375 99.921875 L 200.648438 124.78125 L 175.789062 193.949219 L 106.621094 169.089844 Z M 131.484375 99.921875 " clip-rule="nonzero"/></clipPath><clipPath id="7842bb5b77"><path d="M 131.484375 99.921875 L 200.648438 124.78125 L 175.789062 193.949219 L 106.621094 169.089844 Z M 131.484375 99.921875 " clip-rule="nonzero"/></clipPath><clipPath id="f1235d8f5f"><path d="M 201 185 L 324 185 L 324 308 L 201 308 Z M 201 185 " clip-rule="nonzero"/></clipPath><clipPath id="b1b698a3ee"><path d="M 204.433594 182.898438 L 326.5625 188.316406 L 321.148438 310.445312 L 199.015625 305.027344 Z M 204.433594 182.898438 " clip-rule="nonzero"/></clipPath><clipPath id="0208166319"><path d="M 204.433594 182.898438 L 326.5625 188.316406 L 321.148438 310.445312 L 199.015625 305.027344 Z M 204.433594 182.898438 " clip-rule="nonzero"/></clipPath><clipPath id="1c1d6989bb"><path d="M 233 208 L 290 208 L 290 286 L 233 286 Z M 233 208 " clip-rule="nonzero"/></clipPath><clipPath id="e8ad54c1e3"><path d="M 204.433594 182.898438 L 326.5625 188.316406 L 321.148438 310.445312 L 199.015625 305.027344 Z M 204.433594 182.898438 " clip-rule="nonzero"/></clipPath><clipPath id="bc1f78f8bf"><path d="M 204.433594 182.898438 L 326.5625 188.316406 L 321.148438 310.445312 L 199.015625 305.027344 Z M 204.433594 182.898438 " clip-rule="nonzero"/></clipPath><clipPath id="deae63edfc"><path d="M 198 187 L 319 187 L 319 308 L 198 308 Z M 198 187 " clip-rule="nonzero"/></clipPath><clipPath id="0cff61cc59"><path d="M 182.144531 210.09375 L 295.527344 170.804688 L 335.0625 284.898438 L 221.679688 324.1875 Z M 182.144531 210.09375 " clip-rule="nonzero"/></clipPath><clipPath id="e6244b3724"><path d="M 182.144531 210.09375 L 295.527344 170.804688 L 335.0625 284.898438 L 221.679688 324.1875 Z M 182.144531 210.09375 " clip-rule="nonzero"/></clipPath><clipPath id="50a39f4f47"><path d="M 230 209 L 296 209 L 296 291 L 230 291 Z M 230 209 " clip-rule="nonzero"/></clipPath><clipPath id="d4a6f9a18a"><path d="M 182.144531 210.09375 L 295.527344 170.804688 L 335.0625 284.898438 L 221.679688 324.1875 Z M 182.144531 210.09375 " clip-rule="nonzero"/></clipPath><clipPath id="c8d5b7eeee"><path d="M 182.144531 210.09375 L 295.527344 170.804688 L 335.0625 284.898438 L 221.679688 324.1875 Z M 182.144531 210.09375 " clip-rule="nonzero"/></clipPath><clipPath id="2aa56fcf42"><path d="M 204 203 L 275 203 L 275 274 L 204 274 Z M 204 203 " clip-rule="nonzero"/></clipPath><clipPath id="b412a3db92"><path d="M 192.601562 215.519531 L 262.050781 191.453125 L 286.117188 260.902344 L 216.667969 284.96875 Z M 192.601562 215.519531 " clip-rule="nonzero"/></clipPath><clipPath id="276ac17522"><path d="M 192.601562 215.519531 L 262.050781 191.453125 L 286.117188 260.902344 L 216.667969 284.96875 Z M 192.601562 215.519531 " clip-rule="nonzero"/></clipPath><clipPath id="d4b0f79a06"><path d="M 243 222 L 314 222 L 314 293 L 243 293 Z M 243 222 " clip-rule="nonzero"/></clipPath><clipPath id="04c5d19d0e"><path d="M 231.460938 234.707031 L 300.90625 210.640625 L 324.972656 280.089844 L 255.523438 304.15625 Z M 231.460938 234.707031 " clip-rule="nonzero"/></clipPath><clipPath id="86bf868ce1"><path d="M 231.460938 234.707031 L 300.90625 210.640625 L 324.972656 280.089844 L 255.523438 304.15625 Z M 231.460938 234.707031 " clip-rule="nonzero"/></clipPath></defs><g clip-path="url(#0b39fb4c8b)"><path fill="#545454" d="M 180.4375 266.78125 C 180.4375 300.46875 153.085938 327.730469 119.3125 327.730469 C 85.542969 327.730469 58.1875 300.46875 58.1875 266.78125 C 58.1875 233.113281 85.542969 205.824219 119.3125 205.824219 C 153.082031 205.824219 180.4375 233.113281 180.4375 266.78125 Z M 180.4375 266.78125 " fill-opacity="1" fill-rule="nonzero"/></g><path fill="#ffdc00" d="M 141.769531 289.632812 L 147.300781 301.773438 C 145.351562 302.828125 143.117188 303.691406 140.574219 304.351562 C 138.035156 305.015625 135.566406 305.347656 133.183594 305.347656 C 130.101562 305.347656 126.019531 304.625 120.902344 303.183594 C 115.789062 301.738281 112 301.015625 109.542969 301.015625 C 105.378906 301.015625 101.140625 302.492188 96.8125 305.457031 L 91.335938 293.109375 C 95.183594 290.351562 97.957031 287.414062 99.644531 284.308594 C 101.332031 281.195312 102.179688 278.230469 102.179688 275.40625 C 102.179688 274.496094 102.117188 273.519531 101.976562 272.503906 L 91.332031 272.503906 L 91.332031 261.226562 L 99.367188 261.226562 C 97.960938 257.214844 97.265625 253.148438 97.265625 249.03125 C 97.265625 245.328125 98.277344 241.789062 100.3125 238.425781 C 102.339844 235.058594 105.214844 232.496094 108.933594 230.746094 C 112.652344 228.992188 116.703125 228.117188 121.105469 228.117188 C 127.828125 228.117188 133.183594 229.8125 137.171875 233.199219 C 141.160156 236.582031 143.597656 241.433594 144.492188 247.761719 L 130.617188 249.792969 C 129.972656 246.152344 128.796875 243.539062 127.09375 241.9375 C 125.386719 240.335938 123.25 239.542969 120.695312 239.542969 C 117.964844 239.542969 115.695312 240.449219 113.894531 242.269531 C 112.085938 244.089844 111.179688 246.375 111.179688 249.132812 C 111.179688 250.5625 111.429688 252.449219 111.925781 254.796875 C 112.417969 257.140625 113.023438 259.285156 113.738281 261.222656 L 129.707031 261.222656 L 129.707031 272.496094 L 116.09375 272.496094 C 116.195312 273.246094 116.246094 273.996094 116.246094 274.742188 C 116.246094 277.429688 115.734375 279.921875 114.710938 282.191406 C 113.695312 284.46875 111.597656 287.476562 108.421875 291.179688 C 110.300781 290.222656 112.65625 289.757812 115.484375 289.757812 C 116.675781 289.757812 117.75 289.816406 118.699219 289.957031 C 119.179688 290.023438 120.578125 290.34375 122.898438 290.929688 C 127.023438 291.984375 129.839844 292.511719 131.339844 292.511719 C 133.988281 292.492188 137.472656 291.535156 141.769531 289.632812 Z M 141.769531 289.632812 " fill-opacity="1" fill-rule="nonzero"/><g clip-path="url(#ac857f025d)"><path fill="#ffdc00" d="M 175.1875 267.042969 C 175.1875 300.320312 148.335938 327.25 115.1875 327.25 C 82.039062 327.25 55.1875 300.320312 55.1875 267.042969 C 55.1875 233.792969 82.039062 206.835938 115.1875 206.835938 C 148.335938 206.835938 175.1875 233.792969 175.1875 267.042969 Z M 175.1875 267.042969 " fill-opacity="1" fill-rule="nonzero"/></g><path fill="#ffdc00" d="M 137.230469 289.621094 L 142.664062 301.609375 C 140.746094 302.652344 138.554688 303.503906 136.054688 304.15625 C 133.566406 304.8125 131.140625 305.140625 128.804688 305.140625 C 125.777344 305.140625 121.769531 304.425781 116.746094 303.003906 C 111.730469 301.578125 108.011719 300.863281 105.597656 300.863281 C 101.511719 300.863281 97.351562 302.320312 93.101562 305.25 L 87.722656 293.050781 C 91.503906 290.328125 94.226562 287.425781 95.882812 284.359375 C 97.539062 281.285156 98.371094 278.355469 98.371094 275.566406 C 98.371094 274.667969 98.308594 273.703125 98.171875 272.695312 L 87.722656 272.695312 L 87.722656 261.558594 L 95.609375 261.558594 C 94.230469 257.597656 93.546875 253.578125 93.546875 249.515625 C 93.546875 245.855469 94.539062 242.359375 96.535156 239.035156 C 98.527344 235.710938 101.347656 233.179688 104.996094 231.449219 C 108.648438 229.71875 112.625 228.855469 116.945312 228.855469 C 123.546875 228.855469 128.804688 230.527344 132.71875 233.875 C 136.632812 237.214844 139.023438 242.007812 139.90625 248.261719 L 126.285156 250.265625 C 125.648438 246.671875 124.496094 244.085938 122.824219 242.507812 C 121.148438 240.925781 119.050781 240.140625 116.542969 240.140625 C 113.863281 240.140625 111.636719 241.035156 109.871094 242.835938 C 108.09375 244.632812 107.203125 246.890625 107.203125 249.613281 C 107.203125 251.023438 107.449219 252.886719 107.933594 255.207031 C 108.421875 257.523438 109.015625 259.640625 109.714844 261.554688 L 125.390625 261.554688 L 125.390625 272.691406 L 112.027344 272.691406 C 112.128906 273.429688 112.179688 274.171875 112.179688 274.910156 C 112.179688 277.5625 111.675781 280.027344 110.671875 282.269531 C 109.675781 284.519531 107.613281 287.488281 104.5 291.148438 C 106.339844 290.203125 108.652344 289.742188 111.429688 289.742188 C 112.601562 289.742188 113.652344 289.796875 114.585938 289.941406 C 115.054688 290.003906 116.429688 290.320312 118.707031 290.898438 C 122.757812 291.941406 125.519531 292.460938 126.996094 292.460938 C 129.59375 292.441406 133.011719 291.5 137.230469 289.621094 Z M 137.230469 289.621094 " fill-opacity="1" fill-rule="nonzero"/><g clip-path="url(#3ecd857b25)"><path fill="#ffffff" d="M 129.902344 245.078125 L 106.933594 245.078125 L 106.933594 222.109375 C 106.933594 218.300781 103.847656 215.21875 100.042969 215.21875 C 96.238281 215.21875 93.152344 218.300781 93.152344 222.109375 L 93.152344 245.078125 L 70.183594 245.078125 C 66.378906 245.078125 63.292969 248.160156 63.292969 251.96875 C 63.292969 255.773438 66.378906 258.859375 70.183594 258.859375 L 93.152344 258.859375 L 93.152344 281.828125 C 93.152344 285.632812 96.238281 288.71875 100.042969 288.71875 C 103.847656 288.71875 106.933594 285.632812 106.933594 281.828125 L 106.933594 258.859375 L 129.902344 258.859375 C 133.707031 258.859375 136.792969 255.773438 136.792969 251.96875 C 136.792969 248.160156 133.707031 245.078125 129.902344 245.078125 Z M 129.902344 245.078125 " fill-opacity="1" fill-rule="nonzero"/></g><g clip-path="url(#5f9d329c68)"><path fill="#ffffff" d="M 160.335938 275.929688 L 137.367188 275.929688 L 137.367188 252.960938 C 137.367188 249.15625 134.28125 246.070312 130.476562 246.070312 C 126.671875 246.070312 123.585938 249.15625 123.585938 252.960938 L 123.585938 275.929688 L 100.617188 275.929688 C 96.8125 275.929688 93.726562 279.015625 93.726562 282.820312 C 93.726562 286.625 96.8125 289.710938 100.617188 289.710938 L 123.585938 289.710938 L 123.585938 312.679688 C 123.585938 316.484375 126.671875 319.570312 130.476562 319.570312 C 134.28125 319.570312 137.367188 316.484375 137.367188 312.679688 L 137.367188 289.710938 L 160.335938 289.710938 C 164.140625 289.710938 167.226562 286.625 167.226562 282.820312 C 167.226562 279.015625 164.140625 275.929688 160.335938 275.929688 Z M 160.335938 275.929688 " fill-opacity="1" fill-rule="nonzero"/></g><g clip-path="url(#a877511b26)"><g clip-path="url(#cbb5b693df)"><g clip-path="url(#04e700946e)"><path fill="#545454" d="M 206.597656 148.132812 C 195.203125 179.835938 160.238281 196.238281 128.457031 184.8125 C 96.679688 173.390625 80.160156 138.484375 91.554688 106.78125 C 102.941406 75.101562 137.914062 58.671875 169.691406 70.09375 C 201.472656 81.519531 217.984375 116.453125 206.597656 148.132812 Z M 206.597656 148.132812 " fill-opacity="1" fill-rule="nonzero"/></g></g></g><g clip-path="url(#4510bfb37c)"><g clip-path="url(#fb8972e34b)"><g clip-path="url(#60bae49da7)"><path fill="#ffdc00" d="M 162.476562 156.558594 L 163.578125 169.855469 C 161.386719 170.1875 158.992188 170.246094 156.375 170.003906 C 153.761719 169.773438 151.324219 169.25 149.082031 168.445312 C 146.183594 167.402344 142.585938 165.339844 138.257812 162.253906 C 133.9375 159.164062 130.613281 157.199219 128.300781 156.371094 C 124.382812 154.960938 119.894531 154.917969 114.820312 156.242188 L 113.839844 142.769531 C 118.394531 141.476562 122 139.652344 124.640625 137.300781 C 127.28125 134.941406 129.082031 132.4375 130.035156 129.78125 C 130.34375 128.925781 130.613281 127.980469 130.828125 126.976562 L 120.808594 123.378906 L 124.621094 112.765625 L 132.183594 115.484375 C 132.21875 111.234375 132.941406 107.167969 134.332031 103.296875 C 135.585938 99.8125 137.734375 96.824219 140.785156 94.347656 C 143.835938 91.863281 147.40625 90.425781 151.496094 90.035156 C 155.589844 89.644531 159.699219 90.191406 163.839844 91.679688 C 170.167969 93.953125 174.632812 97.359375 177.242188 101.894531 C 179.851562 106.429688 180.503906 111.820312 179.207031 118.078125 L 165.460938 115.296875 C 166.082031 111.652344 165.863281 108.792969 164.800781 106.710938 C 163.734375 104.628906 161.992188 103.15625 159.589844 102.292969 C 157.019531 101.367188 154.578125 101.453125 152.269531 102.558594 C 149.949219 103.660156 148.324219 105.503906 147.390625 108.101562 C 146.910156 109.441406 146.507812 111.304688 146.175781 113.679688 C 145.847656 116.054688 145.691406 118.277344 145.707031 120.34375 L 160.738281 125.746094 L 156.925781 136.351562 L 144.113281 131.746094 C 143.957031 132.488281 143.75 133.210938 143.496094 133.914062 C 142.589844 136.441406 141.265625 138.613281 139.53125 140.40625 C 137.804688 142.203125 134.816406 144.324219 130.574219 146.734375 C 132.664062 146.472656 135.039062 146.828125 137.703125 147.785156 C 138.824219 148.1875 139.8125 148.605469 140.660156 149.0625 C 141.085938 149.285156 142.296875 150.058594 144.28125 151.394531 C 147.808594 153.785156 150.277344 155.230469 151.691406 155.738281 C 154.191406 156.617188 157.792969 156.894531 162.476562 156.558594 Z M 162.476562 156.558594 " fill-opacity="1" fill-rule="nonzero"/></g></g></g><g clip-path="url(#94156d07e0)"><g clip-path="url(#f647236f55)"><g clip-path="url(#7c1c418aaf)"><path fill="#ffdc00" d="M 201.050781 147.210938 C 189.792969 178.527344 155.417969 194.785156 124.21875 183.570312 C 93.027344 172.359375 76.867188 137.9375 88.121094 106.621094 C 99.371094 75.328125 133.757812 59.042969 164.949219 70.253906 C 196.144531 81.46875 212.296875 115.917969 201.050781 147.210938 Z M 201.050781 147.210938 " fill-opacity="1" fill-rule="nonzero"/></g></g></g><g clip-path="url(#6613693b0c)"><g clip-path="url(#5410a1dbc0)"><g clip-path="url(#1b53873685)"><path fill="#ffdc00" d="M 157.691406 155.617188 L 158.75 168.738281 C 156.59375 169.070312 154.242188 169.132812 151.671875 168.898438 C 149.105469 168.675781 146.710938 168.164062 144.511719 167.375 C 141.664062 166.351562 138.136719 164.320312 133.890625 161.285156 C 129.652344 158.242188 126.390625 156.3125 124.121094 155.496094 C 120.277344 154.113281 115.867188 154.082031 110.878906 155.398438 L 109.945312 142.097656 C 114.421875 140.816406 117.964844 139.007812 120.5625 136.679688 C 123.160156 134.347656 124.933594 131.871094 125.878906 129.246094 C 126.179688 128.402344 126.449219 127.472656 126.660156 126.480469 L 116.824219 122.945312 L 120.59375 112.464844 L 128.015625 115.132812 C 128.058594 110.9375 128.773438 106.921875 130.148438 103.097656 C 131.386719 99.65625 133.503906 96.703125 136.507812 94.25 C 139.507812 91.792969 143.015625 90.367188 147.035156 89.972656 C 151.058594 89.582031 155.09375 90.109375 159.160156 91.574219 C 165.367188 93.804688 169.75 97.160156 172.304688 101.632812 C 174.859375 106.097656 175.484375 111.421875 174.199219 117.601562 L 160.703125 114.882812 C 161.324219 111.28125 161.109375 108.460938 160.074219 106.410156 C 159.03125 104.351562 157.320312 102.90625 154.960938 102.058594 C 152.441406 101.148438 150.042969 101.238281 147.769531 102.335938 C 145.488281 103.425781 143.890625 105.25 142.96875 107.8125 C 142.492188 109.140625 142.09375 110.976562 141.765625 113.324219 C 141.4375 115.667969 141.28125 117.859375 141.292969 119.902344 L 156.042969 125.203125 L 152.277344 135.683594 L 139.699219 131.160156 C 139.546875 131.890625 139.34375 132.605469 139.09375 133.300781 C 138.195312 135.796875 136.890625 137.945312 135.183594 139.714844 C 133.484375 141.496094 130.542969 143.59375 126.375 145.980469 C 128.425781 145.71875 130.757812 146.0625 133.371094 147.003906 C 134.472656 147.398438 135.445312 147.808594 136.277344 148.257812 C 136.695312 148.476562 137.882812 149.238281 139.828125 150.554688 C 143.289062 152.90625 145.710938 154.328125 147.097656 154.828125 C 149.550781 155.691406 153.089844 155.957031 157.691406 155.617188 Z M 157.691406 155.617188 " fill-opacity="1" fill-rule="nonzero"/></g></g></g><g clip-path="url(#43665a7e63)"><g clip-path="url(#491ba68a7c)"><g clip-path="url(#159f458912)"><path fill="#ffffff" d="M 165.863281 111.222656 L 144.246094 103.453125 L 152.015625 81.839844 C 153.304688 78.257812 151.445312 74.3125 147.863281 73.023438 C 144.28125 71.734375 140.335938 73.59375 139.046875 77.175781 L 131.277344 98.792969 L 109.664062 91.023438 C 106.082031 89.734375 102.136719 91.59375 100.847656 95.175781 C 99.5625 98.757812 101.421875 102.703125 105.003906 103.992188 L 126.617188 111.761719 L 118.847656 133.375 C 117.558594 136.957031 119.417969 140.902344 123 142.191406 C 126.582031 143.476562 130.53125 141.617188 131.816406 138.039062 L 139.585938 116.421875 L 161.199219 124.191406 C 164.78125 125.480469 168.730469 123.621094 170.015625 120.039062 C 171.304688 116.457031 169.445312 112.511719 165.863281 111.222656 Z M 165.863281 111.222656 " fill-opacity="1" fill-rule="nonzero"/></g></g></g><g clip-path="url(#a768bc606d)"><g clip-path="url(#8b706384d8)"><g clip-path="url(#7842bb5b77)"><path fill="#ffffff" d="M 184.066406 150.550781 L 162.449219 142.78125 L 170.21875 121.167969 C 171.507812 117.585938 169.648438 113.640625 166.066406 112.351562 C 162.484375 111.066406 158.539062 112.925781 157.25 116.503906 L 149.480469 138.121094 L 127.867188 130.351562 C 124.285156 129.0625 120.339844 130.921875 119.050781 134.503906 C 117.765625 138.085938 119.625 142.03125 123.207031 143.320312 L 144.820312 151.089844 L 137.050781 172.703125 C 135.761719 176.285156 137.621094 180.230469 141.203125 181.519531 C 144.785156 182.808594 148.730469 180.945312 150.019531 177.367188 L 157.789062 155.75 L 179.402344 163.519531 C 182.984375 164.808594 186.933594 162.949219 188.21875 159.367188 C 189.507812 155.785156 187.648438 151.839844 184.066406 150.550781 Z M 184.066406 150.550781 " fill-opacity="1" fill-rule="nonzero"/></g></g></g><g clip-path="url(#f1235d8f5f)"><g clip-path="url(#b1b698a3ee)"><g clip-path="url(#0208166319)"><path fill="#545454" d="M 323.855469 249.382812 C 322.363281 283.039062 293.828125 309.058594 260.085938 307.5625 C 226.351562 306.066406 200.234375 277.621094 201.726562 243.964844 C 203.21875 210.332031 231.753906 184.28125 265.488281 185.777344 C 299.226562 187.277344 325.347656 215.75 323.855469 249.382812 Z M 323.855469 249.382812 " fill-opacity="1" fill-rule="nonzero"/></g></g></g><g clip-path="url(#1c1d6989bb)"><g clip-path="url(#e8ad54c1e3)"><g clip-path="url(#bc1f78f8bf)"><path fill="#ffdc00" d="M 284.210938 270.5 L 289.203125 282.875 C 287.203125 283.839844 284.9375 284.601562 282.363281 285.148438 C 279.800781 285.703125 277.316406 285.925781 274.9375 285.820312 C 271.859375 285.683594 267.8125 284.777344 262.765625 283.113281 C 257.722656 281.441406 253.96875 280.550781 251.511719 280.441406 C 247.351562 280.257812 243.054688 281.546875 238.597656 284.316406 L 233.671875 271.734375 C 237.640625 269.152344 240.542969 266.339844 242.363281 263.3125 C 244.1875 260.28125 245.167969 257.355469 245.292969 254.535156 C 245.332031 253.625 245.3125 252.644531 245.21875 251.621094 L 234.582031 251.152344 L 235.082031 239.886719 L 243.109375 240.242188 C 241.882812 236.171875 241.367188 232.078125 241.550781 227.96875 C 241.714844 224.265625 242.882812 220.777344 245.0625 217.503906 C 247.238281 214.230469 250.222656 211.800781 254.015625 210.214844 C 257.808594 208.628906 261.894531 207.933594 266.292969 208.128906 C 273.007812 208.425781 278.285156 210.355469 282.121094 213.917969 C 285.953125 217.472656 288.171875 222.429688 288.789062 228.792969 L 274.835938 230.207031 C 274.351562 226.539062 273.292969 223.875 271.664062 222.203125 C 270.027344 220.527344 267.929688 219.636719 265.375 219.523438 C 262.648438 219.402344 260.34375 220.207031 258.464844 221.949219 C 256.574219 223.6875 255.570312 225.929688 255.445312 228.683594 C 255.382812 230.109375 255.550781 232.007812 255.9375 234.375 C 256.328125 236.738281 256.839844 238.90625 257.464844 240.875 L 273.421875 241.582031 L 272.921875 252.847656 L 259.320312 252.242188 C 259.390625 252.996094 259.40625 253.746094 259.375 254.492188 C 259.253906 257.175781 258.632812 259.644531 257.507812 261.867188 C 256.394531 264.097656 254.164062 267.007812 250.828125 270.566406 C 252.746094 269.695312 255.121094 269.332031 257.945312 269.457031 C 259.140625 269.511719 260.207031 269.617188 261.152344 269.800781 C 261.625 269.886719 263.011719 270.269531 265.300781 270.957031 C 269.378906 272.195312 272.164062 272.84375 273.664062 272.914062 C 276.3125 273.011719 279.835938 272.210938 284.210938 270.5 Z M 284.210938 270.5 " fill-opacity="1" fill-rule="nonzero"/></g></g></g><g clip-path="url(#deae63edfc)"><g clip-path="url(#0cff61cc59)"><g clip-path="url(#e6244b3724)"><path fill="#ffdc00" d="M 315.296875 227.855469 C 326.191406 259.296875 309.636719 293.53125 278.3125 304.386719 C 246.996094 315.238281 212.808594 298.585938 201.910156 267.144531 C 191.023438 235.722656 207.570312 201.460938 238.890625 190.609375 C 270.210938 179.757812 304.410156 196.433594 315.296875 227.855469 Z M 315.296875 227.855469 " fill-opacity="1" fill-rule="nonzero"/></g></g></g><g clip-path="url(#50a39f4f47)"><g clip-path="url(#d4a6f9a18a)"><g clip-path="url(#c8d5b7eeee)"><path fill="#ffdc00" d="M 286.824219 261.613281 L 295.882812 271.164062 C 294.414062 272.777344 292.621094 274.300781 290.472656 275.734375 C 288.335938 277.167969 286.152344 278.273438 283.941406 279.039062 C 281.085938 280.027344 277.0625 280.664062 271.851562 280.96875 C 266.644531 281.261719 262.894531 281.800781 260.613281 282.59375 C 256.753906 283.929688 253.300781 286.671875 250.242188 290.828125 L 241.167969 281.0625 C 243.847656 277.253906 245.472656 273.621094 246.03125 270.179688 C 246.589844 266.734375 246.417969 263.691406 245.503906 261.058594 C 245.210938 260.210938 244.832031 259.316406 244.375 258.410156 L 234.503906 261.832031 L 230.855469 251.308594 L 238.308594 248.726562 C 235.707031 245.433594 233.746094 241.859375 232.414062 238.019531 C 231.21875 234.5625 231.011719 230.9375 231.808594 227.140625 C 232.601562 223.347656 234.441406 220.035156 237.320312 217.203125 C 240.207031 214.371094 243.679688 212.253906 247.761719 210.839844 C 253.996094 208.679688 259.511719 208.539062 264.308594 210.417969 C 269.101562 212.292969 272.929688 216.039062 275.808594 221.65625 L 263.597656 228.011719 C 261.820312 224.824219 259.882812 222.761719 257.785156 221.8125 C 255.683594 220.867188 253.445312 220.8125 251.078125 221.632812 C 248.542969 222.511719 246.734375 224.085938 245.652344 226.363281 C 244.5625 228.644531 244.460938 231.070312 245.355469 233.644531 C 245.816406 234.976562 246.65625 236.65625 247.875 238.691406 C 249.09375 240.71875 250.347656 242.523438 251.636719 244.105469 L 266.449219 238.972656 L 270.09375 249.496094 L 257.464844 253.871094 C 257.804688 254.535156 258.09375 255.21875 258.335938 255.917969 C 259.203125 258.421875 259.535156 260.914062 259.320312 263.363281 C 259.113281 265.816406 258.140625 269.292969 256.394531 273.773438 C 257.828125 272.277344 259.859375 271.082031 262.484375 270.175781 C 263.589844 269.792969 264.605469 269.5 265.53125 269.328125 C 265.996094 269.234375 267.398438 269.085938 269.738281 268.886719 C 273.90625 268.542969 276.6875 268.132812 278.082031 267.648438 C 280.53125 266.78125 283.453125 264.769531 286.824219 261.613281 Z M 286.824219 261.613281 " fill-opacity="1" fill-rule="nonzero"/></g></g></g><g clip-path="url(#2aa56fcf42)"><g clip-path="url(#b412a3db92)"><g clip-path="url(#276ac17522)"><path fill="#ffffff" d="M 265.316406 221.921875 L 243.613281 229.445312 L 236.09375 207.742188 C 234.847656 204.144531 230.921875 202.238281 227.328125 203.488281 C 223.730469 204.734375 221.824219 208.65625 223.070312 212.253906 L 230.589844 233.957031 L 208.890625 241.476562 C 205.292969 242.722656 203.386719 246.648438 204.632812 250.242188 C 205.878906 253.839844 209.804688 255.742188 213.402344 254.496094 L 235.105469 246.976562 L 242.625 268.679688 C 243.871094 272.277344 247.796875 274.179688 251.390625 272.933594 C 254.988281 271.6875 256.890625 267.765625 255.644531 264.167969 L 248.125 242.464844 L 269.828125 234.945312 C 273.425781 233.699219 275.328125 229.773438 274.082031 226.179688 C 272.835938 222.582031 268.914062 220.675781 265.316406 221.921875 Z M 265.316406 221.921875 " fill-opacity="1" fill-rule="nonzero"/></g></g></g><g clip-path="url(#d4b0f79a06)"><g clip-path="url(#04c5d19d0e)"><g clip-path="url(#86bf868ce1)"><path fill="#ffffff" d="M 304.171875 241.113281 L 282.472656 248.632812 L 274.949219 226.929688 C 273.703125 223.332031 269.78125 221.429688 266.183594 222.675781 C 262.585938 223.921875 260.683594 227.84375 261.929688 231.441406 L 269.449219 253.144531 L 247.746094 260.664062 C 244.148438 261.910156 242.246094 265.835938 243.492188 269.429688 C 244.738281 273.027344 248.664062 274.933594 252.257812 273.6875 L 273.960938 266.164062 L 281.480469 287.867188 C 282.726562 291.464844 286.652344 293.371094 290.25 292.125 C 293.84375 290.875 295.75 286.953125 294.503906 283.355469 L 286.984375 261.652344 L 308.6875 254.132812 C 312.28125 252.886719 314.1875 248.960938 312.941406 245.367188 C 311.695312 241.769531 307.769531 239.867188 304.171875 241.113281 Z M 304.171875 241.113281 " fill-opacity="1" fill-rule="nonzero"/></g></g></g></svg>