<svg xmlns="http://www.w3.org/2000/svg" xmlns:xlink="http://www.w3.org/1999/xlink" width="500" zoomAndPan="magnify" viewBox="0 0 375 374.999991" height="500" preserveAspectRatio="xMidYMid meet" version="1.0"><defs><clipPath id="d56b3f0589"><path d="M 9.152344 77 L 366.152344 77 L 366.152344 300 L 9.152344 300 Z M 9.152344 77 " clip-rule="nonzero"/></clipPath></defs><rect x="-37.5" width="450" fill="#ffffff" y="-37.499999" height="449.999989" fill-opacity="1"/><rect x="-37.5" width="450" fill="#ffffff" y="-37.499999" height="449.999989" fill-opacity="1"/><path fill="#ffd432" d="M 40.792969 326.433594 C 44.25 338.25 55.101562 346.402344 67.425781 346.402344 L 67.425781 358.9375 L 307.882812 358.9375 L 307.882812 346.402344 C 320.203125 346.402344 331.058594 338.25 334.511719 326.433594 L 337.335938 316.753906 L 37.972656 316.753906 Z M 40.792969 326.433594 " fill-opacity="1" fill-rule="nonzero"/><g clip-path="url(#d56b3f0589)"><path fill="#ffd432" d="M 366.152344 184.011719 L 297.058594 184.011719 L 279.957031 146.324219 L 285.539062 141.335938 L 277.679688 141.335938 L 268.265625 120.621094 L 258.851562 141.335938 L 216.445312 141.335938 L 187.652344 77.949219 L 158.863281 141.335938 L 116.453125 141.335938 L 107.039062 120.621094 L 97.625 141.335938 L 89.765625 141.335938 L 95.351562 146.324219 L 78.25 184.011719 L 9.152344 184.011719 L 63.855469 232.992188 L 37.945312 299.265625 L 107.039062 261.804688 L 176.136719 299.265625 L 152.300781 238.292969 L 187.652344 219.132812 L 223.007812 238.292969 L 199.167969 299.265625 L 268.265625 261.804688 L 337.363281 299.265625 L 311.453125 232.992188 Z M 366.152344 184.011719 " fill-opacity="1" fill-rule="nonzero"/></g><path fill="#ca6612" d="M 67.425781 346.402344 L 307.882812 346.402344 L 307.882812 358.9375 L 67.425781 358.9375 Z M 67.425781 346.402344 " fill-opacity="1" fill-rule="nonzero"/><path fill="#f07b10" d="M 337.335938 316.753906 L 334.511719 326.433594 C 331.058594 338.25 320.203125 346.402344 307.882812 346.402344 L 67.425781 346.402344 C 55.101562 346.402344 44.25 338.25 40.792969 326.433594 L 37.972656 316.753906 Z M 337.335938 316.753906 " fill-opacity="1" fill-rule="nonzero"/><path fill="#ffe06f" d="M 277.679688 141.335938 L 285.539062 141.335938 L 279.957031 146.324219 L 230.839844 190.320312 L 256.75 256.589844 L 223.007812 238.292969 L 187.652344 219.132812 L 152.300781 238.292969 L 118.558594 256.589844 L 144.46875 190.320312 L 95.351562 146.324219 L 89.765625 141.335938 L 158.863281 141.335938 L 187.652344 77.949219 L 216.445312 141.335938 Z M 277.679688 141.335938 " fill-opacity="1" fill-rule="nonzero"/><path fill="#ffdc00" d="M 187.652344 67.199219 C 186.0625 67.199219 184.773438 65.910156 184.773438 64.320312 L 184.773438 23.203125 C 184.773438 21.613281 186.0625 20.320312 187.652344 20.320312 C 189.246094 20.320312 190.53125 21.613281 190.53125 23.203125 L 190.53125 64.320312 C 190.53125 65.910156 189.246094 67.199219 187.652344 67.199219 Z M 187.652344 67.199219 " fill-opacity="1" fill-rule="nonzero"/><path fill="#ffdc00" d="M 114.757812 100.453125 C 113.96875 100.453125 113.179688 100.128906 112.613281 99.492188 L 81.433594 64.683594 C 80.371094 63.5 80.46875 61.679688 81.652344 60.617188 C 82.839844 59.554688 84.660156 59.65625 85.71875 60.839844 L 116.898438 95.644531 C 117.960938 96.828125 117.863281 98.652344 116.679688 99.714844 C 116.125 100.207031 115.441406 100.453125 114.757812 100.453125 Z M 114.757812 100.453125 " fill-opacity="1" fill-rule="nonzero"/><path fill="#ffdc00" d="M 260.550781 100.453125 C 259.867188 100.453125 259.175781 100.210938 258.628906 99.714844 C 257.445312 98.652344 257.347656 96.832031 258.410156 95.648438 L 289.589844 60.839844 C 290.652344 59.65625 292.46875 59.5625 293.652344 60.621094 C 294.835938 61.683594 294.933594 63.503906 293.871094 64.6875 L 262.691406 99.496094 C 262.125 100.125 261.339844 100.453125 260.550781 100.453125 Z M 260.550781 100.453125 " fill-opacity="1" fill-rule="nonzero"/></svg>