<svg xmlns:mydata="http://www.w3.org/2000/svg" mydata:contrastcolor="11111f" mydata:template="Contrast" mydata:presentation="2.5" mydata:layouttype="undefined" mydata:specialfontid="undefined" mydata:id1="004" mydata:id2="063" mydata:companyname="Music Pro" mydata:companytagline="warehouse and distributor" version="1.1" xmlns="http://www.w3.org/2000/svg" xmlns:xlink="http://www.w3.org/1999/xlink" viewBox="0 50 550 370" style="height: 188px;"><g fill="#ffc600" fill-rule="evenodd" stroke="none" stroke-width="1" stroke-linecap="butt" stroke-linejoin="miter" stroke-miterlimit="10" stroke-dasharray="" stroke-dashoffset="0" font-family="none" font-weight="none" font-size="none" text-anchor="none" style="mix-blend-mode: normal"><g data-paper-data="{&quot;isGlobalGroup&quot;:true,&quot;bounds&quot;:{&quot;x&quot;:172.9620310864399,&quot;y&quot;:106.00000000000003,&quot;width&quot;:204.07593782712027,&quot;height&quot;:258}}"><g data-paper-data="{&quot;isContainerElementsWrapper&quot;:true}" id="element-id-53142"><path d="M172.96203,360.12636c0,2.13903 1.73384,3.87364 3.87364,3.87364h196.32865c2.1398,0 3.87364,-1.73462 3.87364,-3.87364v-250.25271c0,-2.13941 -1.73384,-3.87364 -3.87364,-3.87364h-196.32865c-2.1398,0 -3.87364,1.73423 -3.87364,3.87364zM299.74251,144.94701c-13.51592,0 -6.02971,-0.20763 -31.50202,-0.20763c-17.36167,0 -14.97086,-0.41603 -27.44709,-0.41603c-1.86167,0 -3.46381,-0.01937 -4.84128,-0.03564c-4.92495,-0.05888 -6.98805,-0.08367 -7.8511,0.92193c-0.62211,0.72515 -0.61978,1.9864 -0.61591,4.15797c0.00077,0.18361 0.00077,0.37342 0.00077,0.56943c0,34.20505 0.31222,21.41738 0.31222,39.50729c0,7.40486 -0.04261,13.24011 -0.0767,17.83813c-0.12396,16.90226 -0.12551,17.09439 2.5721,17.09439c2.6395,0 4.86685,0.01395 6.74556,0.02557c7.24914,0.04416 9.31844,0.05656 9.89406,-0.8646c0.23009,-0.368 0.2208,-0.88474 0.2084,-1.60834c-0.00232,-0.17664 -0.0062,-0.36567 -0.0062,-0.5671c0,0 -0.20763,-17.15482 -0.20763,-24.74406c0,-11.74799 0.51984,-22.14485 0.93587,-33.89283c0,-0.19678 -0.01859,-0.37574 -0.03564,-0.53921c-0.15262,-1.47586 -0.17044,-1.64397 14.90268,-1.64397c0.10459,0 0.20065,-0.01549 0.28897,-0.02866c0.12163,-0.01937 0.22777,-0.03564 0.32151,-0.00852c0.68563,0.20065 0.68254,2.75416 0.6531,23.95926c-0.00697,5.32084 -0.01627,11.81616 -0.01627,19.74319c0,0.28587 -0.00232,0.55471 -0.00387,0.80882c-0.0124,1.46346 -0.02014,2.41715 0.43075,3.03461c0.84523,1.1559 3.30034,1.13575 10.34805,1.07687c1.8578,-0.01549 4.03556,-0.03409 6.58752,-0.03409c3.84653,0 4.15874,0 4.15874,-8.00527c0,-0.31144 -0.51984,-37.84317 -0.51984,-38.36302c0,-1.47973 0.08212,-1.47896 3.17019,-1.46036c0.38504,0.00232 0.81656,0.00465 1.29999,0.00465h10.50067c1.14427,0 1.55953,0.41603 1.55953,1.45572c0,15.79439 -0.16114,27.50519 -0.28278,36.3433c-0.17122,12.45454 -0.26418,19.20552 0.28278,23.64472c0.2084,1.97556 0.2084,2.18319 1.76793,2.18319c0.62366,0 6.75718,-0.10381 16.94642,-0.41525c2.30404,-0.09607 2.30327,-0.45864 2.28932,-7.38859c-0.00077,-0.57485 -0.00232,-1.19541 -0.00232,-1.86477c0,0 0,0.0031 -0.00077,0.00542c-0.00077,0.00232 -0.00155,0.00465 -0.0031,0.00465c-0.03409,0.00387 -0.30834,-2.12353 -0.30834,-70.18732zM283.21987,254.826c-1.33718,-0.53456 -6.24819,-1.26978 -6.24819,-3.30809c0,-1.50297 1.83766,-1.9376 2.9401,-1.9376c1.0025,0 2.20488,0.30059 2.84016,0.90178c0.40053,0.40131 0.56788,0.66859 0.70113,1.0025c0.16734,0.43462 0.26806,0.90256 0.90256,0.90256h3.27478c0.76776,0 0.96841,-0.13403 0.96841,-0.93587c0,-4.41053 -4.6445,-6.34813 -8.88769,-6.34813c-4.17656,0.16657 -8.11916,2.30559 -8.11916,6.64872c0,4.24396 3.10744,5.58037 6.48216,6.6495c2.84016,0.90178 5.81356,0.9351 5.81356,2.80684c0,1.87097 -1.47044,2.2715 -3.274,2.2715c-1.23647,0 -2.60619,-0.30059 -3.27478,-1.10244c-0.43462,-0.50125 -0.60119,-0.93587 -0.6345,-1.36972c-0.0674,-0.83516 -0.43462,-0.93587 -1.20315,-0.93587h-3.24146c-0.76776,0 -0.96841,0.16734 -0.96841,0.93587c0,4.67781 4.81107,7.08334 8.98763,7.08334c5.14575,0 8.88769,-2.27228 8.88769,-7.01672c0,-4.54378 -3.54128,-5.51297 -5.94682,-6.24819zM338.77412,261.07419c0,-0.80184 -0.26728,-1.13575 -1.0025,-1.13575h-3.27478c-0.73522,0 -0.80184,0.53456 -0.90178,1.20238c-0.26728,1.60369 -1.7044,2.27228 -3.50875,2.27228c-2.20488,0 -3.70863,-1.20315 -3.70863,-3.3414v-6.94932c0,-2.10571 1.50375,-3.3414 3.70863,-3.3414c1.80434,0 2.74022,0.50125 3.44212,1.60369c0.26728,0.40053 0.30059,1.03581 1.00172,1.03581h3.20815c0.76853,0 1.03581,-0.16734 1.03581,-0.96919c-0.43462,-4.24319 -4.54456,-6.34813 -8.68781,-6.34813c-3.97591,0 -8.95431,2.30559 -8.95431,7.55128v7.88519c0,5.24569 4.97841,7.55128 8.95431,7.55128c4.14325,0 8.68781,-2.70613 8.68781,-7.01672zM230.93963,245.5711h-3.20738c-1.10321,0 -1.26978,0.73444 -1.50375,1.13575l-4.61119,8.2191l-4.5771,-8.2191c-0.26728,-0.40131 -0.40131,-1.13575 -1.53706,-1.13575h-3.30809c-0.76853,0 -0.96919,0.36722 -0.96919,0.96841v20.08097c0,0.76853 0.368,0.96919 0.96919,0.96919h3.30809c0.60119,0 0.96841,-0.20065 0.96841,-0.96919v-11.32653l3.37472,5.84688c0.16734,0.26728 0.43462,0.7019 0.93587,0.7019h1.67032c0.50125,0 0.80262,-0.43462 0.96919,-0.7019l3.3414,-5.84688v11.32653c0,0.76853 0.36722,0.96919 0.96919,0.96919h3.20738c0.60119,0 0.96919,-0.20065 0.96919,-0.96919v-20.08097c0,-0.60119 -0.20065,-0.96841 -0.96919,-0.96841zM256.94572,245.60441h3.30809c0.60119,0 0.96919,0.19988 0.96919,0.96841v14.30072c0,5.24569 -4.87847,7.21737 -8.85437,7.21737c-3.97668,0 -8.82106,-1.97168 -8.82106,-7.21737v-14.30072c0,-0.76853 0.36722,-0.96841 0.96919,-0.96841h3.30732c0.60196,0 0.96919,0.19988 0.96919,0.96841v13.5655c0,2.10571 1.36972,3.30809 3.57537,3.30809c2.20488,0 3.60869,-1.20238 3.60869,-3.30809v-13.5655c0,-0.76853 0.36722,-0.96841 0.96841,-0.96841zM307.48825,263.01256h2.10494c0.76853,0 0.96919,0.36722 0.96919,0.96841v2.6395c0,0.60196 -0.20065,0.96919 -0.96919,0.96919h-9.45556c-0.76853,0 -0.96919,-0.36722 -0.96919,-0.96919v-2.6395c0,-0.60119 0.20065,-0.96841 0.96919,-0.96841h2.10494v-12.76443h-2.03831c-0.76853,0 -0.96919,-0.36722 -0.96919,-0.96841v-2.7069c0,-0.60119 0.20065,-0.96841 0.96919,-0.96841h9.289c0.76853,0 0.96919,0.36722 0.96919,0.96841v2.7069c0,0.60119 -0.20065,0.96841 -0.96919,0.96841h-2.005zM323.37174,275.82348c6.81374,0 15.40238,3.89301 15.40238,12.93952v13.51282c0,9.04651 -8.58864,12.93952 -15.40238,12.93952c-6.81296,0 -15.28695,-3.89301 -15.28695,-12.93952v-13.51282c0,-9.04651 8.47398,-12.93952 15.28695,-12.93952zM212.8869,276.68188h12.88219c9.84835,0 15.00107,5.38204 15.00107,13.2835c0,7.95879 -5.26738,13.22617 -15.0584,13.22617h-5.4967v9.50437c0,1.31704 -0.62985,1.66102 -1.66024,1.66102h-5.66792c-1.03116,0 -1.66102,-0.34398 -1.66102,-1.66102v-34.35302c0,-1.03116 0.34398,-1.66102 1.66102,-1.66102zM289.97241,312.5247l-8.07267,-11.73791c3.54981,-1.20238 7.95801,-5.38204 7.95801,-11.39394c0,-3.66447 -1.20238,-6.92762 -3.32049,-8.98918c-2.40476,-2.40476 -5.1535,-3.66447 -11.39394,-3.66447h-14.42855c-1.31704,0 -1.60369,0.62985 -1.60369,1.66024v34.29647c0,1.31704 0.57252,1.66102 1.60369,1.66102h5.66792c1.03116,0 1.66102,-0.34398 1.66102,-1.66102v-27.94059h7.61481c2.97728,0 5.26738,1.88956 5.26738,4.86685c0,2.69063 -2.6333,4.63753 -5.43937,4.63753h-1.14505c-1.31704,0 -1.66024,0.62985 -1.66024,1.66024v4.58097c0,1.60291 0.11466,2.23277 0.62985,2.91995l6.18388,9.2185c0.80107,1.20238 1.48825,1.71757 2.86262,1.71757h6.75641c1.08772,0 1.37359,-1.03116 0.8584,-1.83223zM323.37174,307.25655c3.77913,0 6.4132,-2.11811 6.4132,-5.78258v-11.90913c0,-3.66447 -2.63408,-5.78335 -6.4132,-5.78335c-3.7218,0 -6.3551,2.11888 -6.3551,5.78335v11.90913c0,3.66447 2.6333,5.78258 6.3551,5.78258zM220.21506,295.46208h5.4967c4.46631,0 6.4132,-2.46209 6.4132,-5.32471c0,-2.97728 -1.94689,-5.38204 -6.4132,-5.38204h-5.4967zM242.51175,323.54367c0,0.72979 -0.15417,1.27598 -0.46251,1.6401c-0.30834,0.36412 -0.75614,0.54541 -1.34415,0.54541c-0.62056,0 -1.07687,-0.19136 -1.36895,-0.57407c-0.29207,-0.38349 -0.4385,-0.92038 -0.4385,-1.61144c0,-0.69519 0.14617,-1.23337 0.4385,-1.61453c0.29207,-0.38117 0.74839,-0.57175 1.36895,-0.57175c0.62443,0 1.08152,0.19058 1.37127,0.57175c0.29052,0.38117 0.4354,0.91883 0.4354,1.61453zM253.19061,324.42608c0,0.4199 -0.1379,0.74219 -0.41371,0.96686c-0.2758,0.22467 -0.68254,0.33623 -1.2202,0.33623c-0.37187,0 -0.69493,-0.0612 -0.96919,-0.18439c-0.27348,-0.12318 -0.4966,-0.32229 -0.66782,-0.59732l0.65774,-0.50357c0.09684,0.1379 0.18903,0.24094 0.2758,0.30912c0.08677,0.06895 0.18981,0.12241 0.30912,0.16114c0.11931,0.03796 0.25644,0.05733 0.41216,0.05733c0.23242,0 0.41371,-0.03951 0.54463,-0.12008c0.13015,-0.0798 0.19523,-0.20143 0.19523,-0.3649c0,-0.09297 -0.02247,-0.17122 -0.06818,-0.23319c-0.04571,-0.06275 -0.11389,-0.11698 -0.20453,-0.16269c-0.09142,-0.04493 -0.24869,-0.09762 -0.47336,-0.15572c-0.2177,-0.05888 -0.42378,-0.11776 -0.61668,-0.17741c-0.19291,-0.05965 -0.35947,-0.13713 -0.50047,-0.23242c-0.14023,-0.09452 -0.25101,-0.21383 -0.33158,-0.35715c-0.08135,-0.1441 -0.12163,-0.32461 -0.12163,-0.54308c0,-0.39821 0.1348,-0.70888 0.40363,-0.932c0.26857,-0.22364 0.65361,-0.33546 1.15512,-0.33546c0.72515,0 1.23879,0.24869 1.54016,0.74606l-0.65232,0.50977c-0.11466,-0.17819 -0.24404,-0.30524 -0.38814,-0.38272c-0.14332,-0.0767 -0.31377,-0.11466 -0.5121,-0.11466c-0.19833,0 -0.35947,0.03564 -0.48343,0.10769c-0.12473,0.07128 -0.18671,0.18439 -0.18671,0.33778c0,0.13558 0.06508,0.23862 0.19446,0.31067c0.12938,0.07205 0.35483,0.1441 0.67556,0.21692c0.17819,0.04648 0.35405,0.09607 0.52759,0.1503c0.17431,0.05346 0.32926,0.12783 0.46561,0.22235c0.13635,0.09529 0.24636,0.21925 0.32926,0.37342c0.08264,0.1534 0.12396,0.35044 0.12396,0.59112zM293.54778,325.39294c0.2758,-0.22467 0.41371,-0.54696 0.41371,-0.96686c0,-0.24094 -0.04106,-0.43772 -0.12396,-0.59112c-0.0829,-0.15417 -0.19291,-0.27813 -0.32926,-0.37342c-0.13635,-0.09452 -0.2913,-0.16889 -0.46561,-0.22235c-0.17354,-0.05423 -0.3494,-0.10381 -0.52682,-0.1503c-0.32151,-0.07282 -0.54696,-0.14487 -0.67634,-0.21692c-0.12938,-0.07205 -0.19446,-0.17509 -0.19446,-0.31067c0,-0.1534 0.06275,-0.26651 0.18671,-0.33778c0.12473,-0.07205 0.28587,-0.10769 0.48343,-0.10769c0.19833,0 0.36877,0.03796 0.51287,0.11466c0.14332,0.07747 0.2727,0.20453 0.38814,0.38272l0.65155,-0.50977c-0.30111,-0.49738 -0.8145,-0.74606 -1.54016,-0.74606c-0.50125,0 -0.88629,0.11234 -1.15512,0.33546c-0.26883,0.22312 -0.40286,0.53379 -0.40286,0.932c0,0.21847 0.04029,0.39899 0.12086,0.54308c0.08057,0.14332 0.19136,0.26263 0.33236,0.35715c0.14023,0.09529 0.30679,0.17276 0.4997,0.23242c0.19291,0.05965 0.39899,0.11853 0.61746,0.17741c0.2239,0.0581 0.38194,0.11079 0.47258,0.15572c0.09064,0.04571 0.15959,0.09994 0.20453,0.16269c0.04571,0.06198 0.06818,0.14023 0.06818,0.23319c0,0.16347 -0.06508,0.2851 -0.19523,0.3649c-0.13015,0.08057 -0.31222,0.12008 -0.54463,0.12008c-0.15495,0 -0.29285,-0.01937 -0.41216,-0.05733c-0.11931,-0.03874 -0.22235,-0.09219 -0.30912,-0.16114c-0.08677,-0.06818 -0.17896,-0.17122 -0.2758,-0.30912l-0.65774,0.50357c0.17199,0.27503 0.39434,0.47413 0.66859,0.59732c0.27348,0.12318 0.59654,0.18439 0.96841,0.18439c0.53766,0 0.94439,-0.11156 1.2202,-0.33623zM328.99859,323.54367c0,0.72979 -0.15417,1.27598 -0.46251,1.6401c-0.30834,0.36412 -0.75614,0.54541 -1.34415,0.54541c-0.62056,0 -1.07687,-0.19136 -1.36895,-0.57407c-0.29207,-0.38349 -0.4385,-0.92038 -0.4385,-1.61144c0,-0.69571 0.14642,-1.23337 0.4385,-1.61453c0.29207,-0.38117 0.74839,-0.57175 1.36895,-0.57175c0.62443,0 1.08152,0.19058 1.37127,0.57175c0.29052,0.38117 0.4354,0.91883 0.4354,1.61453zM215.43731,325.64163h-0.87622l-0.70345,-2.7743l-0.70655,2.7743h-0.86382l-1.06138,-4.19593h0.8522l0.67014,2.73789l0.69416,-2.73789h0.846l0.70035,2.75571l0.68796,-2.75571h0.846zM217.84361,325.64163l1.38831,-4.19593h1.11251l1.39141,4.19593h-0.87622l-0.2789,-0.8522h-1.61531l-0.27348,0.8522zM224.85181,324.05266l1.0699,1.58897h0.97926l-1.12181,-1.68891c0.27735,-0.0581 0.49118,-0.19368 0.64148,-0.40596c0.15107,-0.21228 0.22622,-0.49738 0.22622,-0.8553c0,-0.44237 -0.12473,-0.76078 -0.37497,-0.95447c-0.24946,-0.19446 -0.6438,-0.2913 -1.18379,-0.2913h-1.52467v4.19593h0.85453v-1.58897zM228.74947,325.64163v-4.19593h2.7255v0.75459h-1.8702v0.89481h1.57657v0.75768h-1.57657v1.00637h1.8702v0.78248zM236.03424,323.85898v1.78265h0.85762v-4.19593h-0.85762v1.6308h-1.6525v-1.6308h-0.8553v4.19593h0.8553v-1.78265zM247.57073,325.3054c0.26651,-0.28742 0.40053,-0.75923 0.40053,-1.4162v-2.44349h-0.8553v2.39469c0,0.41293 -0.0643,0.705 -0.19368,0.87777c-0.12938,0.17276 -0.35715,0.25953 -0.68254,0.25953c-0.22854,0 -0.40208,-0.03874 -0.52139,-0.11543c-0.11931,-0.0767 -0.20608,-0.19678 -0.26108,-0.36025c-0.05423,-0.16424 -0.08135,-0.38814 -0.08135,-0.67324v-2.38307h-0.8553v2.44349c0,0.66317 0.1348,1.13653 0.40518,1.42008c0.26961,0.28433 0.70965,0.4261 1.32014,0.4261c0.61668,0 1.05828,-0.14332 1.32479,-0.42997zM255.19329,321.4457v4.19593h2.7255v-0.78248h-1.8702v-1.00637h1.57657v-0.75768h-1.57657v-0.89481h1.8702v-0.75459zM262.38277,325.64163l1.38831,-4.19593h1.11329l1.39141,4.19593h-0.87622l-0.2789,-0.8522h-1.61608l-0.2727,0.8522zM268.9393,322.64343l1.52854,2.9982h1.00637v-4.19593h-0.83981v2.82853l-1.42163,-2.82853h-1.11019v4.19593h0.83671zM276.93915,323.54367c0,0.50512 -0.06973,0.91108 -0.20918,1.21865c-0.13945,0.30757 -0.3494,0.53069 -0.63063,0.67014c-0.28045,0.13945 -0.67556,0.20918 -1.18533,0.20918h-1.27908v-4.19593h1.26746c0.49479,0 0.88836,0.07179 1.18069,0.21537c0.29207,0.14332 0.50745,0.36722 0.6469,0.67169c0.13945,0.30369 0.20918,0.70733 0.20918,1.2109zM284.78947,324.76232c0.13945,-0.30757 0.20918,-0.71353 0.20918,-1.21865c0,-0.50357 -0.06973,-0.90721 -0.20918,-1.2109c-0.13945,-0.30447 -0.35483,-0.52836 -0.6469,-0.67169c-0.29207,-0.1441 -0.68563,-0.21537 -1.18146,-0.21537h-1.26668v4.19593h1.27908c0.50977,0 0.90488,-0.06973 1.18533,-0.20918c0.28123,-0.13945 0.49118,-0.36257 0.63063,-0.67014zM288.88779,325.64163h-2.02514v-0.65774h0.58492v-2.88044h-0.58492v-0.65774h2.02514v0.65774h-0.5826v2.88044h0.5826zM297.63835,322.22818v3.41345h-0.8553v-3.41345h-1.29147v-0.78248h3.43825v0.78248zM302.07289,324.05266l1.0699,1.58897h0.97926l-1.12181,-1.68891c0.27735,-0.0581 0.4904,-0.19368 0.64148,-0.40596c0.1503,-0.21228 0.22545,-0.49738 0.22545,-0.8553c0,-0.44237 -0.12473,-0.76078 -0.37419,-0.95447c-0.24946,-0.19446 -0.64457,-0.2913 -1.18379,-0.2913h-1.52544v4.19593h0.8553v-1.58897zM307.85005,325.64163h-2.02514v-0.65774h0.58492v-2.88044h-0.58492v-0.65774h2.02514v0.65774h-0.58182v2.88044h0.58182zM312.68745,325.34878c0.28975,-0.19446 0.43385,-0.5028 0.43385,-0.9227c0,-0.29905 -0.08031,-0.5356 -0.24094,-0.70965c-0.16037,-0.17354 -0.4168,-0.2851 -0.76853,-0.33391c0.26883,-0.05423 0.46639,-0.16269 0.59267,-0.32384c0.12628,-0.16192 0.18981,-0.37342 0.18981,-0.63373c0,-0.33933 -0.11621,-0.58802 -0.34863,-0.74451c-0.23319,-0.1565 -0.61823,-0.23474 -1.15512,-0.23474h-1.48283v4.19593h1.57657c0.51287,0 0.91418,-0.09762 1.20315,-0.29285zM318.58624,323.8892c0,0.65697 -0.13325,1.12878 -0.39976,1.4162c-0.26651,0.28665 -0.70888,0.42997 -1.32479,0.42997c-0.61049,0 -1.05053,-0.14178 -1.32091,-0.4261c-0.26961,-0.28355 -0.40441,-0.75691 -0.40441,-1.42008v-2.44349h0.8553v2.38307c0,0.2851 0.02712,0.509 0.08135,0.67324c0.05501,0.16347 0.14178,0.28355 0.26108,0.36025c0.11931,0.0767 0.29285,0.11543 0.52139,0.11543c0.32539,0 0.55238,-0.08677 0.68176,-0.25953c0.12938,-0.17276 0.19446,-0.46484 0.19446,-0.87777v-2.39469h0.85453zM322.58771,325.64163v-3.41345h1.29147v-0.78248h-3.43825v0.78248h1.29147v3.41345zM332.29584,324.05266l1.07068,1.58897h0.97926l-1.12181,-1.68891c0.27658,-0.0581 0.4904,-0.19368 0.64148,-0.40596c0.1503,-0.21228 0.22545,-0.49738 0.22545,-0.8553c0,-0.44237 -0.12473,-0.76078 -0.37419,-0.95447c-0.24946,-0.19446 -0.64457,-0.2913 -1.18379,-0.2913h-1.52544v4.19593h0.8553v-1.58897zM241.62934,323.54367c0,-0.49738 -0.06973,-0.85995 -0.21073,-1.08694c-0.14023,-0.22777 -0.37807,-0.34088 -0.71353,-0.34088c-0.33546,0 -0.57407,0.11311 -0.7143,0.34088c-0.14023,0.227 -0.21073,0.58957 -0.21073,1.08694c0,0.49738 0.07128,0.85917 0.21383,1.08694c0.14255,0.227 0.37962,0.34088 0.7112,0.34088c0.33546,0 0.5733,-0.11389 0.71353,-0.34088c0.141,-0.22777 0.21073,-0.58957 0.21073,-1.08694zM328.11618,323.54367c0,-0.49738 -0.06973,-0.85995 -0.21073,-1.08694c-0.14023,-0.22777 -0.37807,-0.34088 -0.71353,-0.34088c-0.33546,0 -0.57407,0.11311 -0.7143,0.34088c-0.14023,0.227 -0.21073,0.58957 -0.21073,1.08694c0,0.49738 0.07128,0.85917 0.21383,1.08694c0.14255,0.227 0.37962,0.34088 0.7112,0.34088c0.33546,0 0.5733,-0.11389 0.71353,-0.34088c0.141,-0.22777 0.21073,-0.58957 0.21073,-1.08694zM225.61724,322.2979c0.10846,0.07205 0.16192,0.21615 0.16192,0.42997c0,0.15959 -0.02247,0.27813 -0.06818,0.35483c-0.04493,0.0767 -0.11931,0.13325 -0.22235,0.16967c-0.10304,0.03641 -0.25101,0.05501 -0.44314,0.05501h-0.62753v-1.11871h0.66394c0.24869,0 0.42765,0.03641 0.53534,0.10924zM302.83833,322.2979c0.10769,0.07205 0.16192,0.21615 0.16192,0.42997c0,0.15959 -0.02247,0.27813 -0.06818,0.35483c-0.04571,0.0767 -0.12008,0.13325 -0.22312,0.16967c-0.10304,0.03641 -0.25024,0.05501 -0.44237,0.05501h-0.62753v-1.11871h0.66394c0.24869,0 0.42688,0.03641 0.53534,0.10924zM311.85384,322.28086c0.11776,0.06198 0.17586,0.17199 0.17586,0.33236c0,0.17561 -0.0612,0.29879 -0.18361,0.36955c-0.12189,0.07076 -0.30912,0.10614 -0.56168,0.10614h-0.52217v-0.90023h0.54618c0.24636,0 0.42842,0.03021 0.54541,0.09219zM333.06204,322.2979c0.10769,0.07205 0.16192,0.21615 0.16192,0.42997c0,0.15959 -0.02247,0.27813 -0.06818,0.35483c-0.04571,0.0767 -0.12008,0.13325 -0.22312,0.16967c-0.10304,0.03641 -0.25024,0.05501 -0.44237,0.05501h-0.62753v-1.11871h0.66394c0.24869,0 0.42688,0.03641 0.53534,0.10924zM276.0575,323.53747c0,-0.36567 -0.03641,-0.63683 -0.10769,-0.81424c-0.07205,-0.17664 -0.19368,-0.30369 -0.36567,-0.38039c-0.17199,-0.0767 -0.4261,-0.11466 -0.76388,-0.11466h-0.32771v2.63098h0.32771c0.33778,0 0.59189,-0.03874 0.76233,-0.11621c0.17122,-0.07825 0.29285,-0.20763 0.36567,-0.38969c0.07282,-0.1818 0.10924,-0.45373 0.10924,-0.81579zM284.00855,322.72323c0.07205,0.17741 0.10769,0.44857 0.10769,0.81424c0,0.3618 -0.03641,0.63373 -0.10846,0.81579c-0.07282,0.18206 -0.19523,0.31144 -0.36567,0.38969c-0.17044,0.07747 -0.42533,0.11621 -0.76233,0.11621h-0.32771v-2.63098h0.32771c0.33701,0 0.59189,0.03796 0.76388,0.11466c0.17199,0.0767 0.29362,0.20375 0.3649,0.38039zM219.20791,324.04104h1.13033l-0.56323,-1.73462zM263.74707,324.04104h1.1311l-0.564,-1.73462zM312.05682,323.95117c0.12783,0.07825 0.19136,0.21073 0.19136,0.39899c0,0.13713 -0.02866,0.24481 -0.08677,0.32151c-0.05733,0.0767 -0.14952,0.13093 -0.2758,0.16347c-0.12602,0.03254 -0.35586,0.04881 -0.68951,0.04881h-0.43385v-1.04898h0.5795c0.3494,0 0.58802,0.03874 0.71507,0.11621z" data-paper-data="{&quot;isBaseLogoContainer&quot;:true}" id="element-id-55481"></path></g></g></g><rect data-element-id="element-id-53142" stroke-width="2" fill="transparent" class="invisible-element-box grouping-element" x="173" y="106" width="204" height="258" data-element-name="isContainerElementsWrapper"></rect><rect data-element-id="element-id-55481" stroke-width="2" fill="transparent" class="invisible-element-box individual-element" x="173" y="106" width="204" height="258"></rect></svg>