<svg xmlns:mydata="http://www.w3.org/2000/svg" mydata:contrastcolor="11111f" mydata:template="Contrast" mydata:presentation="2.5" mydata:layouttype="undefined" mydata:specialfontid="undefined" mydata:id1="004" mydata:id2="063" mydata:companyname="Music Pro" mydata:companytagline="warehouse and distributor" version="1.1" xmlns="http://www.w3.org/2000/svg" xmlns:xlink="http://www.w3.org/1999/xlink" viewBox="0 50 550 370" style="height: 188px;"><g fill="#ffc600" fill-rule="nonzero" stroke="none" stroke-width="1" stroke-linecap="butt" stroke-linejoin="miter" stroke-miterlimit="10" stroke-dasharray="" stroke-dashoffset="0" font-family="none" font-weight="none" font-size="none" text-anchor="none" style="mix-blend-mode: normal"><g data-paper-data="{&quot;isGlobalGroup&quot;:true,&quot;bounds&quot;:{&quot;x&quot;:154.99995648356767,&quot;y&quot;:115.00000000000001,&quot;width&quot;:240.00008703286474,&quot;height&quot;:240}}"><g data-paper-data="{&quot;isSecondaryText&quot;:true}" id="element-id-99236"><path d="M206.97199,338.52383h-1.0007l-0.80333,-3.16831l-0.80679,3.16831h-0.98685l-1.21192,-4.79229h0.973l0.76524,3.12676l0.79294,-3.12676h0.96608l0.79987,3.14753l0.78602,-3.14753h0.96608z" data-paper-data="{&quot;glyphName&quot;:&quot;W&quot;,&quot;glyphIndex&quot;:0,&quot;firstGlyphOfWord&quot;:true,&quot;word&quot;:1}" id="element-id-31487"></path><path d="M209.72017,338.52383l1.58589,-4.79229h1.27079l1.58935,4.79229h-1.0007l-0.31856,-0.973h-1.84558l-0.31164,0.973zM211.27836,336.69556h1.29156l-0.64405,-1.98063z" data-paper-data="{&quot;glyphName&quot;:&quot;A&quot;,&quot;glyphIndex&quot;:1,&quot;word&quot;:1}" id="element-id-67682"></path><path d="M218.94694,338.52383l-1.22231,-1.81442h-0.49516v1.81442h-0.97646v-4.79229h1.74171c0.61635,0 1.06707,0.1108 1.35216,0.33241c0.28509,0.22161 0.42764,0.58519 0.42764,1.09073c0,0.40859 -0.08599,0.73408 -0.25797,0.97646c-0.17198,0.24238 -0.41609,0.39705 -0.73235,0.46399l1.28117,1.92869zM218.7842,335.19624c0,-0.24469 -0.06175,-0.40859 -0.18525,-0.49169c-0.1235,-0.0831 -0.32722,-0.12465 -0.61116,-0.12465h-0.75832v1.27771h0.71677c0.2193,0 0.38782,-0.02078 0.50554,-0.06233c0.11773,-0.04155 0.20256,-0.10619 0.2545,-0.19391c0.05194,-0.08772 0.07791,-0.22276 0.07791,-0.40513z" data-paper-data="{&quot;glyphName&quot;:&quot;R&quot;,&quot;glyphIndex&quot;:2,&quot;word&quot;:1}" id="element-id-18463"></path><path d="M222.17642,338.52383v-4.79229h3.11291v0.8622h-2.13645v1.02148h1.80057v0.86566h-1.80057v1.14959h2.13645v0.89336z" data-paper-data="{&quot;glyphName&quot;:&quot;E&quot;,&quot;glyphIndex&quot;:3,&quot;word&quot;:1}" id="element-id-96354"></path><path d="M230.49598,338.52383v-2.03603h-1.88714v2.03603h-0.97646v-4.79229h0.97646v1.8629h1.88714v-1.8629h0.97993v4.79229z" data-paper-data="{&quot;glyphName&quot;:&quot;H&quot;,&quot;glyphIndex&quot;:4,&quot;word&quot;:1}" id="element-id-90662"></path><path d="M237.89448,336.12769c0,0.83334 -0.17602,1.45777 -0.52805,1.87329c-0.35203,0.41552 -0.86393,0.62327 -1.53568,0.62327c-0.70869,0 -1.22981,-0.21872 -1.56338,-0.65617c-0.33357,-0.43745 -0.50035,-1.05091 -0.50035,-1.84039c0,-0.7941 0.16678,-1.40872 0.50035,-1.84385c0.33357,-0.43514 0.85469,-0.65271 1.56338,-0.65271c0.7133,0 1.23558,0.21757 1.56684,0.65271c0.33126,0.43514 0.49689,1.04976 0.49689,1.84385zM236.88685,336.12769c0,-0.56787 -0.08022,-0.98166 -0.24065,-1.24135c-0.16044,-0.2597 -0.43225,-0.38955 -0.81545,-0.38955c-0.3832,0 -0.65502,0.12985 -0.81545,0.38955c-0.16044,0.2597 -0.24065,0.67348 -0.24065,1.24135c0,0.56787 0.08137,0.98166 0.24412,1.24135c0.16274,0.2597 0.43341,0.38955 0.81199,0.38955c0.3832,0 0.65502,-0.12985 0.81545,-0.38955c0.16044,-0.2597 0.24065,-0.67348 0.24065,-1.24135z" data-paper-data="{&quot;glyphName&quot;:&quot;O&quot;,&quot;glyphIndex&quot;:5,&quot;word&quot;:1}" id="element-id-81236"></path><path d="M244.12953,336.52243c0,0.75024 -0.15236,1.28925 -0.45707,1.61705c-0.30471,0.3278 -0.8091,0.49169 -1.51317,0.49169c-0.69714,0 -1.1998,-0.16217 -1.50798,-0.4865c-0.30817,-0.32433 -0.46226,-0.86508 -0.46226,-1.62224v-2.79088h0.97646v2.72163c0,0.32549 0.03116,0.58172 0.09349,0.7687c0.06233,0.18698 0.16159,0.32433 0.29779,0.41205c0.1362,0.08772 0.33472,0.13158 0.59557,0.13158c0.37166,0 0.63135,-0.09869 0.77909,-0.29606c0.14774,-0.19737 0.22161,-0.53151 0.22161,-1.00243v-2.73548h0.97646z" data-paper-data="{&quot;glyphName&quot;:&quot;U&quot;,&quot;glyphIndex&quot;:6,&quot;word&quot;:1}" id="element-id-81767"></path><path d="M250.09103,337.13531c0,0.48015 -0.15755,0.84835 -0.47265,1.10458c-0.3151,0.25623 -0.77967,0.38435 -1.39371,0.38435c-0.42475,0 -0.79352,-0.07041 -1.10631,-0.21122c-0.31279,-0.14081 -0.56729,-0.36819 -0.76351,-0.68214l0.75139,-0.5748c0.1108,0.15697 0.21584,0.2747 0.3151,0.35319c0.09926,0.07849 0.21699,0.13966 0.35319,0.18352c0.1362,0.04386 0.29317,0.06579 0.47092,0.06579c0.26547,0 0.47265,-0.04559 0.62154,-0.13677c0.14889,-0.09118 0.22334,-0.23027 0.22334,-0.41725c0,-0.10619 -0.02597,-0.19506 -0.07791,-0.26662c-0.05194,-0.07156 -0.12985,-0.13331 -0.23373,-0.18525c-0.10388,-0.05194 -0.28394,-0.11138 -0.54017,-0.17833c-0.24931,-0.06694 -0.48419,-0.13447 -0.70465,-0.20256c-0.22045,-0.0681 -0.4109,-0.1564 -0.57133,-0.26489c-0.16044,-0.1085 -0.28682,-0.24469 -0.37916,-0.40859c-0.09234,-0.1639 -0.13851,-0.3705 -0.13851,-0.61981c0,-0.45476 0.15351,-0.80968 0.46053,-1.06476c0.30702,-0.25508 0.74677,-0.38262 1.31926,-0.38262c0.82872,0 1.41506,0.28394 1.75902,0.85181l-0.74447,0.58172c-0.13158,-0.20314 -0.27932,-0.34857 -0.44322,-0.43629c-0.1639,-0.08772 -0.35896,-0.13158 -0.58519,-0.13158c-0.22623,0 -0.41032,0.04097 -0.55229,0.12292c-0.14197,0.08195 -0.21295,0.21064 -0.21295,0.38608c0,0.15466 0.07387,0.27297 0.22161,0.35492c0.14774,0.08195 0.40513,0.16448 0.77217,0.24758c0.20314,0.05309 0.40397,0.11023 0.6025,0.1714c0.19852,0.06117 0.3757,0.14601 0.53151,0.2545c0.15582,0.1085 0.28105,0.25046 0.3757,0.4259c0.09465,0.17544 0.14197,0.40051 0.14197,0.67521z" data-paper-data="{&quot;glyphName&quot;:&quot;S&quot;,&quot;glyphIndex&quot;:7,&quot;word&quot;:1}" id="element-id-71647"></path><path d="M252.37868,338.52383v-4.79229h3.11291v0.8622h-2.13645v1.02148h1.80057v0.86566h-1.80057v1.14959h2.13645v0.89336z" data-paper-data="{&quot;glyphName&quot;:&quot;E&quot;,&quot;glyphIndex&quot;:8,&quot;lastGlyphOfWord&quot;:true,&quot;word&quot;:1}" id="element-id-81476"></path><path d="M260.58974,338.52383l1.58589,-4.79229h1.27079l1.58935,4.79229h-1.0007l-0.31856,-0.973h-1.84558l-0.31164,0.973zM262.14792,336.69556h1.29156l-0.64405,-1.98063z" data-paper-data="{&quot;glyphName&quot;:&quot;A&quot;,&quot;glyphIndex&quot;:9,&quot;firstGlyphOfWord&quot;:true,&quot;word&quot;:2}" id="element-id-37888"></path><path d="M269.82343,338.52383l-1.74517,-3.42455v3.42455h-0.95569v-4.79229h1.26732l1.62398,3.23064v-3.23064h0.95915v4.79229z" data-paper-data="{&quot;glyphName&quot;:&quot;N&quot;,&quot;glyphIndex&quot;:10,&quot;word&quot;:2}" id="element-id-40692"></path><path d="M277.215,336.12769c0,0.57711 -0.07964,1.0411 -0.23892,1.39198c-0.15928,0.35088 -0.39936,0.60596 -0.72023,0.76524c-0.32087,0.15928 -0.77217,0.23892 -1.35389,0.23892h-1.46123v-4.79229h1.44738c0.56556,0 1.01513,0.08195 1.3487,0.24585c0.33357,0.1639 0.57999,0.41956 0.73927,0.76697c0.15928,0.34742 0.23892,0.80853 0.23892,1.38332zM276.20737,336.12076c0,-0.41782 -0.04097,-0.72773 -0.12292,-0.92972c-0.08195,-0.20199 -0.22103,-0.34684 -0.41725,-0.43456c-0.19622,-0.08772 -0.48708,-0.13158 -0.87258,-0.13158h-0.37396v3.00557h0.37396c0.38551,0 0.67579,-0.04444 0.87085,-0.13331c0.19506,-0.08887 0.33414,-0.23719 0.41725,-0.44495c0.0831,-0.20776 0.12465,-0.51824 0.12465,-0.93145z" data-paper-data="{&quot;glyphName&quot;:&quot;D&quot;,&quot;glyphIndex&quot;:11,&quot;lastGlyphOfWord&quot;:true,&quot;word&quot;:2}" id="element-id-35054"></path><path d="M286.41984,336.12769c0,0.57711 -0.07964,1.0411 -0.23892,1.39198c-0.15928,0.35088 -0.39936,0.60596 -0.72023,0.76524c-0.32087,0.15928 -0.77217,0.23892 -1.35389,0.23892h-1.46123v-4.79229h1.44738c0.56556,0 1.01513,0.08195 1.3487,0.24585c0.33357,0.1639 0.57999,0.41956 0.73927,0.76697c0.15928,0.34742 0.23892,0.80853 0.23892,1.38332zM285.41221,336.12076c0,-0.41782 -0.04097,-0.72773 -0.12292,-0.92972c-0.08195,-0.20199 -0.22103,-0.34684 -0.41725,-0.43456c-0.19622,-0.08772 -0.48708,-0.13158 -0.87258,-0.13158h-0.37396v3.00557h0.37396c0.38551,0 0.67579,-0.04444 0.87085,-0.13331c0.19506,-0.08887 0.33414,-0.23719 0.41725,-0.44495c0.0831,-0.20776 0.12465,-0.51824 0.12465,-0.93145z" data-paper-data="{&quot;glyphName&quot;:&quot;D&quot;,&quot;glyphIndex&quot;:12,&quot;firstGlyphOfWord&quot;:true,&quot;word&quot;:3}" id="element-id-10170"></path><path d="M290.86124,338.52383h-2.31304v-0.75139h0.66829v-3.2895h-0.66829v-0.75139h2.31304v0.75139h-0.66483v3.2895h0.66483z" data-paper-data="{&quot;glyphName&quot;:&quot;I&quot;,&quot;glyphIndex&quot;:13,&quot;word&quot;:3}" id="element-id-40053"></path><path d="M296.65654,337.13531c0,0.48015 -0.15755,0.84835 -0.47265,1.10458c-0.3151,0.25623 -0.77967,0.38435 -1.39371,0.38435c-0.42475,0 -0.79352,-0.07041 -1.10631,-0.21122c-0.31279,-0.14081 -0.56729,-0.36819 -0.76351,-0.68214l0.75139,-0.5748c0.1108,0.15697 0.21584,0.2747 0.3151,0.35319c0.09926,0.07849 0.21699,0.13966 0.35319,0.18352c0.1362,0.04386 0.29317,0.06579 0.47092,0.06579c0.26547,0 0.47265,-0.04559 0.62154,-0.13677c0.14889,-0.09118 0.22334,-0.23027 0.22334,-0.41725c0,-0.10619 -0.02597,-0.19506 -0.07791,-0.26662c-0.05194,-0.07156 -0.12985,-0.13331 -0.23373,-0.18525c-0.10388,-0.05194 -0.28394,-0.11138 -0.54017,-0.17833c-0.24931,-0.06694 -0.48419,-0.13447 -0.70465,-0.20256c-0.22045,-0.0681 -0.4109,-0.1564 -0.57133,-0.26489c-0.16044,-0.1085 -0.28682,-0.24469 -0.37916,-0.40859c-0.09234,-0.1639 -0.13851,-0.3705 -0.13851,-0.61981c0,-0.45476 0.15351,-0.80968 0.46053,-1.06476c0.30702,-0.25508 0.74677,-0.38262 1.31926,-0.38262c0.82872,0 1.41506,0.28394 1.75902,0.85181l-0.74447,0.58172c-0.13158,-0.20314 -0.27932,-0.34857 -0.44322,-0.43629c-0.1639,-0.08772 -0.35896,-0.13158 -0.58519,-0.13158c-0.22623,0 -0.41032,0.04097 -0.55229,0.12292c-0.14197,0.08195 -0.21295,0.21064 -0.21295,0.38608c0,0.15466 0.07387,0.27297 0.22161,0.35492c0.14774,0.08195 0.40513,0.16448 0.77217,0.24758c0.20314,0.05309 0.40397,0.11023 0.6025,0.1714c0.19852,0.06117 0.3757,0.14601 0.53151,0.2545c0.15582,0.1085 0.28105,0.25046 0.3757,0.4259c0.09465,0.17544 0.14197,0.40051 0.14197,0.67521z" data-paper-data="{&quot;glyphName&quot;:&quot;S&quot;,&quot;glyphIndex&quot;:14,&quot;word&quot;:3}" id="element-id-35931"></path><path d="M300.85556,334.6249v3.89893h-0.97646v-3.89893h-1.47508v-0.89336h3.92663v0.89336z" data-paper-data="{&quot;glyphName&quot;:&quot;T&quot;,&quot;glyphIndex&quot;:15,&quot;word&quot;:3}" id="element-id-57350"></path><path d="M307.14255,338.52383l-1.22231,-1.81442h-0.49516v1.81442h-0.97646v-4.79229h1.74171c0.61635,0 1.06707,0.1108 1.35216,0.33241c0.28509,0.22161 0.42764,0.58519 0.42764,1.09073c0,0.40859 -0.08599,0.73408 -0.25797,0.97646c-0.17198,0.24238 -0.41609,0.39705 -0.73235,0.46399l1.28117,1.92869zM306.97981,335.19624c0,-0.24469 -0.06175,-0.40859 -0.18525,-0.49169c-0.1235,-0.0831 -0.32722,-0.12465 -0.61116,-0.12465h-0.75832v1.27771h0.71677c0.2193,0 0.38782,-0.02078 0.50554,-0.06233c0.11773,-0.04155 0.20256,-0.10619 0.2545,-0.19391c0.05194,-0.08772 0.07791,-0.22276 0.07791,-0.40513z" data-paper-data="{&quot;glyphName&quot;:&quot;R&quot;,&quot;glyphIndex&quot;:16,&quot;word&quot;:3}" id="element-id-68904"></path><path d="M312.51887,338.52383h-2.31304v-0.75139h0.66829v-3.2895h-0.66829v-0.75139h2.31304v0.75139h-0.66483v3.2895h0.66483z" data-paper-data="{&quot;glyphName&quot;:&quot;I&quot;,&quot;glyphIndex&quot;:17,&quot;word&quot;:3}" id="element-id-21102"></path><path d="M318.53924,337.13531c0,0.48015 -0.16505,0.83161 -0.49516,1.05437c-0.3301,0.22276 -0.78833,0.33414 -1.37467,0.33414h-1.80057v-4.79229h1.69323c0.61404,0 1.0538,0.08945 1.31926,0.26835c0.26547,0.1789 0.3982,0.46226 0.3982,0.85008c0,0.29779 -0.07214,0.53902 -0.21641,0.72369c-0.14428,0.18467 -0.36992,0.30817 -0.67695,0.3705c0.40167,0.0554 0.69426,0.18237 0.87778,0.38089c0.18352,0.19852 0.27528,0.46861 0.27528,0.81026zM317.29269,335.06466c0,-0.18237 -0.06694,-0.30875 -0.20083,-0.37916c-0.13389,-0.07041 -0.34165,-0.10561 -0.62327,-0.10561h-0.62327v1.0284h0.59557c0.28855,0 0.50266,-0.0404 0.64232,-0.12119c0.13966,-0.08079 0.20949,-0.22161 0.20949,-0.42244zM317.542,337.04875c0,-0.21468 -0.07272,-0.36646 -0.21815,-0.45534c-0.14543,-0.08887 -0.41782,-0.13331 -0.81718,-0.13331h-0.66136v1.19807h0.49516c0.38089,0 0.64347,-0.01847 0.78775,-0.0554c0.14428,-0.03693 0.24931,-0.09926 0.3151,-0.18698c0.06579,-0.08772 0.09869,-0.21007 0.09869,-0.36704z" data-paper-data="{&quot;glyphName&quot;:&quot;B&quot;,&quot;glyphIndex&quot;:18,&quot;word&quot;:3}" id="element-id-83863"></path><path d="M324.78121,336.52243c0,0.75024 -0.15236,1.28925 -0.45707,1.61705c-0.30471,0.3278 -0.8091,0.49169 -1.51317,0.49169c-0.69714,0 -1.1998,-0.16217 -1.50798,-0.4865c-0.30817,-0.32433 -0.46226,-0.86508 -0.46226,-1.62224v-2.79088h0.97646v2.72163c0,0.32549 0.03116,0.58172 0.09349,0.7687c0.06233,0.18698 0.16159,0.32433 0.29779,0.41205c0.1362,0.08772 0.33472,0.13158 0.59557,0.13158c0.37166,0 0.63135,-0.09869 0.77909,-0.29606c0.14774,-0.19737 0.22161,-0.53151 0.22161,-1.00243v-2.73548h0.97646z" data-paper-data="{&quot;glyphName&quot;:&quot;U&quot;,&quot;glyphIndex&quot;:19,&quot;word&quot;:3}" id="element-id-71316"></path><path d="M329.35074,334.6249v3.89893h-0.97646v-3.89893h-1.47508v-0.89336h3.92663v0.89336z" data-paper-data="{&quot;glyphName&quot;:&quot;T&quot;,&quot;glyphIndex&quot;:20,&quot;word&quot;:3}" id="element-id-80903"></path><path d="M336.67305,336.12769c0,0.83334 -0.17602,1.45777 -0.52805,1.87329c-0.35203,0.41552 -0.86393,0.62327 -1.53568,0.62327c-0.70869,0 -1.22981,-0.21872 -1.56338,-0.65617c-0.33357,-0.43745 -0.50035,-1.05091 -0.50035,-1.84039c0,-0.7941 0.16678,-1.40872 0.50035,-1.84385c0.33357,-0.43514 0.85469,-0.65271 1.56338,-0.65271c0.7133,0 1.23558,0.21757 1.56684,0.65271c0.33126,0.43514 0.49689,1.04976 0.49689,1.84385zM335.66543,336.12769c0,-0.56787 -0.08022,-0.98166 -0.24065,-1.24135c-0.16044,-0.2597 -0.43225,-0.38955 -0.81545,-0.38955c-0.3832,0 -0.65502,0.12985 -0.81545,0.38955c-0.16044,0.2597 -0.24065,0.67348 -0.24065,1.24135c0,0.56787 0.08137,0.98166 0.24412,1.24135c0.16274,0.2597 0.43341,0.38955 0.81199,0.38955c0.3832,0 0.65502,-0.12985 0.81545,-0.38955c0.16044,-0.2597 0.24065,-0.67348 0.24065,-1.24135z" data-paper-data="{&quot;glyphName&quot;:&quot;O&quot;,&quot;glyphIndex&quot;:21,&quot;word&quot;:3}" id="element-id-44097"></path><path d="M341.66156,338.52383l-1.22231,-1.81442h-0.49516v1.81442h-0.97646v-4.79229h1.74171c0.61635,0 1.06707,0.1108 1.35216,0.33241c0.28509,0.22161 0.42764,0.58519 0.42764,1.09073c0,0.40859 -0.08599,0.73408 -0.25797,0.97646c-0.17198,0.24238 -0.41609,0.39705 -0.73235,0.46399l1.28117,1.92869zM341.49881,335.19624c0,-0.24469 -0.06175,-0.40859 -0.18525,-0.49169c-0.1235,-0.0831 -0.32722,-0.12465 -0.61116,-0.12465h-0.75832v1.27771h0.71677c0.2193,0 0.38782,-0.02078 0.50554,-0.06233c0.11773,-0.04155 0.20256,-0.10619 0.2545,-0.19391c0.05194,-0.08772 0.07791,-0.22276 0.07791,-0.40513z" data-paper-data="{&quot;glyphName&quot;:&quot;R&quot;,&quot;glyphIndex&quot;:22,&quot;lastGlyphOfWord&quot;:true,&quot;word&quot;:3}" id="element-id-18778"></path></g><g data-paper-data="{&quot;stacked&quot;:true,&quot;isPrimaryText&quot;:true}" id="element-id-92311"><path d="M224.67769,247.07309h-3.66351c-1.25933,0 -1.45014,0.83955 -1.71727,1.29749l-5.26629,9.38773l-5.22813,-9.38773c-0.30529,-0.45794 -0.45794,-1.29749 -1.75543,-1.29749h-3.77799c-0.87771,0 -1.10668,0.41978 -1.10668,1.10668v22.93507c0,0.87771 0.41978,1.10668 1.10668,1.10668h3.77799c0.68691,0 1.10668,-0.22897 1.10668,-1.10668v-12.93675l3.85431,6.67826c0.19081,0.30529 0.4961,0.80139 1.06852,0.80139h1.90808c0.57242,0 0.91588,-0.4961 1.10668,-0.80139l3.81615,-6.67826v12.93675c0,0.87771 0.41978,1.10668 1.10668,1.10668h3.66351c0.68691,0 1.10668,-0.22897 1.10668,-1.10668v-22.93507c0,-0.68691 -0.22897,-1.10668 -1.10668,-1.10668z" data-paper-data="{&quot;glyphName&quot;:&quot;M&quot;,&quot;glyphIndex&quot;:0,&quot;firstGlyphOfWord&quot;:true,&quot;word&quot;:1,&quot;line&quot;:1,&quot;firstGlyphOfFirstLine&quot;:true}" id="element-id-48159"></path><path d="M258.15805,247.11126h-3.77799c-0.68691,0 -1.10668,0.22897 -1.10668,1.10668v15.49357c0,2.40418 -1.60278,3.77799 -4.12144,3.77799c-2.51866,0 -4.08328,-1.37381 -4.08328,-3.77799v-15.49357c0,-0.87771 -0.41978,-1.10668 -1.10668,-1.10668h-3.77799c-0.68691,0 -1.10668,0.22897 -1.10668,1.10668v16.33313c0,5.99136 5.53342,8.24289 10.07464,8.24289c4.54122,0 10.1128,-2.25153 10.1128,-8.24289v-16.33313c0,-0.87771 -0.41978,-1.10668 -1.10668,-1.10668z" data-paper-data="{&quot;glyphName&quot;:&quot;U&quot;,&quot;glyphIndex&quot;:1,&quot;word&quot;:1,&quot;line&quot;:1}" id="element-id-2317"></path><path d="M284.38773,257.64383c-1.52646,-0.61058 -7.1362,-1.45014 -7.1362,-3.77799c0,-1.71727 2.09888,-2.21337 3.35821,-2.21337c1.14485,0 2.51866,0.34345 3.24373,1.03036c0.45794,0.45794 0.64875,0.76323 0.80139,1.14485c0.19081,0.4961 0.30529,1.03036 1.03036,1.03036h3.73983c0.87771,0 1.10668,-0.15265 1.10668,-1.06852c0,-5.03732 -5.30445,-7.25069 -10.15096,-7.25069c-4.77019,0.19081 -9.27325,2.63314 -9.27325,7.59414c0,4.84651 3.54902,6.37297 7.40333,7.59414c3.24373,1.03036 6.6401,1.06852 6.6401,3.20557c0,2.13704 -1.67911,2.59498 -3.73983,2.59498c-1.41198,0 -2.9766,-0.34345 -3.73983,-1.25933c-0.4961,-0.57242 -0.68691,-1.06852 -0.72507,-1.56462c-0.07632,-0.95404 -0.4961,-1.06852 -1.37381,-1.06852h-3.70167c-0.87771,0 -1.10668,0.19081 -1.10668,1.06852c0,5.34261 5.49526,8.09024 10.26545,8.09024c5.87687,0 10.15096,-2.59498 10.15096,-8.01392c0,-5.18997 -4.04512,-6.29665 -6.79275,-7.1362z" data-paper-data="{&quot;glyphName&quot;:&quot;S&quot;,&quot;glyphIndex&quot;:2,&quot;word&quot;:1,&quot;line&quot;:1}" id="element-id-56172"></path><path d="M314.50989,266.9934h-2.40418v-14.5777h2.28969c0.87771,0 1.10668,-0.41978 1.10668,-1.10668v-3.09108c0,-0.68691 -0.22897,-1.10668 -1.10668,-1.10668h-10.6089c-0.87771,0 -1.10668,0.41978 -1.10668,1.10668v3.09108c0,0.68691 0.22897,1.10668 1.10668,1.10668h2.32785v14.5777h-2.40418c-0.87771,0 -1.10668,0.41978 -1.10668,1.10668v3.01476c0,0.68691 0.22897,1.10668 1.10668,1.10668h10.79971c0.87771,0 1.10668,-0.41978 1.10668,-1.10668v-3.01476c0,-0.68691 -0.22897,-1.10668 -1.10668,-1.10668z" data-paper-data="{&quot;glyphName&quot;:&quot;I&quot;,&quot;glyphIndex&quot;:3,&quot;word&quot;:1,&quot;line&quot;:1}" id="element-id-4645"></path><path d="M347.83761,264.78004c0,-0.91588 -0.30529,-1.29749 -1.14485,-1.29749h-3.73983c-0.83955,0 -0.91588,0.61058 -1.03036,1.37381c-0.30529,1.83175 -1.94624,2.59498 -4.00696,2.59498c-2.51866,0 -4.23593,-1.37381 -4.23593,-3.81615v-7.93759c0,-2.40418 1.71727,-3.81615 4.23593,-3.81615c2.06072,0 3.12924,0.57242 3.93064,1.83175c0.30529,0.45794 0.34345,1.18301 1.14485,1.18301h3.66351c0.87771,0 1.18301,-0.19081 1.18301,-1.10668c-0.4961,-4.84651 -5.18997,-7.25069 -9.92199,-7.25069c-4.54122,0 -10.22729,2.63314 -10.22729,8.6245v9.00612c0,5.99136 5.68607,8.6245 10.22729,8.6245c4.73203,0 9.92199,-3.09108 9.92199,-8.01392z" data-paper-data="{&quot;glyphName&quot;:&quot;C&quot;,&quot;glyphIndex&quot;:4,&quot;lastGlyphOfWord&quot;:true,&quot;word&quot;:1,&quot;line&quot;:1,&quot;lastGlyphOfFirstLine&quot;:true}" id="element-id-287"></path><path d="M218.77238,282.60611h-14.71357c-1.50405,0 -1.89642,0.71933 -1.89642,1.89642v39.23618c0,1.50405 0.71933,1.89642 1.89642,1.89642h6.47397c1.17709,0 1.89642,-0.39236 1.89642,-1.89642v-10.85534h6.27779c11.18231,0 17.19852,-6.01621 17.19852,-15.10593c0,-9.02432 -5.88543,-15.17132 -17.13313,-15.17132zM218.70698,304.05522h-6.27779v-12.22861h6.27779c5.1007,0 7.32409,2.74653 7.32409,6.147c0,3.26968 -2.22338,6.08161 -7.32409,6.08161z" data-paper-data="{&quot;glyphName&quot;:&quot;P&quot;,&quot;glyphIndex&quot;:5,&quot;firstGlyphOfWord&quot;:true,&quot;word&quot;:2,&quot;line&quot;:2,&quot;firstGlyphOfSecondLine&quot;:true}" id="element-id-22650"></path><path d="M292.10043,323.54253l-9.2205,-13.40569c4.05441,-1.37327 9.08971,-6.147 9.08971,-13.01333c0,-4.18519 -1.37327,-7.91263 -3.79283,-10.2668c-2.74653,-2.74653 -5.88543,-4.18519 -13.01333,-4.18519h-16.47919c-1.50405,0 -1.83102,0.71933 -1.83102,1.89642v39.17078c0,1.50405 0.65394,1.89642 1.83102,1.89642h6.47397c1.17709,0 1.89642,-0.39236 1.89642,-1.89642v-31.91209h8.69735c3.40047,0 6.01621,2.15799 6.01621,5.55846c0,3.0735 -3.00811,5.29688 -6.21239,5.29688h-1.30787c-1.50405,0 -1.89642,0.71933 -1.89642,1.89642v5.23149c0,1.83102 0.13079,2.55035 0.71933,3.33508l7.06251,10.52837c0.91551,1.37327 1.70023,1.96181 3.26968,1.96181h7.71645c1.24248,0 1.56945,-1.17709 0.9809,-2.0926z" data-paper-data="{&quot;glyphName&quot;:&quot;R&quot;,&quot;glyphIndex&quot;:6,&quot;word&quot;:2,&quot;line&quot;:2}" id="element-id-59752"></path><path d="M347.83761,296.40417c0,-10.33219 -9.80904,-14.77896 -17.59089,-14.77896c-7.78184,0 -17.4601,4.44677 -17.4601,14.77896v15.4329c0,10.33219 9.67826,14.77896 17.4601,14.77896c7.78184,0 17.59089,-4.44677 17.59089,-14.77896zM337.57081,310.92156c0,4.18519 -3.00811,6.60476 -7.32409,6.60476c-4.25059,0 -7.25869,-2.41956 -7.25869,-6.60476v-13.60188c0,-4.18519 3.00811,-6.60476 7.25869,-6.60476c4.31598,0 7.32409,2.41956 7.32409,6.60476z" data-paper-data="{&quot;glyphName&quot;:&quot;O&quot;,&quot;glyphIndex&quot;:7,&quot;lastGlyphOfWord&quot;:true,&quot;word&quot;:2,&quot;line&quot;:2,&quot;lastGlyphOfSecondLine&quot;:true}" id="element-id-35591"></path></g><g data-paper-data="{&quot;fillRule&quot;:&quot;nonzero&quot;,&quot;fillRuleOriginal&quot;:&quot;nonzero&quot;,&quot;isIcon&quot;:true,&quot;iconStyle&quot;:&quot;standalone&quot;,&quot;selectedEffects&quot;:{&quot;container&quot;:&quot;&quot;,&quot;transformation&quot;:&quot;&quot;,&quot;pattern&quot;:&quot;&quot;},&quot;bounds&quot;:{&quot;x&quot;:220.73172298656033,&quot;y&quot;:131.36874056742835,&quot;width&quot;:108.5365540268794,&quot;height&quot;:92.09233803211859},&quot;iconType&quot;:&quot;initial&quot;,&quot;initialText&quot;:&quot;M&quot;,&quot;rawInitialId&quot;:826,&quot;suitableAsStandaloneIcon&quot;:true}" id="element-id-1912"><path d="M303.25894,132.1485c-15.43645,0 -6.88704,-0.23748 -35.97882,-0.23748c-19.82991,0 -17.09884,-0.47497 -31.34788,-0.47497c-15.67394,0 -15.19897,-1.18742 -15.19897,6.41207c0,39.0661 0.35623,24.46085 0.35623,45.12195c0,39.54108 -1.06868,39.8973 2.84981,39.8973c20.42362,0 19.2362,0.71245 19.2362,-3.44352c0,0 -0.23748,-19.59242 -0.23748,-28.26059c0,-13.41784 0.59371,-25.29204 1.06868,-38.70988c0,-2.2561 -2.13736,-2.49358 16.9801,-2.49358c1.78113,0 1.42491,-3.79975 1.42491,49.87162c0,6.64955 -1.06868,5.58087 19.82991,5.58087c4.39345,0 4.74968,0 4.74968,-9.14313c0,-0.35623 -0.59371,-43.22208 -0.59371,-43.81578c0,-1.89987 0.11874,-1.66239 5.10591,-1.66239c12.34916,0 11.99294,0 11.99294,0c1.30616,0 1.78113,0.47497 1.78113,1.66239c0,43.45956 -1.06868,59.84595 0,68.51411c0.23748,2.2561 0.23748,2.49358 2.01861,2.49358c0.71245,0 7.71823,-0.11874 19.35494,-0.47497c2.84981,-0.11874 2.61232,-0.59371 2.61232,-10.56804c0,0 -0.35623,2.84981 -0.35623,-80.15083z" data-paper-data="{&quot;isPathIcon&quot;:true}" id="element-id-79278"></path></g><path d="M190.14731,150.14727c11.07174,-11.07174 23.78608,-19.6439 38.14302,-25.71647c14.86405,-6.2872 30.43394,-9.43079 46.70967,-9.43079c16.27573,0 31.84562,3.1436 46.70967,9.43079c14.35694,6.07199 27.07128,14.64415 38.14302,25.71647c11.07232,11.07232 19.64448,23.78666 25.71647,38.14302c6.28725,14.86463 9.43088,30.43452 9.43088,46.70967c0,16.27515 -3.14363,31.84504 -9.43088,46.70967c-6.07199,14.35636 -14.64415,27.0707 -25.71647,38.14302c-3.9299,3.9299 -8.06665,7.54484 -12.41026,10.84482l0.56148,-2.92348c3.63739,-2.87348 7.12339,-5.97753 10.458,-9.31213c10.89129,-10.89129 19.32304,-23.39763 25.29523,-37.519c6.18339,-14.6192 9.27509,-29.9335 9.27509,-45.94291c0,-16.00941 -3.0917,-31.32371 -9.27509,-45.94291c-5.9722,-14.12079 -14.40394,-26.62712 -25.29523,-37.519c-7.96284,-7.96284 -16.78938,-14.61113 -26.47962,-19.94488l-0.05995,-0.23839l-0.10353,-0.29023l-0.13096,-0.27872l-0.15839,-0.26457l-0.18316,-0.24775l-0.20617,-0.22917l-0.22829,-0.20794l-0.24687,-0.18405l-0.26368,-0.15927l-0.27872,-0.13273l-0.28934,-0.10441l-0.29907,-0.0761l-0.30438,-0.0469l-0.30792,-0.01593l-1.70781,-0.00802c-2.05373,-1.01118 -4.14411,-1.96658 -6.27114,-2.86619c-14.61862,-6.18363 -29.93292,-9.27544 -45.94291,-9.27544c-16.00941,0 -31.32371,3.09181 -45.94291,9.27544c-1.56251,0.66084 -3.10526,1.3518 -4.62824,2.07288l-1.16252,0.08816l-0.89634,0.20263l-1.90594,0.7353l-0.56806,0.28846l-0.49816,0.39552l-0.40791,0.48843l-0.30261,0.5601l-0.0819,0.19762c-9.92066,5.38698 -18.9431,12.14236 -27.06732,20.26615c-10.89071,10.89071 -19.32246,23.39705 -25.29523,37.519c-6.18339,14.61862 -9.27509,29.93292 -9.27509,45.94291c0,16.00999 3.0917,31.32429 9.27509,45.94291c5.97278,14.12137 14.40452,26.6277 25.29523,37.519c2.41212,2.41212 4.90347,4.70361 7.47403,6.87445v2.55991c-3.06345,-2.51596 -6.01839,-5.19715 -8.86481,-8.04357c-11.07174,-11.07174 -19.6439,-23.78608 -25.71647,-38.14302c-6.28725,-14.86405 -9.43088,-30.43394 -9.43088,-46.70967c0,-16.27573 3.14363,-31.84562 9.43088,-46.70967c6.07199,-14.35636 14.64415,-27.0707 25.71647,-38.14302zM321.70967,345.56912c-14.86463,6.28725 -30.43452,9.43088 -46.70967,9.43088c-16.27515,0 -31.84504,-3.14363 -46.70967,-9.43088c-2.82974,-1.19683 -5.59569,-2.4908 -8.29784,-3.8819l4.2963,0.00321l0.1554,0.00114c1.51799,0.71842 3.05563,1.40693 4.6129,2.06554c14.6192,6.18339 29.9335,9.27509 45.94291,9.27509c16.00941,0 31.32371,-3.0917 45.94291,-9.27509c1.49301,-0.63142 2.96797,-1.29034 4.42488,-1.97675l4.46365,-0.00267c-2.6462,1.35678 -5.35346,2.62059 -8.12177,3.79144z" data-paper-data="{&quot;isLogoContainer&quot;:true}" id="element-id-96811"></path></g></g><rect data-element-id="element-id-96811" stroke-width="2" fill="transparent" class="invisible-element-box individual-element" x="155" y="115" width="240" height="240"></rect><rect data-element-id="element-id-92311" stroke-width="2" fill="transparent" class="invisible-element-box grouping-element" x="202" y="247" width="146" height="80" data-element-name="isPrimaryText"></rect><rect data-element-id="element-id-1912" stroke-width="2" fill="transparent" class="invisible-element-box grouping-element" x="221" y="131" width="109" height="92" data-element-name="isIcon"></rect><rect data-element-id="element-id-79278" stroke-width="2" fill="transparent" class="invisible-element-box individual-element" x="221" y="131" width="109" height="92"></rect><rect data-element-id="element-id-35591" stroke-width="2" fill="transparent" class="invisible-element-box individual-element" x="313" y="282" width="35" height="45"></rect><rect data-element-id="element-id-59752" stroke-width="2" fill="transparent" class="invisible-element-box individual-element" x="257" y="283" width="36" height="43"></rect><rect data-element-id="element-id-22650" stroke-width="2" fill="transparent" class="invisible-element-box individual-element" x="202" y="283" width="34" height="43"></rect><rect data-element-id="element-id-99236" stroke-width="2" fill="transparent" class="invisible-element-box grouping-element" x="202" y="334" width="141" height="5" data-element-name="isSecondaryText"></rect><rect data-element-id="element-id-48159" stroke-width="2" fill="transparent" class="invisible-element-box individual-element" x="202" y="247" width="24" height="25"></rect><rect data-element-id="element-id-2317" stroke-width="2" fill="transparent" class="invisible-element-box individual-element" x="239" y="247" width="20" height="26"></rect><rect data-element-id="element-id-56172" stroke-width="2" fill="transparent" class="invisible-element-box individual-element" x="271" y="247" width="20" height="26"></rect><rect data-element-id="element-id-287" stroke-width="2" fill="transparent" class="invisible-element-box individual-element" x="328" y="247" width="20" height="26"></rect><rect data-element-id="element-id-4645" stroke-width="2" fill="transparent" class="invisible-element-box individual-element" x="303" y="247" width="13" height="25"></rect><rect data-element-id="element-id-31487" stroke-width="2" fill="transparent" class="invisible-element-box individual-element" x="202" y="334" width="6" height="5"></rect><rect data-element-id="element-id-67682" stroke-width="2" fill="transparent" class="invisible-element-box individual-element" x="210" y="334" width="4" height="5"></rect><rect data-element-id="element-id-18463" stroke-width="2" fill="transparent" class="invisible-element-box individual-element" x="216" y="334" width="4" height="5"></rect><rect data-element-id="element-id-90662" stroke-width="2" fill="transparent" class="invisible-element-box individual-element" x="228" y="334" width="4" height="5"></rect><rect data-element-id="element-id-81236" stroke-width="2" fill="transparent" class="invisible-element-box individual-element" x="234" y="334" width="4" height="5"></rect><rect data-element-id="element-id-81767" stroke-width="2" fill="transparent" class="invisible-element-box individual-element" x="240" y="334" width="4" height="5"></rect><rect data-element-id="element-id-71647" stroke-width="2" fill="transparent" class="invisible-element-box individual-element" x="246" y="334" width="4" height="5"></rect><rect data-element-id="element-id-37888" stroke-width="2" fill="transparent" class="invisible-element-box individual-element" x="261" y="334" width="4" height="5"></rect><rect data-element-id="element-id-40692" stroke-width="2" fill="transparent" class="invisible-element-box individual-element" x="267" y="334" width="4" height="5"></rect><rect data-element-id="element-id-35054" stroke-width="2" fill="transparent" class="invisible-element-box individual-element" x="273" y="334" width="4" height="5"></rect><rect data-element-id="element-id-10170" stroke-width="2" fill="transparent" class="invisible-element-box individual-element" x="283" y="334" width="4" height="5"></rect><rect data-element-id="element-id-35931" stroke-width="2" fill="transparent" class="invisible-element-box individual-element" x="293" y="334" width="4" height="5"></rect><rect data-element-id="element-id-57350" stroke-width="2" fill="transparent" class="invisible-element-box individual-element" x="298" y="334" width="4" height="5"></rect><rect data-element-id="element-id-68904" stroke-width="2" fill="transparent" class="invisible-element-box individual-element" x="304" y="334" width="4" height="5"></rect><rect data-element-id="element-id-83863" stroke-width="2" fill="transparent" class="invisible-element-box individual-element" x="315" y="334" width="4" height="5"></rect><rect data-element-id="element-id-71316" stroke-width="2" fill="transparent" class="invisible-element-box individual-element" x="321" y="334" width="4" height="5"></rect><rect data-element-id="element-id-80903" stroke-width="2" fill="transparent" class="invisible-element-box individual-element" x="327" y="334" width="4" height="5"></rect><rect data-element-id="element-id-44097" stroke-width="2" fill="transparent" class="invisible-element-box individual-element" x="333" y="334" width="4" height="5"></rect><rect data-element-id="element-id-18778" stroke-width="2" fill="transparent" class="invisible-element-box individual-element" x="339" y="334" width="4" height="5"></rect><rect data-element-id="element-id-96354" stroke-width="2" fill="transparent" class="invisible-element-box individual-element" x="222" y="334" width="3" height="5"></rect><rect data-element-id="element-id-81476" stroke-width="2" fill="transparent" class="invisible-element-box individual-element" x="252" y="334" width="3" height="5"></rect><rect data-element-id="element-id-40053" stroke-width="2" fill="transparent" class="invisible-element-box individual-element" x="289" y="334" width="2" height="5"></rect><rect data-element-id="element-id-21102" stroke-width="2" fill="transparent" class="invisible-element-box individual-element" x="310" y="334" width="2" height="5"></rect></svg>