<?xml version="1.0" encoding="UTF-8" standalone="no"?>
<!-- Created with Inkscape (http://www.inkscape.org/) -->

<svg
   width="68.262497mm"
   height="68.262497mm"
   viewBox="0 0 68.262497 68.262497"
   version="1.1"
   id="svg1526"
   inkscape:export-filename="bitmap.svg"
   inkscape:export-xdpi="96"
   inkscape:export-ydpi="96"
   xmlns:inkscape="http://www.inkscape.org/namespaces/inkscape"
   xmlns:sodipodi="http://sodipodi.sourceforge.net/DTD/sodipodi-0.dtd"
   xmlns="http://www.w3.org/2000/svg"
   xmlns:svg="http://www.w3.org/2000/svg">
  <sodipodi:namedview
     id="namedview1528"
     pagecolor="#ffffff"
     bordercolor="#000000"
     borderopacity="0.25"
     inkscape:showpageshadow="2"
     inkscape:pageopacity="0.0"
     inkscape:pagecheckerboard="0"
     inkscape:deskcolor="#d1d1d1"
     inkscape:document-units="mm"
     showgrid="false" />
  <defs
     id="defs1523" />
  <g
     inkscape:label="Capa 1"
     inkscape:groupmode="layer"
     id="layer1"
     transform="translate(-7.2418854,-7.6112869)">
    <g
       fill="#ffc600"
       fill-rule="evenodd"
       stroke="none"
       stroke-width="1"
       stroke-linecap="butt"
       stroke-linejoin="miter"
       stroke-miterlimit="10"
       stroke-dasharray="none"
       stroke-dashoffset="0"
       font-family="none"
       font-weight="none"
       font-size="none"
       text-anchor="none"
       style="mix-blend-mode:normal"
       id="g1247"
       transform="matrix(0.26458333,0,0,0.26458333,-31.387281,-20.434546)">
      <g
         data-paper-data="{&quot;isGlobalGroup&quot;:true,&quot;bounds&quot;:{&quot;x&quot;:146,&quot;y&quot;:106,&quot;width&quot;:258,&quot;height&quot;:258}}"
         id="g1245">
        <g
           data-paper-data="{&quot;isContainerElementsWrapper&quot;:true}"
           id="element-id-49543">
          <path
             d="M 274.99989,106 C 203.75545,106 146,163.75545 146,234.99989 146,306.24433 203.75545,364 274.99989,364 346.24433,364 404,306.24433 404,234.99989 404,163.75545 346.24433,106 274.99989,106 Z m 23.0234,45.20385 c -12.57683,0 -5.61077,-0.1932 -29.31326,-0.1932 -16.15538,0 -13.93068,-0.38712 -25.54006,-0.38712 -1.73232,0 -3.22315,-0.018 -4.50491,-0.0332 -4.58276,-0.0548 -6.50252,-0.0779 -7.30561,0.85787 -0.57888,0.67476 -0.57672,1.84839 -0.57312,3.86907 7.2e-4,0.17085 7.2e-4,0.34747 7.2e-4,0.52986 0,31.82848 0.29052,19.9293 0.29052,36.76232 0,6.89037 -0.0396,12.32019 -0.0714,16.59874 -0.11534,15.72789 -0.11679,15.90667 2.39339,15.90667 2.45611,0 4.5287,0.013 6.27688,0.0238 6.74547,0.0411 8.67099,0.0526 9.20662,-0.80453 0.21411,-0.34243 0.20546,-0.82327 0.19392,-1.49659 -0.002,-0.16437 -0.006,-0.34027 -0.006,-0.5277 0,0 -0.1932,-15.9629 -0.1932,-23.02484 0,-10.93174 0.48372,-20.60622 0.87085,-31.53796 0,-0.18311 -0.0173,-0.34964 -0.0332,-0.50175 -0.14202,-1.37332 -0.1586,-1.52975 13.86724,-1.52975 0.0973,0 0.18671,-0.0144 0.2689,-0.0267 0.11318,-0.018 0.21194,-0.0332 0.29917,-0.008 0.638,0.18671 0.63511,2.5628 0.60772,22.29457 -0.006,4.95115 -0.0151,10.99518 -0.0151,18.37143 0,0.26601 -0.002,0.51616 -0.004,0.75262 -0.0115,1.36178 -0.0187,2.24921 0.40082,2.82377 0.7865,1.07558 3.07104,1.05684 9.62907,1.00205 1.72872,-0.0144 3.75517,-0.0317 6.12982,-0.0317 3.57927,0 3.86979,0 3.86979,-7.44907 0,-0.2898 -0.48372,-35.21383 -0.48372,-35.69755 0,-1.37692 0.0764,-1.3762 2.94993,-1.3589 0.35829,0.002 0.75983,0.004 1.20967,0.004 h 9.77109 c 1.06477,0 1.45117,0.38712 1.45117,1.35457 0,14.697 -0.14995,25.59413 -0.26313,33.81817 -0.15932,11.5892 -0.24583,17.87112 0.26313,22.00188 0.19392,1.8383 0.19392,2.0315 1.6451,2.0315 0.58032,0 6.28769,-0.0966 15.76898,-0.3864 2.14396,-0.0894 2.14324,-0.42677 2.13026,-6.87523 -7.2e-4,-0.53491 -0.002,-1.11235 -0.002,-1.73521 0,0 0,0.003 -7.2e-4,0.005 -7.2e-4,0.002 -10e-4,0.004 -0.003,0.004 -0.0317,0.004 -0.28692,-1.97599 -0.28692,-65.31071 z m -15.37464,102.24461 c -1.24427,-0.49742 -5.81406,-1.18156 -5.81406,-3.07825 0,-1.39855 1.70998,-1.80297 2.73582,-1.80297 0.93285,0 2.05168,0.27971 2.64282,0.83913 0.37271,0.37343 0.52842,0.62214 0.65242,0.93285 0.15571,0.40443 0.24943,0.83985 0.83985,0.83985 h 3.04725 c 0.71441,0 0.90113,-0.12472 0.90113,-0.87085 0,-4.10409 -4.3218,-5.90706 -8.27017,-5.90706 -3.88637,0.15499 -7.55504,2.1454 -7.55504,6.18677 0,3.94909 2.89153,5.19265 6.03177,6.18749 2.64282,0.83913 5.40964,0.87013 5.40964,2.61182 0,1.74097 -1.36827,2.11368 -3.04653,2.11368 -1.15056,0 -2.42511,-0.27971 -3.04725,-1.02584 -0.40443,-0.46642 -0.55942,-0.87085 -0.59042,-1.27455 -0.0627,-0.77713 -0.40443,-0.87085 -1.11956,-0.87085 h -3.01625 c -0.71441,0 -0.90113,0.15571 -0.90113,0.87085 0,4.3528 4.47679,6.59119 8.36317,6.59119 4.78822,0 8.27017,-2.1144 8.27017,-6.5292 0,-4.22808 -3.29524,-5.12993 -5.53363,-5.81406 z m 51.69433,5.81406 c 0,-0.74613 -0.24871,-1.05684 -0.93285,-1.05684 h -3.04725 c -0.68413,0 -0.74613,0.49742 -0.83913,1.11884 -0.24871,1.49226 -1.58598,2.1144 -3.26496,2.1144 -2.05168,0 -3.45095,-1.11956 -3.45095,-3.10924 v -6.46648 c 0,-1.95941 1.39927,-3.10924 3.45095,-3.10924 1.67898,0 2.54983,0.46642 3.20296,1.49226 0.24871,0.37271 0.27971,0.96384 0.93212,0.96384 h 2.98525 c 0.71513,0 0.96384,-0.15571 0.96384,-0.90185 -0.40443,-3.94837 -4.2288,-5.90706 -8.08418,-5.90706 -3.69966,0 -8.33217,2.1454 -8.33217,7.02662 v 7.33733 c 0,4.88122 4.63251,7.02662 8.33217,7.02662 3.85538,0 8.08418,-2.51811 8.08418,-6.5292 z M 234.00084,244.83658 h -2.98453 c -1.02656,0 -1.18156,0.68341 -1.39927,1.05684 l -4.2908,7.64803 -4.25908,-7.64803 c -0.24871,-0.37343 -0.37343,-1.05684 -1.43027,-1.05684 h -3.07825 c -0.71513,0 -0.90185,0.34171 -0.90185,0.90113 v 18.68574 c 0,0.71513 0.34243,0.90185 0.90185,0.90185 h 3.07825 c 0.55942,0 0.90113,-0.18671 0.90113,-0.90185 v -10.53957 l 3.14024,5.44064 c 0.15571,0.24871 0.40443,0.65314 0.87085,0.65314 h 1.55426 c 0.46642,0 0.74685,-0.40443 0.90185,-0.65314 l 3.10924,-5.44064 v 10.53957 c 0,0.71513 0.34171,0.90185 0.90185,0.90185 h 2.98453 c 0.55942,0 0.90185,-0.18671 0.90185,-0.90185 v -18.68574 c 0,-0.55942 -0.18671,-0.90113 -0.90185,-0.90113 z m 24.19919,0.031 h 3.07825 c 0.55942,0 0.90185,0.18599 0.90185,0.90113 v 13.3071 c 0,4.88122 -4.53951,6.71591 -8.23917,6.71591 -3.70038,0 -8.20817,-1.83469 -8.20817,-6.71591 v -13.3071 c 0,-0.71513 0.34171,-0.90113 0.90185,-0.90113 h 3.07752 c 0.56014,0 0.90185,0.18599 0.90185,0.90113 v 12.62297 c 0,1.95941 1.27455,3.07825 3.32696,3.07825 2.05168,0 3.35795,-1.11884 3.35795,-3.07825 v -12.62297 c 0,-0.71513 0.34171,-0.90113 0.90113,-0.90113 z m 47.03083,16.19863 h 1.95869 c 0.71513,0 0.90185,0.34171 0.90185,0.90113 v 2.45611 c 0,0.56014 -0.18671,0.90185 -0.90185,0.90185 h -8.79859 c -0.71513,0 -0.90185,-0.34171 -0.90185,-0.90185 v -2.45611 c 0,-0.55942 0.18671,-0.90113 0.90185,-0.90113 h 1.95869 v -11.87756 h -1.89669 c -0.71513,0 -0.90185,-0.34171 -0.90185,-0.90113 v -2.51883 c 0,-0.55942 0.18671,-0.90113 0.90185,-0.90113 h 8.6436 c 0.71513,0 0.90185,0.34171 0.90185,0.90113 v 2.51883 c 0,0.55942 -0.18671,0.90113 -0.90185,0.90113 h -1.86569 z m 14.7799,11.92082 c 6.34032,0 14.33222,3.62253 14.33222,12.04048 v 12.57395 c 0,8.41796 -7.9919,12.04048 -14.33222,12.04048 -6.3396,0 -14.22481,-3.62253 -14.22481,-12.04048 v -12.57395 c 0,-8.41796 7.88521,-12.04048 14.22481,-12.04048 z m -102.80835,0.79875 h 11.98713 c 9.16409,0 13.9588,5.0081 13.9588,12.36056 0,7.40581 -4.9014,12.30721 -14.01214,12.30721 h -5.11479 v 8.84401 c 0,1.22553 -0.58609,1.54561 -1.54489,1.54561 h -5.27411 c -0.95952,0 -1.54561,-0.32008 -1.54561,-1.54561 v -31.96617 c 0,-0.95952 0.32008,-1.54561 1.54561,-1.54561 z m 71.72961,33.35247 -7.51178,-10.92236 c 3.30317,-1.11884 7.40509,-5.0081 7.40509,-10.60228 0,-3.40986 -1.11884,-6.44629 -3.08978,-8.36461 -2.23768,-2.23768 -4.79543,-3.40986 -10.60228,-3.40986 h -13.42605 c -1.22553,0 -1.49226,0.58609 -1.49226,1.54489 v 31.91355 c 0,1.22553 0.53275,1.54561 1.49226,1.54561 h 5.27411 c 0.95952,0 1.54561,-0.32008 1.54561,-1.54561 V 281.2983 h 7.08573 c 2.77042,0 4.9014,1.75828 4.9014,4.5287 0,2.50369 -2.45034,4.31531 -5.06144,4.31531 h -1.06549 c -1.22553,0 -1.54489,0.58609 -1.54489,1.54489 v 4.26268 c 0,1.49154 0.10669,2.07764 0.58609,2.71707 l 5.75423,8.578 c 0.74541,1.11884 1.38485,1.59824 2.66373,1.59824 h 6.28697 c 1.01214,0 1.27816,-0.95952 0.79876,-1.70493 z m 31.07874,-4.90213 c 3.51655,0 5.96761,-1.97094 5.96761,-5.3808 v -11.08168 c 0,-3.40986 -2.45106,-5.38152 -5.96761,-5.38152 -3.46321,0 -5.91355,1.97166 -5.91355,5.38152 v 11.08168 c 0,3.40986 2.45034,5.3808 5.91355,5.3808 z m -95.98935,-10.97499 h 5.11479 c 4.15599,0 5.96761,-2.29102 5.96761,-4.95475 0,-2.77042 -1.81162,-5.0081 -5.96761,-5.0081 h -5.11479 z m 20.74752,26.13049 c 0,0.67909 -0.14346,1.18732 -0.43038,1.52615 -0.28692,0.33882 -0.7036,0.50751 -1.25076,0.50751 -0.57744,0 -1.00205,-0.17806 -1.27383,-0.53419 -0.27178,-0.35685 -0.40803,-0.85643 -0.40803,-1.49947 0,-0.64689 0.13601,-1.14767 0.40803,-1.50236 0.27178,-0.35468 0.69639,-0.53202 1.27383,-0.53202 0.58105,0 1.00638,0.17734 1.27599,0.53202 0.27034,0.35468 0.40515,0.85499 0.40515,1.50236 z m 9.93689,0.8211 c 0,0.39073 -0.12832,0.69062 -0.38496,0.89968 -0.25664,0.20906 -0.63511,0.31287 -1.13542,0.31287 -0.34603,0 -0.64665,-0.057 -0.90185,-0.17157 -0.25448,-0.11462 -0.4621,-0.29989 -0.62142,-0.55581 l 0.61204,-0.46859 c 0.0901,0.12832 0.1759,0.2242 0.25664,0.28764 0.0807,0.0642 0.17662,0.1139 0.28764,0.14995 0.11102,0.0353 0.23862,0.0533 0.38352,0.0533 0.21627,0 0.38496,-0.0368 0.50679,-0.11174 0.12111,-0.0743 0.18167,-0.18743 0.18167,-0.33954 0,-0.0865 -0.0209,-0.15932 -0.0634,-0.21699 -0.0425,-0.0584 -0.10597,-0.10886 -0.19032,-0.15139 -0.0851,-0.0418 -0.23141,-0.0908 -0.44047,-0.1449 -0.20257,-0.0548 -0.39433,-0.10958 -0.57384,-0.16509 -0.1795,-0.0555 -0.3345,-0.1276 -0.4657,-0.21627 -0.13048,-0.088 -0.23357,-0.19897 -0.30855,-0.33234 -0.0757,-0.13409 -0.11318,-0.30206 -0.11318,-0.50535 0,-0.37054 0.12544,-0.65962 0.37559,-0.86724 0.24991,-0.2081 0.6082,-0.31215 1.07486,-0.31215 0.67476,0 1.15272,0.23141 1.43315,0.69423 l -0.607,0.47435 c -0.10669,-0.16581 -0.22708,-0.28403 -0.36117,-0.35612 -0.13337,-0.0714 -0.29196,-0.10669 -0.47652,-0.10669 -0.18455,0 -0.3345,0.0332 -0.44984,0.10021 -0.11606,0.0663 -0.17374,0.17157 -0.17374,0.31431 0,0.12616 0.0606,0.22204 0.18095,0.28908 0.12039,0.067 0.33017,0.13409 0.62863,0.20185 0.16581,0.0433 0.32945,0.0894 0.49093,0.13985 0.1622,0.0497 0.30638,0.11895 0.43326,0.2069 0.12688,0.0887 0.22925,0.20401 0.30638,0.34747 0.0769,0.14274 0.11534,0.32609 0.11534,0.55005 z m 37.55315,0.89969 c 0.25664,-0.20906 0.38496,-0.50896 0.38496,-0.89968 0,-0.2242 -0.0382,-0.40731 -0.11534,-0.55005 -0.0771,-0.14346 -0.1795,-0.2588 -0.30638,-0.34747 -0.12688,-0.0879 -0.27106,-0.15716 -0.43326,-0.2069 -0.16148,-0.0505 -0.32513,-0.0966 -0.49021,-0.13985 -0.29917,-0.0678 -0.50896,-0.13481 -0.62935,-0.20185 -0.12039,-0.067 -0.18095,-0.16292 -0.18095,-0.28908 0,-0.14274 0.0584,-0.24799 0.17374,-0.31431 0.11606,-0.067 0.26601,-0.10021 0.44984,-0.10021 0.18455,0 0.34315,0.0353 0.47724,0.10669 0.13337,0.0721 0.25376,0.19032 0.36117,0.35612 l 0.60628,-0.47435 c -0.28019,-0.46282 -0.75791,-0.69423 -1.43315,-0.69423 -0.46642,0 -0.82471,0.10453 -1.07486,0.31215 -0.25015,0.20762 -0.37487,0.4967 -0.37487,0.86724 0,0.20329 0.0375,0.37126 0.11246,0.50535 0.075,0.13337 0.17806,0.24439 0.30927,0.33234 0.13048,0.0887 0.28548,0.16076 0.46498,0.21627 0.1795,0.0555 0.37126,0.1103 0.57456,0.16509 0.20834,0.0541 0.3554,0.10309 0.43975,0.1449 0.0843,0.0425 0.14851,0.093 0.19032,0.15139 0.0425,0.0577 0.0634,0.13048 0.0634,0.21699 0,0.15211 -0.0606,0.26529 -0.18167,0.33954 -0.12111,0.075 -0.29052,0.11174 -0.50679,0.11174 -0.14418,0 -0.2725,-0.018 -0.38352,-0.0533 -0.11102,-0.0361 -0.2069,-0.0858 -0.28764,-0.14995 -0.0807,-0.0634 -0.16653,-0.15932 -0.25664,-0.28764 l -0.61204,0.46859 c 0.16004,0.25592 0.36694,0.44119 0.62214,0.55581 0.25448,0.11462 0.55509,0.17157 0.90113,0.17157 0.5003,0 0.87878,-0.10381 1.13542,-0.31287 z m 32.98769,-1.72079 c 0,0.67909 -0.14346,1.18732 -0.43038,1.52615 -0.28692,0.33882 -0.7036,0.50751 -1.25076,0.50751 -0.57744,0 -1.00205,-0.17806 -1.27383,-0.53419 -0.27178,-0.35685 -0.40803,-0.85643 -0.40803,-1.49947 0,-0.64737 0.13625,-1.14767 0.40803,-1.50236 0.27178,-0.35468 0.69639,-0.53202 1.27383,-0.53202 0.58105,0 1.00638,0.17734 1.27599,0.53202 0.27034,0.35468 0.40515,0.85499 0.40515,1.50236 z m -105.67104,1.9522 h -0.81534 l -0.65458,-2.58154 -0.65746,2.58154 h -0.8038 l -0.98763,-3.9044 h 0.79299 l 0.62358,2.54766 0.64593,-2.54766 h 0.78722 l 0.65169,2.56424 0.64016,-2.56424 h 0.78722 z m 2.23911,0 1.29185,-3.9044 h 1.03521 l 1.29474,3.9044 h -0.81534 l -0.25952,-0.79299 h -1.50308 l -0.25448,0.79299 z m 6.52127,-1.47857 0.99556,1.47857 h 0.91122 l -1.04386,-1.57156 c 0.25808,-0.0541 0.45705,-0.18023 0.59691,-0.37775 0.14058,-0.19753 0.2105,-0.46282 0.2105,-0.79587 0,-0.41163 -0.11606,-0.70792 -0.34892,-0.88815 -0.23213,-0.18095 -0.59907,-0.27106 -1.10154,-0.27106 h -1.41873 v 3.9044 h 0.79515 v -1.47857 z m 3.62685,1.47857 v -3.9044 h 2.53613 v 0.70216 h -1.74025 v 0.83264 h 1.46703 v 0.70504 h -1.46703 v 0.93645 h 1.74025 v 0.72811 z m 6.77863,-1.6588 v 1.65879 h 0.79804 v -3.9044 h -0.79804 v 1.5175 h -1.53768 v -1.5175 h -0.79587 v 3.9044 h 0.79587 v -1.65879 z m 10.73493,1.34592 c 0.24799,-0.26745 0.37271,-0.70648 0.37271,-1.31781 v -2.27372 h -0.79587 v 2.2283 c 0,0.38424 -0.0598,0.65602 -0.18023,0.81678 -0.12039,0.16076 -0.33234,0.2415 -0.63511,0.2415 -0.21267,0 -0.37415,-0.0361 -0.48517,-0.10741 -0.11102,-0.0714 -0.19176,-0.18311 -0.24294,-0.33522 -0.0505,-0.15283 -0.0757,-0.36117 -0.0757,-0.62646 v -2.21749 h -0.79587 v 2.27372 c 0,0.61709 0.12544,1.05756 0.37703,1.32141 0.25087,0.26457 0.66034,0.3965 1.22841,0.3965 0.57384,0 0.98475,-0.13337 1.23274,-0.4001 z m 7.09294,-3.59152 v 3.9044 h 2.53613 v -0.72811 h -1.74025 v -0.93645 h 1.46703 v -0.70504 h -1.46703 v -0.83264 h 1.74025 v -0.70216 z m 6.68996,3.9044 1.29185,-3.9044 h 1.03593 l 1.29474,3.9044 h -0.81534 l -0.25952,-0.79299 h -1.5038 l -0.25376,0.79299 z m 6.10098,-2.78989 1.42234,2.78989 h 0.93645 v -3.9044 h -0.78146 v 2.63201 l -1.32285,-2.63201 h -1.03305 v 3.9044 h 0.77857 z m 7.44402,0.83769 c 0,0.47003 -0.0649,0.84778 -0.19464,1.13398 -0.12976,0.2862 -0.32513,0.49382 -0.58681,0.62358 -0.26097,0.12976 -0.62863,0.19464 -1.10298,0.19464 h -1.19021 v -3.9044 h 1.17939 c 0.46042,0 0.82663,0.0668 1.09865,0.20041 0.27178,0.13337 0.47219,0.34171 0.60195,0.62502 0.12976,0.28259 0.19464,0.65818 0.19464,1.12677 z m 7.30488,1.13397 c 0.12976,-0.2862 0.19464,-0.66395 0.19464,-1.13398 0,-0.46859 -0.0649,-0.84417 -0.19464,-1.12677 -0.12976,-0.28331 -0.33017,-0.49165 -0.60195,-0.62502 -0.27178,-0.13409 -0.638,-0.20041 -1.09937,-0.20041 h -1.17867 v 3.9044 h 1.19021 c 0.47435,0 0.84201,-0.0649 1.10298,-0.19464 0.26169,-0.12976 0.45705,-0.33738 0.58681,-0.62358 z m 3.81357,0.81823 h -1.88443 v -0.61204 h 0.54428 v -2.68031 h -0.54428 v -0.61204 h 1.88443 v 0.61204 h -0.54212 v 2.68031 h 0.54212 z m 8.14257,-3.17629 v 3.17629 h -0.79587 v -3.17629 h -1.20174 v -0.72811 h 3.19936 v 0.72811 z m 4.12643,1.69772 0.99556,1.47857 h 0.91122 l -1.04386,-1.57156 c 0.25808,-0.0541 0.45633,-0.18023 0.59691,-0.37775 0.13985,-0.19753 0.20978,-0.46282 0.20978,-0.79587 0,-0.41163 -0.11606,-0.70792 -0.34819,-0.88815 -0.23213,-0.18095 -0.59979,-0.27106 -1.10154,-0.27106 h -1.41945 v 3.9044 h 0.79587 v -1.47857 z m 5.37576,1.47857 h -1.88443 v -0.61204 h 0.54428 v -2.68031 h -0.54428 v -0.61204 h 1.88443 v 0.61204 h -0.5414 v 2.68031 h 0.5414 z m 4.5013,-0.27251 c 0.26962,-0.18095 0.4037,-0.46786 0.4037,-0.85859 0,-0.27827 -0.0747,-0.49838 -0.2242,-0.66034 -0.14923,-0.16148 -0.38784,-0.26529 -0.71513,-0.31071 0.25015,-0.0505 0.43398,-0.15139 0.55149,-0.30134 0.11751,-0.15067 0.17662,-0.34747 0.17662,-0.5897 0,-0.31575 -0.10814,-0.54716 -0.32441,-0.69279 -0.21699,-0.14562 -0.57528,-0.21843 -1.07486,-0.21843 h -1.3798 v 3.9044 h 1.46703 c 0.47724,0 0.85066,-0.0908 1.11956,-0.2725 z m 5.48894,-1.35817 c 0,0.61132 -0.12399,1.05035 -0.37198,1.31781 -0.24799,0.26673 -0.65962,0.4001 -1.23274,0.4001 -0.56807,0 -0.97754,-0.13192 -1.22914,-0.3965 -0.25087,-0.26385 -0.37631,-0.70432 -0.37631,-1.32141 v -2.27372 h 0.79587 v 2.21749 c 0,0.26529 0.0252,0.47363 0.0757,0.62646 0.0512,0.15211 0.13192,0.26385 0.24294,0.33522 0.11102,0.0714 0.2725,0.10741 0.48517,0.10741 0.30278,0 0.514,-0.0807 0.63439,-0.2415 0.12039,-0.16076 0.18095,-0.43254 0.18095,-0.81678 v -2.2283 h 0.79515 z m 3.72345,1.63068 v -3.17629 h 1.20174 v -0.72811 h -3.19936 v 0.72811 h 1.20174 v 3.17629 z m 9.0336,-1.47857 0.99628,1.47857 h 0.91122 l -1.04386,-1.57156 c 0.25736,-0.0541 0.45633,-0.18023 0.59691,-0.37775 0.13985,-0.19753 0.20978,-0.46282 0.20978,-0.79587 0,-0.41163 -0.11606,-0.70792 -0.34819,-0.88815 -0.23213,-0.18095 -0.59979,-0.27106 -1.10154,-0.27106 h -1.41945 v 3.9044 h 0.79587 v -1.47857 z m -84.36699,-0.47363 c 0,-0.46282 -0.0649,-0.8002 -0.19608,-1.01142 -0.13048,-0.21194 -0.3518,-0.3172 -0.66395,-0.3172 -0.31215,0 -0.53419,0.10525 -0.66467,0.3172 -0.13048,0.21122 -0.19608,0.54861 -0.19608,1.01142 0,0.46282 0.0663,0.79948 0.19897,1.01142 0.13265,0.21122 0.35324,0.3172 0.66179,0.3172 0.31215,0 0.53347,-0.10597 0.66395,-0.3172 0.1312,-0.21194 0.19608,-0.54861 0.19608,-1.01142 z m 80.47773,0 c 0,-0.46282 -0.0649,-0.8002 -0.19608,-1.01142 -0.13048,-0.21194 -0.3518,-0.3172 -0.66395,-0.3172 -0.31215,0 -0.53419,0.10525 -0.66467,0.3172 -0.13048,0.21122 -0.19608,0.54861 -0.19608,1.01142 0,0.46282 0.0663,0.79948 0.19897,1.01142 0.13265,0.21122 0.35324,0.3172 0.66179,0.3172 0.31215,0 0.53347,-0.10597 0.66395,-0.3172 0.1312,-0.21194 0.19608,-0.54861 0.19608,-1.01142 z m -95.3773,-1.15921 c 0.10093,0.067 0.15067,0.20113 0.15067,0.4001 0,0.14851 -0.0209,0.2588 -0.0634,0.33017 -0.0418,0.0714 -0.11102,0.12399 -0.2069,0.15788 -0.0959,0.0339 -0.23357,0.0512 -0.41236,0.0512 h -0.58393 v -1.04098 h 0.61781 c 0.23141,0 0.39794,0.0339 0.49814,0.10165 z m 71.85576,0 c 0.10021,0.067 0.15067,0.20113 0.15067,0.4001 0,0.14851 -0.0209,0.2588 -0.0634,0.33017 -0.0425,0.0714 -0.11174,0.12399 -0.20762,0.15788 -0.0959,0.0339 -0.23285,0.0512 -0.41163,0.0512 h -0.58393 v -1.04098 h 0.61781 c 0.23141,0 0.39722,0.0339 0.49814,0.10165 z m 8.38912,-0.0159 c 0.10958,0.0577 0.16364,0.16004 0.16364,0.30927 0,0.1634 -0.057,0.27803 -0.17085,0.34387 -0.11342,0.0658 -0.28764,0.0988 -0.52265,0.0988 h -0.48589 v -0.83769 h 0.50823 c 0.22925,0 0.39866,0.0281 0.50751,0.0858 z m 19.73465,0.0159 c 0.10021,0.067 0.15067,0.20113 0.15067,0.4001 0,0.14851 -0.0209,0.2588 -0.0634,0.33017 -0.0425,0.0714 -0.11174,0.12399 -0.20762,0.15788 -0.0959,0.0339 -0.23285,0.0512 -0.41163,0.0512 h -0.58393 v -1.04098 h 0.61781 c 0.23141,0 0.39722,0.0339 0.49814,0.10165 z m -53.04386,1.15344 c 0,-0.34027 -0.0339,-0.59258 -0.10021,-0.75767 -0.067,-0.16437 -0.18023,-0.28259 -0.34027,-0.35396 -0.16004,-0.0714 -0.3965,-0.10669 -0.71081,-0.10669 h -0.30494 v 2.44818 h 0.30494 c 0.31431,0 0.55077,-0.036 0.70937,-0.10814 0.15932,-0.0728 0.2725,-0.1932 0.34027,-0.36261 0.0678,-0.16917 0.10165,-0.42221 0.10165,-0.75911 z m 7.3986,-0.75767 c 0.067,0.16509 0.10021,0.4174 0.10021,0.75767 0,0.33666 -0.0339,0.5897 -0.10093,0.75911 -0.0678,0.16941 -0.18167,0.2898 -0.34027,0.36261 -0.1586,0.0721 -0.39577,0.10814 -0.70937,0.10814 h -0.30494 v -2.44818 h 0.30494 c 0.31359,0 0.55077,0.0353 0.71081,0.10669 0.16004,0.0714 0.27322,0.1896 0.33954,0.35396 z m -60.29828,1.22625 h 1.05179 l -0.52409,-1.6141 z m 41.44457,0 h 1.05251 l -0.52482,-1.6141 z m 44.9532,-0.0836 c 0.11895,0.0728 0.17806,0.19608 0.17806,0.37126 0,0.1276 -0.0267,0.2278 -0.0807,0.29917 -0.0534,0.0714 -0.13913,0.12183 -0.25664,0.15211 -0.11727,0.0303 -0.33113,0.0454 -0.6416,0.0454 h -0.4037 v -0.9761 h 0.53923 c 0.32513,0 0.54716,0.036 0.66539,0.10814 z"
             data-paper-data="{&quot;isBaseLogoContainer&quot;:true}"
             id="element-id-38497" />
        </g>
      </g>
    </g>
  </g>
</svg>
