<?xml version="1.0" encoding="UTF-8" standalone="no"?>
<!-- Created with Inkscape (http://www.inkscape.org/) -->

<svg
   width="63.499489mm"
   height="63.5mm"
   viewBox="0 0 63.499489 63.5"
   version="1.1"
   id="svg3295"
   inkscape:export-filename="blogooo.svg"
   inkscape:export-xdpi="96"
   inkscape:export-ydpi="96"
   xmlns:inkscape="http://www.inkscape.org/namespaces/inkscape"
   xmlns:sodipodi="http://sodipodi.sourceforge.net/DTD/sodipodi-0.dtd"
   xmlns="http://www.w3.org/2000/svg"
   xmlns:svg="http://www.w3.org/2000/svg">
  <sodipodi:namedview
     id="namedview3297"
     pagecolor="#ffffff"
     bordercolor="#000000"
     borderopacity="0.25"
     inkscape:showpageshadow="2"
     inkscape:pageopacity="0.0"
     inkscape:pagecheckerboard="0"
     inkscape:deskcolor="#d1d1d1"
     inkscape:document-units="mm"
     showgrid="false" />
  <defs
     id="defs3292" />
  <g
     inkscape:label="Capa 1"
     inkscape:groupmode="layer"
     id="layer1"
     transform="translate(-6.2990114,-7.0373128)">
    <g
       data-paper-data="{&quot;isSecondaryText&quot;:true}"
       id="element-id-15366"
       style="mix-blend-mode:normal;fill:#ffffff"
       transform="matrix(0.26458333,0,0,0.26458333,-34.71192,-23.389767)">
      <path
         d="m 170.25577,317.88863 h -1.56016 l -1.25244,-4.93959 -1.25784,4.93959 h -1.53856 l -1.88946,-7.47147 h 1.51697 l 1.19306,4.87481 1.23625,-4.87481 h 1.50617 l 1.24705,4.9072 1.22545,-4.9072 h 1.50617 z"
         data-paper-data="{&quot;glyphName&quot;:&quot;W&quot;,&quot;glyphIndex&quot;:0,&quot;firstGlyphOfWord&quot;:true,&quot;word&quot;:1}"
         id="element-id-55820"
         style="fill:#ffffff" />
      <path
         d="m 174.54035,317.88863 2.4725,-7.47147 h 1.98124 l 2.47789,7.47147 h -1.56016 l -0.49666,-1.51697 h -2.87738 l -0.48586,1.51697 z m 2.42931,-2.85039 h 2.01363 l -1.00411,-3.08792 z"
         data-paper-data="{&quot;glyphName&quot;:&quot;A&quot;,&quot;glyphIndex&quot;:1,&quot;word&quot;:1}"
         id="element-id-97085"
         style="fill:#ffffff" />
      <path
         d="m 188.92546,317.88863 -1.90566,-2.8288 h -0.77198 v 2.8288 h -1.52237 v -7.47147 h 2.71543 c 0.96093,0 1.66363,0.17275 2.1081,0.51825 0.44447,0.3455 0.66671,0.91234 0.66671,1.70052 0,0.63702 -0.13406,1.14447 -0.40219,1.52237 -0.26812,0.37789 -0.64872,0.61902 -1.14178,0.72339 l 1.99743,3.00694 z m -0.25373,-5.18792 c 0,-0.38149 -0.0963,-0.63702 -0.28882,-0.76658 -0.19255,-0.12956 -0.51015,-0.19434 -0.95283,-0.19434 h -1.18226 v 1.99203 h 1.11748 c 0.3419,0 0.60463,-0.0324 0.78818,-0.0972 0.18355,-0.0648 0.31581,-0.16555 0.39679,-0.30231 0.081,-0.13676 0.12147,-0.3473 0.12147,-0.63162 z"
         data-paper-data="{&quot;glyphName&quot;:&quot;R&quot;,&quot;glyphIndex&quot;:2,&quot;word&quot;:1}"
         id="element-id-28620"
         style="fill:#ffffff" />
      <path
         d="m 193.96042,317.88863 v -7.47147 h 4.85322 v 1.34422 h -3.33085 v 1.59255 h 2.8072 v 1.34962 h -2.8072 v 1.79229 h 3.33085 v 1.3928 z"
         data-paper-data="{&quot;glyphName&quot;:&quot;E&quot;,&quot;glyphIndex&quot;:3,&quot;word&quot;:1}"
         id="element-id-640"
         style="fill:#ffffff" />
      <path
         d="m 206.93113,317.88863 v -3.1743 h -2.94216 v 3.1743 h -1.52237 v -7.47147 h 1.52237 v 2.90437 h 2.94216 v -2.90437 h 1.52777 v 7.47147 z"
         data-paper-data="{&quot;glyphName&quot;:&quot;H&quot;,&quot;glyphIndex&quot;:4,&quot;word&quot;:1}"
         id="element-id-55116"
         style="fill:#ffffff" />
      <path
         d="m 218.46585,314.15289 c 0,1.29923 -0.27442,2.27275 -0.82327,2.92057 -0.54884,0.64782 -1.34692,0.97172 -2.39422,0.97172 -1.10489,0 -1.91735,-0.341 -2.43741,-1.02301 -0.52005,-0.68201 -0.78008,-1.63843 -0.78008,-2.86928 0,-1.23805 0.26003,-2.19628 0.78008,-2.87468 0.52005,-0.67841 1.33252,-1.01761 2.43741,-1.01761 1.11208,0 1.92635,0.3392 2.4428,1.01761 0.51645,0.67841 0.77468,1.63663 0.77468,2.87468 z m -1.57095,0 c 0,-0.88535 -0.12506,-1.53046 -0.37519,-1.93535 -0.25013,-0.40488 -0.67391,-0.60733 -1.27134,-0.60733 -0.59743,0 -1.02121,0.20244 -1.27134,0.60733 -0.25013,0.40488 -0.37519,1.05 -0.37519,1.93535 0,0.88535 0.12686,1.53046 0.38059,1.93535 0.25373,0.40488 0.67571,0.60733 1.26594,0.60733 0.59743,0 1.02121,-0.20244 1.27134,-0.60733 0.25013,-0.40488 0.37519,-1.05 0.37519,-1.93535 z"
         data-paper-data="{&quot;glyphName&quot;:&quot;O&quot;,&quot;glyphIndex&quot;:5,&quot;word&quot;:1}"
         id="element-id-84550"
         style="fill:#ffffff" />
      <path
         d="m 228.18669,314.76832 c 0,1.16967 -0.23753,2.01003 -0.7126,2.52108 -0.47506,0.51105 -1.26144,0.76658 -2.35913,0.76658 -1.08689,0 -1.87057,-0.25283 -2.35103,-0.75848 -0.48046,-0.50566 -0.72069,-1.34872 -0.72069,-2.52918 v -4.35116 h 1.52237 v 4.24319 c 0,0.50746 0.0486,0.90694 0.14576,1.19846 0.0972,0.29152 0.25193,0.50566 0.46427,0.64242 0.21234,0.13676 0.52185,0.20514 0.92854,0.20514 0.57944,0 0.98432,-0.15386 1.21465,-0.46157 0.23033,-0.30771 0.3455,-0.82866 0.3455,-1.56286 v -4.26479 h 1.52237 z"
         data-paper-data="{&quot;glyphName&quot;:&quot;U&quot;,&quot;glyphIndex&quot;:6,&quot;word&quot;:1}"
         id="element-id-5945"
         style="fill:#ffffff" />
      <path
         d="m 237.48104,315.72385 c 0,0.74859 -0.24563,1.32262 -0.73689,1.72211 -0.49126,0.39949 -1.21555,0.59923 -2.17288,0.59923 -0.66221,0 -1.23715,-0.10977 -1.72481,-0.32931 -0.48766,-0.21954 -0.88445,-0.57404 -1.19036,-1.0635 l 1.17147,-0.89615 c 0.17275,0.24473 0.3365,0.42828 0.49126,0.55064 0.15476,0.12237 0.3383,0.21774 0.55064,0.28612 0.21234,0.0684 0.45707,0.10257 0.73419,0.10257 0.41388,0 0.73689,-0.0711 0.96902,-0.21324 0.23213,-0.14216 0.3482,-0.359 0.3482,-0.65051 0,-0.16555 -0.0405,-0.30411 -0.12147,-0.41568 -0.081,-0.11157 -0.20244,-0.20784 -0.3644,-0.28882 -0.16195,-0.081 -0.44267,-0.17365 -0.84216,-0.27802 -0.38869,-0.10437 -0.75489,-0.20964 -1.09859,-0.31581 -0.3437,-0.10617 -0.64062,-0.24383 -0.89075,-0.41298 -0.25013,-0.16915 -0.44717,-0.38149 -0.59113,-0.63702 -0.14396,-0.25553 -0.21594,-0.57764 -0.21594,-0.96633 0,-0.709 0.23933,-1.26234 0.718,-1.66003 0.47866,-0.39769 1.16427,-0.59653 2.05681,-0.59653 1.29203,0 2.20617,0.44267 2.74242,1.32802 l -1.16067,0.90694 c -0.20514,-0.31671 -0.43548,-0.54345 -0.691,-0.68021 -0.25553,-0.13676 -0.55964,-0.20514 -0.91234,-0.20514 -0.3527,0 -0.63972,0.0639 -0.86106,0.19165 -0.22134,0.12776 -0.33201,0.32841 -0.33201,0.60193 0,0.24113 0.11517,0.42558 0.3455,0.55334 0.23033,0.12776 0.63162,0.25643 1.20386,0.38599 0.31671,0.0828 0.62982,0.17185 0.93933,0.26722 0.30951,0.0954 0.58573,0.22764 0.82866,0.39679 0.24293,0.16915 0.43818,0.39049 0.58573,0.66401 0.14756,0.27352 0.22134,0.62442 0.22134,1.0527 z"
         data-paper-data="{&quot;glyphName&quot;:&quot;S&quot;,&quot;glyphIndex&quot;:7,&quot;word&quot;:1}"
         id="element-id-88011"
         style="fill:#ffffff" />
      <path
         d="m 241.04763,317.88863 v -7.47147 h 4.85322 v 1.34422 H 242.57 v 1.59255 h 2.8072 v 1.34962 H 242.57 v 1.79229 h 3.33085 v 1.3928 z"
         data-paper-data="{&quot;glyphName&quot;:&quot;E&quot;,&quot;glyphIndex&quot;:8,&quot;lastGlyphOfWord&quot;:true,&quot;word&quot;:1}"
         id="element-id-91070"
         style="fill:#ffffff" />
      <path
         d="m 253.84918,317.88863 2.4725,-7.47147 h 1.98124 l 2.47789,7.47147 h -1.56016 l -0.49666,-1.51697 h -2.87738 l -0.48586,1.51697 z m 2.42931,-2.85039 h 2.01363 l -1.00411,-3.08792 z"
         data-paper-data="{&quot;glyphName&quot;:&quot;A&quot;,&quot;glyphIndex&quot;:9,&quot;firstGlyphOfWord&quot;:true,&quot;word&quot;:2}"
         id="element-id-77827"
         style="fill:#ffffff" />
      <path
         d="m 268.24509,317.88863 -2.72083,-5.33908 v 5.33908 h -1.48998 v -7.47147 h 1.97584 l 2.53188,5.03677 v -5.03677 h 1.49537 v 7.47147 z"
         data-paper-data="{&quot;glyphName&quot;:&quot;N&quot;,&quot;glyphIndex&quot;:10,&quot;word&quot;:2}"
         id="element-id-48226"
         style="fill:#ffffff" />
      <path
         d="m 279.76901,314.15289 c 0,0.89974 -0.12416,1.62314 -0.37249,2.17018 -0.24833,0.54704 -0.62262,0.94473 -1.12288,1.19306 -0.50026,0.24833 -1.20386,0.37249 -2.1108,0.37249 h -2.27815 v -7.47147 h 2.25656 c 0.88175,0 1.58265,0.12776 2.1027,0.38329 0.52005,0.25553 0.90424,0.65411 1.15257,1.19576 0.24833,0.54165 0.37249,1.26054 0.37249,2.15669 z m -1.57095,-0.0108 c 0,-0.65141 -0.0639,-1.13458 -0.19165,-1.44949 -0.12776,-0.31491 -0.3446,-0.54075 -0.65051,-0.67751 -0.30591,-0.13676 -0.75938,-0.20514 -1.36041,-0.20514 h -0.58303 v 4.68587 h 0.58303 c 0.60103,0 1.0536,-0.0693 1.35771,-0.20784 0.30411,-0.13856 0.52095,-0.36979 0.65051,-0.6937 0.12956,-0.32391 0.19434,-0.80797 0.19434,-1.45219 z"
         data-paper-data="{&quot;glyphName&quot;:&quot;D&quot;,&quot;glyphIndex&quot;:11,&quot;lastGlyphOfWord&quot;:true,&quot;word&quot;:2}"
         id="element-id-3346"
         style="fill:#ffffff" />
      <path
         d="m 294.11993,314.15289 c 0,0.89974 -0.12416,1.62314 -0.37249,2.17018 -0.24833,0.54704 -0.62262,0.94473 -1.12288,1.19306 -0.50026,0.24833 -1.20386,0.37249 -2.1108,0.37249 h -2.27815 v -7.47147 h 2.25656 c 0.88175,0 1.58265,0.12776 2.1027,0.38329 0.52005,0.25553 0.90424,0.65411 1.15257,1.19576 0.24833,0.54165 0.37249,1.26054 0.37249,2.15669 z m -1.57096,-0.0108 c 0,-0.65141 -0.0639,-1.13458 -0.19165,-1.44949 -0.12776,-0.31491 -0.3446,-0.54075 -0.65051,-0.67751 -0.30591,-0.13676 -0.75938,-0.20514 -1.36041,-0.20514 h -0.58303 v 4.68587 h 0.58303 c 0.60103,0 1.0536,-0.0693 1.35771,-0.20784 0.30411,-0.13856 0.52095,-0.36979 0.65051,-0.6937 0.12956,-0.32391 0.19434,-0.80797 0.19434,-1.45219 z"
         data-paper-data="{&quot;glyphName&quot;:&quot;D&quot;,&quot;glyphIndex&quot;:12,&quot;firstGlyphOfWord&quot;:true,&quot;word&quot;:3}"
         id="element-id-25681"
         style="fill:#ffffff" />
      <path
         d="m 301.04436,317.88863 h -3.60617 v -1.17147 h 1.0419 v -5.12854 h -1.0419 v -1.17147 h 3.60617 v 1.17147 h -1.03651 v 5.12854 h 1.03651 z"
         data-paper-data="{&quot;glyphName&quot;:&quot;I&quot;,&quot;glyphIndex&quot;:13,&quot;word&quot;:3}"
         id="element-id-42883"
         style="fill:#ffffff" />
      <path
         d="m 310.07959,315.72385 c 0,0.74859 -0.24563,1.32262 -0.73689,1.72211 -0.49126,0.39949 -1.21555,0.59923 -2.17288,0.59923 -0.66221,0 -1.23715,-0.10977 -1.72481,-0.32931 -0.48766,-0.21954 -0.88445,-0.57404 -1.19036,-1.0635 l 1.17147,-0.89615 c 0.17275,0.24473 0.3365,0.42828 0.49126,0.55064 0.15476,0.12237 0.3383,0.21774 0.55064,0.28612 0.21234,0.0684 0.45707,0.10257 0.73419,0.10257 0.41388,0 0.73689,-0.0711 0.96902,-0.21324 0.23213,-0.14216 0.3482,-0.359 0.3482,-0.65051 0,-0.16555 -0.0405,-0.30411 -0.12147,-0.41568 -0.081,-0.11157 -0.20244,-0.20784 -0.3644,-0.28882 -0.16195,-0.081 -0.44267,-0.17365 -0.84216,-0.27802 -0.38869,-0.10437 -0.75489,-0.20964 -1.09859,-0.31581 -0.3437,-0.10617 -0.64062,-0.24383 -0.89075,-0.41298 -0.25013,-0.16915 -0.44717,-0.38149 -0.59113,-0.63702 -0.14396,-0.25553 -0.21594,-0.57764 -0.21594,-0.96633 0,-0.709 0.23933,-1.26234 0.718,-1.66003 0.47866,-0.39769 1.16427,-0.59653 2.05681,-0.59653 1.29203,0 2.20617,0.44267 2.74242,1.32802 l -1.16067,0.90694 c -0.20514,-0.31671 -0.43548,-0.54345 -0.691,-0.68021 -0.25553,-0.13676 -0.55964,-0.20514 -0.91234,-0.20514 -0.3527,0 -0.63972,0.0639 -0.86106,0.19165 -0.22134,0.12776 -0.33201,0.32841 -0.33201,0.60193 0,0.24113 0.11517,0.42558 0.3455,0.55334 0.23033,0.12776 0.63162,0.25643 1.20386,0.38599 0.31671,0.0828 0.62982,0.17185 0.93933,0.26722 0.30951,0.0954 0.58573,0.22764 0.82866,0.39679 0.24293,0.16915 0.43818,0.39049 0.58573,0.66401 0.14756,0.27352 0.22134,0.62442 0.22134,1.0527 z"
         data-paper-data="{&quot;glyphName&quot;:&quot;S&quot;,&quot;glyphIndex&quot;:14,&quot;word&quot;:3}"
         id="element-id-36062"
         style="fill:#ffffff" />
      <path
         d="m 316.62612,311.80996 v 6.07867 h -1.52237 v -6.07867 H 312.804 v -1.3928 h 6.12186 v 1.3928 z"
         data-paper-data="{&quot;glyphName&quot;:&quot;T&quot;,&quot;glyphIndex&quot;:15,&quot;word&quot;:3}"
         id="element-id-26626"
         style="fill:#ffffff" />
      <path
         d="m 326.42793,317.88863 -1.90566,-2.8288 h -0.77198 v 2.8288 h -1.52237 v -7.47147 h 2.71543 c 0.96093,0 1.66363,0.17275 2.1081,0.51825 0.44447,0.3455 0.66671,0.91234 0.66671,1.70052 0,0.63702 -0.13406,1.14447 -0.40219,1.52237 -0.26812,0.37789 -0.64872,0.61902 -1.14178,0.72339 l 1.99743,3.00694 z m -0.25372,-5.18792 c 0,-0.38149 -0.0963,-0.63702 -0.28882,-0.76658 -0.19255,-0.12956 -0.51015,-0.19434 -0.95283,-0.19434 h -1.18226 v 1.99203 h 1.11748 c 0.3419,0 0.60463,-0.0324 0.78818,-0.0972 0.18355,-0.0648 0.31581,-0.16555 0.39679,-0.30231 0.081,-0.13676 0.12147,-0.3473 0.12147,-0.63162 z"
         data-paper-data="{&quot;glyphName&quot;:&quot;R&quot;,&quot;glyphIndex&quot;:16,&quot;word&quot;:3}"
         id="element-id-60750"
         style="fill:#ffffff" />
      <path
         d="m 334.80995,317.88863 h -3.60617 v -1.17147 h 1.0419 v -5.12854 h -1.0419 v -1.17147 h 3.60617 v 1.17147 h -1.03651 v 5.12854 h 1.03651 z"
         data-paper-data="{&quot;glyphName&quot;:&quot;I&quot;,&quot;glyphIndex&quot;:17,&quot;word&quot;:3}"
         id="element-id-49089"
         style="fill:#ffffff" />
      <path
         d="m 344.19608,315.72385 c 0,0.74859 -0.25733,1.29653 -0.77198,1.64383 -0.51465,0.3473 -1.22905,0.52095 -2.14319,0.52095 h -2.8072 v -7.47147 h 2.63985 c 0.95733,0 1.64293,0.13946 2.05681,0.41838 0.41388,0.27892 0.62082,0.72069 0.62082,1.32532 0,0.46427 -0.11247,0.84036 -0.3374,1.12828 -0.22494,0.28792 -0.57674,0.48046 -1.0554,0.57764 0.62622,0.0864 1.08239,0.28432 1.36851,0.59383 0.28612,0.30951 0.42918,0.73059 0.42918,1.26324 z m -1.94345,-3.22828 c 0,-0.28432 -0.10437,-0.48136 -0.31311,-0.59113 -0.20874,-0.10977 -0.53265,-0.16465 -0.97172,-0.16465 h -0.97172 v 1.60334 h 0.92854 c 0.44987,0 0.78368,-0.063 1.00142,-0.18895 0.21774,-0.12596 0.32661,-0.3455 0.32661,-0.65861 z m 0.38869,3.09332 c 0,-0.3347 -0.11337,-0.57134 -0.3401,-0.7099 -0.22674,-0.13856 -0.65141,-0.20784 -1.27404,-0.20784 h -1.03111 v 1.86787 h 0.77198 c 0.59383,0 1.00321,-0.0288 1.22815,-0.0864 0.22494,-0.0576 0.38869,-0.15476 0.49126,-0.29152 0.10257,-0.13676 0.15386,-0.32751 0.15386,-0.57224 z"
         data-paper-data="{&quot;glyphName&quot;:&quot;B&quot;,&quot;glyphIndex&quot;:18,&quot;word&quot;:3}"
         id="element-id-97477"
         style="fill:#ffffff" />
      <path
         d="m 353.92771,314.76832 c 0,1.16967 -0.23753,2.01003 -0.7126,2.52108 -0.47506,0.51105 -1.26144,0.76658 -2.35913,0.76658 -1.08689,0 -1.87057,-0.25283 -2.35103,-0.75848 -0.48046,-0.50566 -0.72069,-1.34872 -0.72069,-2.52918 v -4.35116 h 1.52237 v 4.24319 c 0,0.50746 0.0486,0.90694 0.14576,1.19846 0.0972,0.29152 0.25193,0.50566 0.46427,0.64242 0.21234,0.13676 0.52185,0.20514 0.92854,0.20514 0.57944,0 0.98432,-0.15386 1.21465,-0.46157 0.23033,-0.30771 0.3455,-0.82866 0.3455,-1.56286 v -4.26479 h 1.52237 z"
         data-paper-data="{&quot;glyphName&quot;:&quot;U&quot;,&quot;glyphIndex&quot;:19,&quot;word&quot;:3}"
         id="element-id-26480"
         style="fill:#ffffff" />
      <path
         d="m 361.05188,311.80996 v 6.07867 h -1.52237 v -6.07867 h -2.29975 v -1.3928 h 6.12186 v 1.3928 z"
         data-paper-data="{&quot;glyphName&quot;:&quot;T&quot;,&quot;glyphIndex&quot;:20,&quot;word&quot;:3}"
         id="element-id-29701"
         style="fill:#ffffff" />
      <path
         d="m 372.46784,314.15289 c 0,1.29923 -0.27442,2.27275 -0.82327,2.92057 -0.54884,0.64782 -1.34692,0.97172 -2.39422,0.97172 -1.10489,0 -1.91735,-0.341 -2.43741,-1.02301 -0.52005,-0.68201 -0.78008,-1.63843 -0.78008,-2.86928 0,-1.23805 0.26003,-2.19628 0.78008,-2.87468 0.52005,-0.67841 1.33252,-1.01761 2.43741,-1.01761 1.11208,0 1.92635,0.3392 2.4428,1.01761 0.51645,0.67841 0.77468,1.63663 0.77468,2.87468 z m -1.57096,0 c 0,-0.88535 -0.12506,-1.53046 -0.37519,-1.93535 -0.25013,-0.40488 -0.67391,-0.60733 -1.27134,-0.60733 -0.59743,0 -1.02121,0.20244 -1.27134,0.60733 -0.25013,0.40488 -0.37519,1.05 -0.37519,1.93535 0,0.88535 0.12686,1.53046 0.38059,1.93535 0.25373,0.40488 0.67571,0.60733 1.26594,0.60733 0.59743,0 1.02121,-0.20244 1.27134,-0.60733 0.25013,-0.40488 0.37519,-1.05 0.37519,-1.93535 z"
         data-paper-data="{&quot;glyphName&quot;:&quot;O&quot;,&quot;glyphIndex&quot;:21,&quot;word&quot;:3}"
         id="element-id-74196"
         style="fill:#ffffff" />
      <path
         d="m 380.24522,317.88863 -1.90566,-2.8288 h -0.77198 v 2.8288 h -1.52237 v -7.47147 h 2.71543 c 0.96093,0 1.66363,0.17275 2.1081,0.51825 0.44447,0.3455 0.66671,0.91234 0.66671,1.70052 0,0.63702 -0.13406,1.14447 -0.40219,1.52237 -0.26812,0.37789 -0.64872,0.61902 -1.14178,0.72339 l 1.99743,3.00694 z m -0.25373,-5.18792 c 0,-0.38149 -0.0963,-0.63702 -0.28882,-0.76658 -0.19255,-0.12956 -0.51015,-0.19434 -0.95283,-0.19434 h -1.18226 v 1.99203 h 1.11748 c 0.3419,0 0.60463,-0.0324 0.78818,-0.0972 0.18355,-0.0648 0.31581,-0.16555 0.39679,-0.30231 0.081,-0.13676 0.12147,-0.3473 0.12147,-0.63162 z"
         data-paper-data="{&quot;glyphName&quot;:&quot;R&quot;,&quot;glyphIndex&quot;:22,&quot;lastGlyphOfWord&quot;:true,&quot;word&quot;:3}"
         id="element-id-69695"
         style="fill:#ffffff" />
    </g>
    <g
       data-paper-data="{&quot;stacked&quot;:true,&quot;isPrimaryText&quot;:true}"
       id="element-id-58782"
       style="mix-blend-mode:normal;fill:#ffffff"
       transform="matrix(0.26458333,0,0,0.26458333,-34.71192,-23.389767)">
      <path
         d="m 179.49956,244.9058 h -3.22952 c -1.11015,0 -1.27835,0.7401 -1.51384,1.14379 l -4.64243,8.27563 -4.60879,-8.27563 c -0.26913,-0.40369 -0.40369,-1.14379 -1.54748,-1.14379 h -3.33044 c -0.77374,0 -0.97558,0.37005 -0.97558,0.97558 v 20.21811 c 0,0.77374 0.37005,0.97558 0.97558,0.97558 h 3.33044 c 0.60553,0 0.97558,-0.20184 0.97558,-0.97558 v -11.40423 l 3.39772,5.88714 c 0.1682,0.26913 0.43733,0.70646 0.94194,0.70646 h 1.68204 c 0.50461,0 0.80738,-0.43733 0.97558,-0.70646 l 3.36408,-5.88714 v 11.40423 c 0,0.77374 0.37005,0.97558 0.97558,0.97558 h 3.22952 c 0.60553,0 0.97558,-0.20184 0.97558,-0.97558 v -20.21811 c 0,-0.60553 -0.20184,-0.97558 -0.97558,-0.97558 z"
         data-paper-data="{&quot;glyphName&quot;:&quot;M&quot;,&quot;glyphIndex&quot;:0,&quot;firstGlyphOfWord&quot;:true,&quot;word&quot;:1,&quot;line&quot;:1,&quot;firstGlyphOfFirstLine&quot;:true}"
         id="element-id-17153"
         style="fill:#ffffff" />
      <path
         d="m 209.01374,244.93944 h -3.33044 c -0.60553,0 -0.97558,0.20184 -0.97558,0.97558 v 13.65816 c 0,2.11937 -1.41291,3.33044 -3.6332,3.33044 -2.22029,0 -3.59956,-1.21107 -3.59956,-3.33044 v -13.65816 c 0,-0.77374 -0.37005,-0.97558 -0.97558,-0.97558 h -3.33044 c -0.60553,0 -0.97558,0.20184 -0.97558,0.97558 v 14.39826 c 0,5.2816 4.87791,7.26641 8.88117,7.26641 4.00325,0 8.91481,-1.98481 8.91481,-7.26641 v -14.39826 c 0,-0.77374 -0.37005,-0.97558 -0.97558,-0.97558 z"
         data-paper-data="{&quot;glyphName&quot;:&quot;U&quot;,&quot;glyphIndex&quot;:1,&quot;word&quot;:1,&quot;line&quot;:1}"
         id="element-id-13332"
         style="fill:#ffffff" />
      <path
         d="m 232.13617,254.22429 c -1.34563,-0.53825 -6.29083,-1.27835 -6.29083,-3.33044 0,-1.51384 1.85024,-1.95117 2.96039,-1.95117 1.00922,0 2.22029,0.30277 2.85947,0.9083 0.40369,0.40369 0.57189,0.67282 0.70646,1.00922 0.1682,0.43733 0.26913,0.9083 0.9083,0.9083 h 3.2968 c 0.77374,0 0.97558,-0.13456 0.97558,-0.94194 0,-4.44058 -4.67607,-6.39175 -8.94845,-6.39175 -4.2051,0.1682 -8.17471,2.32121 -8.17471,6.69452 0,4.27238 3.12859,5.61801 6.52631,6.69452 2.85947,0.9083 5.8535,0.94194 5.8535,2.82583 0,1.88388 -1.48019,2.28757 -3.2968,2.28757 -1.24471,0 -2.62398,-0.30277 -3.2968,-1.11015 -0.43733,-0.50461 -0.60553,-0.94194 -0.63917,-1.37927 -0.0673,-0.84102 -0.43733,-0.94194 -1.21107,-0.94194 h -3.26316 c -0.77374,0 -0.97558,0.1682 -0.97558,0.94194 0,4.70971 4.84427,7.13185 9.04937,7.13185 5.18068,0 8.94845,-2.28757 8.94845,-7.06456 0,-4.57515 -3.56592,-5.55073 -5.98806,-6.29083 z"
         data-paper-data="{&quot;glyphName&quot;:&quot;S&quot;,&quot;glyphIndex&quot;:2,&quot;word&quot;:1,&quot;line&quot;:1}"
         id="element-id-82893"
         style="fill:#ffffff" />
      <path
         d="m 258.68997,262.46629 h -2.11937 v -12.85078 h 2.01845 c 0.77374,0 0.97558,-0.37005 0.97558,-0.97558 v -2.7249 c 0,-0.60553 -0.20184,-0.97558 -0.97558,-0.97558 h -9.35214 c -0.77374,0 -0.97558,0.37005 -0.97558,0.97558 v 2.7249 c 0,0.60553 0.20184,0.97558 0.97558,0.97558 h 2.05209 v 12.85078 h -2.11937 c -0.77374,0 -0.97558,0.37005 -0.97558,0.97558 v 2.65762 c 0,0.60553 0.20184,0.97558 0.97558,0.97558 h 9.52034 c 0.77374,0 0.97558,-0.37005 0.97558,-0.97558 v -2.65762 c 0,-0.60553 -0.20184,-0.97558 -0.97558,-0.97558 z"
         data-paper-data="{&quot;glyphName&quot;:&quot;I&quot;,&quot;glyphIndex&quot;:3,&quot;word&quot;:1,&quot;line&quot;:1}"
         id="element-id-40283"
         style="fill:#ffffff" />
      <path
         d="m 288.06958,260.51512 c 0,-0.80738 -0.26913,-1.14379 -1.00922,-1.14379 h -3.2968 c -0.7401,0 -0.80738,0.53825 -0.9083,1.21107 -0.26913,1.61476 -1.71568,2.28757 -3.53228,2.28757 -2.22029,0 -3.73413,-1.21107 -3.73413,-3.36408 v -6.99728 c 0,-2.11937 1.51384,-3.36408 3.73413,-3.36408 1.8166,0 2.75854,0.50461 3.465,1.61476 0.26913,0.40369 0.30277,1.04286 1.00922,1.04286 h 3.22952 c 0.77374,0 1.04286,-0.1682 1.04286,-0.97558 -0.43733,-4.27238 -4.57515,-6.39175 -8.7466,-6.39175 -4.00325,0 -9.01573,2.32121 -9.01573,7.60282 v 7.93922 c 0,5.2816 5.01248,7.60282 9.01573,7.60282 4.17146,0 8.7466,-2.7249 8.7466,-7.06456 z"
         data-paper-data="{&quot;glyphName&quot;:&quot;C&quot;,&quot;glyphIndex&quot;:4,&quot;lastGlyphOfWord&quot;:true,&quot;word&quot;:1,&quot;line&quot;:1}"
         id="element-id-9751"
         style="fill:#ffffff" />
      <path
         d="m 323.95309,244.93944 h -7.56918 c -0.77374,0 -0.97558,0.37005 -0.97558,0.97558 v 20.18447 c 0,0.77374 0.37005,0.97558 0.97558,0.97558 h 3.33044 c 0.60553,0 0.97558,-0.20184 0.97558,-0.97558 v -5.58437 h 3.22952 c 5.75257,0 8.84753,-3.09495 8.84753,-7.77102 0,-4.64243 -3.02767,-7.80466 -8.81389,-7.80466 z m -0.0336,11.03417 h -3.22952 v -6.29083 h 3.22952 c 2.62398,0 3.76777,1.41291 3.76777,3.16223 0,1.68204 -1.14379,3.12859 -3.76777,3.12859 z"
         data-paper-data="{&quot;glyphName&quot;:&quot;P&quot;,&quot;glyphIndex&quot;:5,&quot;firstGlyphOfWord&quot;:true,&quot;word&quot;:2,&quot;line&quot;:1}"
         id="element-id-44027"
         style="fill:#ffffff" />
      <path
         d="m 361.67562,265.99857 -4.74335,-6.89636 c 2.08573,-0.70646 4.67607,-3.16223 4.67607,-6.69452 0,-2.15301 -0.70646,-4.07053 -1.95117,-5.2816 -1.41291,-1.41291 -3.02767,-2.15301 -6.69452,-2.15301 h -8.47748 c -0.77374,0 -0.94194,0.37005 -0.94194,0.97558 v 20.15083 c 0,0.77374 0.33641,0.97558 0.94194,0.97558 h 3.33044 c 0.60553,0 0.97558,-0.20184 0.97558,-0.97558 v -16.4167 h 4.47422 c 1.74932,0 3.09495,1.11015 3.09495,2.85947 0,1.58112 -1.54748,2.7249 -3.19587,2.7249 h -0.67282 c -0.77374,0 -0.97558,0.37005 -0.97558,0.97558 v 2.69126 c 0,0.94194 0.0673,1.31199 0.37005,1.71568 l 3.6332,5.41617 c 0.47097,0.70646 0.87466,1.00922 1.68204,1.00922 h 3.96961 c 0.63917,0 0.80738,-0.60553 0.50461,-1.07651 z"
         data-paper-data="{&quot;glyphName&quot;:&quot;R&quot;,&quot;glyphIndex&quot;:6,&quot;word&quot;:2,&quot;line&quot;:1}"
         id="element-id-90742"
         style="fill:#ffffff" />
      <path
         d="m 390.34878,252.03764 c 0,-5.31524 -5.04612,-7.60282 -9.04937,-7.60282 -4.00325,0 -8.98209,2.28757 -8.98209,7.60282 v 7.93922 c 0,5.31524 4.97884,7.60282 8.98209,7.60282 4.00325,0 9.04937,-2.28757 9.04937,-7.60282 z m -5.2816,7.46826 c 0,2.15301 -1.54748,3.39772 -3.76777,3.39772 -2.18665,0 -3.73413,-1.24471 -3.73413,-3.39772 v -6.99728 c 0,-2.15301 1.54748,-3.39772 3.73413,-3.39772 2.22029,0 3.76777,1.24471 3.76777,3.39772 z"
         data-paper-data="{&quot;glyphName&quot;:&quot;O&quot;,&quot;glyphIndex&quot;:7,&quot;lastGlyphOfWord&quot;:true,&quot;word&quot;:2,&quot;line&quot;:1,&quot;lastGlyphOfFirstLine&quot;:true}"
         id="element-id-9983"
         style="fill:#ffffff" />
      <path
         d="m 180.83796,292.85702 c 0,-0.96302 -0.32101,-1.36428 -1.20378,-1.36428 h -3.93233 c -0.88277,0 -0.96302,0.64201 -1.0834,1.44453 -0.32101,1.92604 -2.04642,2.72856 -4.21322,2.72856 -2.64831,0 -4.45397,-1.44453 -4.45397,-4.01259 v -8.34618 c 0,-2.52793 1.80566,-4.01259 4.45397,-4.01259 2.1668,0 3.29032,0.60189 4.13296,1.92604 0.32101,0.48151 0.36113,1.2439 1.20378,1.2439 h 3.85208 c 0.92289,0 1.2439,-0.20063 1.2439,-1.16365 -0.52164,-5.09599 -5.45712,-7.62391 -10.43273,-7.62391 -4.77498,0 -10.75373,2.76868 -10.75373,9.06845 v 9.4697 c 0,6.29976 5.97875,9.06845 10.75373,9.06845 4.97561,0 10.43273,-3.2502 10.43273,-8.42643 z"
         data-paper-data="{&quot;glyphName&quot;:&quot;C&quot;,&quot;glyphIndex&quot;:8,&quot;firstGlyphOfWord&quot;:true,&quot;word&quot;:2,&quot;line&quot;:2,&quot;firstGlyphOfSecondLine&quot;:true}"
         id="element-id-72873"
         style="fill:#ffffff" />
      <path
         d="m 214.95832,282.7453 c 0,-6.33989 -6.01888,-9.06845 -10.79386,-9.06845 -4.77498,0 -10.71361,2.72856 -10.71361,9.06845 v 9.4697 c 0,6.33989 5.93863,9.06845 10.71361,9.06845 4.77498,0 10.79386,-2.72856 10.79386,-9.06845 z m -6.29976,8.90794 c 0,2.56806 -1.84579,4.05271 -4.4941,4.05271 -2.60818,0 -4.45397,-1.48466 -4.45397,-4.05271 v -8.34618 c 0,-2.56806 1.84579,-4.05271 4.45397,-4.05271 2.64831,0 4.4941,1.48466 4.4941,4.05271 z"
         data-paper-data="{&quot;glyphName&quot;:&quot;O&quot;,&quot;glyphIndex&quot;:9,&quot;word&quot;:2,&quot;line&quot;:2}"
         id="element-id-53003"
         style="fill:#ffffff" />
      <path
         d="m 252.12825,274.23862 h -3.85208 c -1.32415,0 -1.52478,0.88277 -1.80566,1.36428 l -5.53737,9.87096 -5.49724,-9.87096 c -0.32101,-0.48151 -0.48151,-1.36428 -1.84579,-1.36428 h -3.97246 c -0.92289,0 -1.16365,0.44138 -1.16365,1.16365 v 24.11565 c 0,0.92289 0.44138,1.16365 1.16365,1.16365 h 3.97246 c 0.72227,0 1.16365,-0.24076 1.16365,-1.16365 v -13.60267 l 4.05271,7.02203 c 0.20063,0.32101 0.52164,0.84264 1.12352,0.84264 h 2.00629 c 0.60189,0 0.96302,-0.52164 1.16365,-0.84264 l 4.01259,-7.02203 v 13.60267 c 0,0.92289 0.44138,1.16365 1.16365,1.16365 h 3.85208 c 0.72227,0 1.16365,-0.24076 1.16365,-1.16365 v -24.11565 c 0,-0.72227 -0.24076,-1.16365 -1.16365,-1.16365 z"
         data-paper-data="{&quot;glyphName&quot;:&quot;M&quot;,&quot;glyphIndex&quot;:10,&quot;word&quot;:2,&quot;line&quot;:2}"
         id="element-id-30905"
         style="fill:#ffffff" />
      <path
         d="m 277.78205,274.27874 h -9.02832 c -0.92289,0 -1.16365,0.44138 -1.16365,1.16365 v 24.07552 c 0,0.92289 0.44138,1.16365 1.16365,1.16365 h 3.97246 c 0.72227,0 1.16365,-0.24076 1.16365,-1.16365 v -6.66089 h 3.85208 c 6.86152,0 10.5531,-3.69158 10.5531,-9.26908 0,-5.53737 -3.61133,-9.3092 -10.51298,-9.3092 z m -0.0401,13.16129 h -3.85208 v -7.50354 h 3.85208 c 3.12982,0 4.4941,1.68529 4.4941,3.77183 0,2.00629 -1.36428,3.73171 -4.4941,3.73171 z"
         data-paper-data="{&quot;glyphName&quot;:&quot;P&quot;,&quot;glyphIndex&quot;:11,&quot;word&quot;:2,&quot;line&quot;:2}"
         id="element-id-16135"
         style="fill:#ffffff" />
      <path
         d="m 321.85363,299.55804 -8.86782,-24.03539 c -0.36113,-0.84264 -0.76239,-1.2439 -1.64516,-1.2439 h -3.85208 c -0.88277,0 -1.32415,0.40126 -1.64516,1.2439 l -8.90794,24.03539 c -0.20063,0.48151 -0.20063,1.12352 0.68214,1.12352 h 4.21322 c 0.88277,0 1.20378,-0.24076 1.52478,-1.20378 l 1.12352,-3.16994 h 9.83084 l 1.12352,3.16994 c 0.32101,0.96302 0.64201,1.20378 1.52478,1.20378 h 4.21322 c 0.88277,0 0.88277,-0.64201 0.68214,-1.12352 z m -15.44846,-8.86782 3.00944,-8.86782 3.00944,8.86782 z"
         data-paper-data="{&quot;glyphName&quot;:&quot;A&quot;,&quot;glyphIndex&quot;:12,&quot;word&quot;:2,&quot;line&quot;:2}"
         id="element-id-3277"
         style="fill:#ffffff" />
      <path
         d="m 354.04795,274.27874 h -3.85208 c -0.72227,0 -1.16365,0.24076 -1.16365,1.16365 v 13.92368 l -8.50668,-13.72305 c -0.52164,-0.80252 -0.80252,-1.36428 -1.80566,-1.36428 h -3.77183 c -0.92289,0 -1.16365,0.44138 -1.16365,1.16365 v 24.07552 c 0,0.92289 0.44138,1.16365 1.16365,1.16365 h 3.97246 c 0.72227,0 1.16365,-0.24076 1.16365,-1.16365 v -13.9638 l 8.50668,13.76317 c 0.52164,0.80252 0.80252,1.36428 1.80566,1.36428 h 3.65145 c 0.92289,0 1.16365,-0.44138 1.16365,-1.16365 v -24.07552 c 0,-0.92289 -0.44138,-1.16365 -1.16365,-1.16365 z"
         data-paper-data="{&quot;glyphName&quot;:&quot;N&quot;,&quot;glyphIndex&quot;:13,&quot;word&quot;:2,&quot;line&quot;:2}"
         id="element-id-25535"
         style="fill:#ffffff" />
      <path
         d="m 389.61284,274.27874 h -4.33359 c -0.92289,0 -1.32415,0.12038 -1.84579,1.20378 l -4.53422,8.62706 -4.69473,-8.62706 c -0.56176,-1.0834 -0.96302,-1.20378 -1.88592,-1.20378 h -4.61447 c -0.76239,0 -0.84264,0.68214 -0.64201,1.12352 l 8.58694,15.36821 v 8.74744 c 0,0.92289 0.40126,1.16365 1.16365,1.16365 h 4.01259 c 0.72227,0 1.16365,-0.24076 1.16365,-1.16365 v -8.74744 l 8.26593,-15.36821 c 0.20063,-0.44138 0.12038,-1.12352 -0.64201,-1.12352 z"
         data-paper-data="{&quot;glyphName&quot;:&quot;Y&quot;,&quot;glyphIndex&quot;:14,&quot;lastGlyphOfWord&quot;:true,&quot;word&quot;:2,&quot;line&quot;:2,&quot;lastGlyphOfSecondLine&quot;:true}"
         id="element-id-29794"
         style="fill:#ffffff" />
    </g>
    <g
       data-paper-data="{&quot;fillRule&quot;:&quot;nonzero&quot;,&quot;fillRuleOriginal&quot;:&quot;nonzero&quot;,&quot;isIcon&quot;:true,&quot;iconStyle&quot;:&quot;standalone&quot;,&quot;selectedEffects&quot;:{&quot;container&quot;:&quot;&quot;,&quot;transformation&quot;:&quot;&quot;,&quot;pattern&quot;:&quot;&quot;},&quot;bounds&quot;:{&quot;x&quot;:231.61657940651756,&quot;y&quot;:151.94429363020106,&quot;width&quot;:86.76711897871994,&quot;height&quot;:73.62115853689662},&quot;iconType&quot;:&quot;initial&quot;,&quot;initialText&quot;:&quot;M&quot;,&quot;rawInitialId&quot;:826,&quot;suitableAsStandaloneIcon&quot;:true}"
       id="element-id-47358"
       style="mix-blend-mode:normal;fill:#ffffff"
       transform="matrix(0.26458333,0,0,0.26458333,-34.71192,-23.389767)">
      <path
         d="m 297.59112,152.56766 c -12.34033,0 -5.50569,-0.18985 -28.76246,-0.18985 -15.85258,0 -13.66929,-0.3797 -25.06036,-0.3797 -12.53018,0 -12.15048,-0.94925 -12.15048,5.12598 0,31.23052 0.28478,19.55468 0.28478,36.07173 0,31.61023 -0.85433,31.895 2.27821,31.895 16.3272,0 15.37795,0.56955 15.37795,-2.75284 0,0 -0.18985,-15.66272 -0.18985,-22.59229 0,-10.72659 0.47463,-20.21916 0.85433,-30.94575 0,-1.80358 -1.70866,-1.99344 13.57436,-1.99344 1.42388,0 1.13911,-3.03762 1.13911,39.86875 0,5.31584 -0.85433,4.4615 15.85258,4.4615 3.51225,0 3.79702,0 3.79702,-7.30927 0,-0.28478 -0.47463,-34.55292 -0.47463,-35.02755 0,-1.51881 0.0949,-1.32896 4.0818,-1.32896 9.87226,0 9.58748,0 9.58748,0 1.04418,0 1.42388,0.3797 1.42388,1.32896 0,34.74277 -0.85433,47.8425 0,54.77207 0.18985,1.80358 0.18985,1.99344 1.61373,1.99344 0.56955,0 6.17017,-0.0949 15.47287,-0.3797 2.27821,-0.0949 2.08836,-0.47463 2.08836,-8.44838 0,0 -0.28478,2.27821 -0.28478,-64.07478 z"
         data-paper-data="{&quot;isPathIcon&quot;:true}"
         id="element-id-30884"
         style="fill:#ffffff" />
    </g>
    <path
       d="m 15.597923,16.336743 c 2.929382,-2.929528 6.293378,-5.197615 10.091968,-6.8042693 3.93285,-1.66344 8.05239,-2.495161 12.35864,-2.495161 4.30613,0 8.42567,0.831721 12.35864,2.495161 3.7986,1.6066513 7.16259,3.8747413 10.09197,6.8042693 2.92951,2.929503 5.19762,6.293493 6.80434,10.091973 1.66334,3.932724 2.49502,8.052267 2.49502,12.358637 0,1.91951 -0.16526,3.80195 -0.49577,5.64731 v -1.13943 l -0.008,-0.11061 -0.0915,-0.60104 -0.0653,-0.19693 c 0.13432,-1.18465 0.20147,-2.38442 0.20147,-3.5993 0,-4.24407 -0.81966,-8.303919 -2.45898,-12.179538 -1.5833,-3.74355 -3.81858,-7.058888 -6.70583,-9.946016 -2.88725,-2.887226 -6.20258,-5.122513 -9.94601,-6.7058643 -3.87562,-1.639234 -7.93547,-2.458853 -12.17954,-2.458853 -4.24408,0 -8.30392,0.819619 -12.17954,2.458853 -3.74343,1.5833513 -7.058769,3.8186383 -9.946018,6.7058643 -2.88725,2.887128 -5.122527,6.202468 -6.7058278,9.946016 -1.639318,3.875622 -2.458979,7.935468 -2.458979,12.179538 0,0.86711 0.03422,1.72653 0.10265,2.57826 l -0.01042,0.0196 -0.04189,0.13781 -0.01416,0.14333 v 2.76877 c -0.330562,-1.84548 -0.495845,-3.72805 -0.495845,-5.64773 0,-4.30625 0.831697,-8.425792 2.495087,-12.358638 1.6067248,-3.798477 3.8748358,-7.162469 6.8043398,-10.091973 z m 34.809248,51.70556 c -3.9326,1.66334 -8.05215,2.49501 -12.35864,2.49501 -4.30625,0 -8.42579,-0.83167 -12.35864,-2.49501 -3.70358,-1.56659 -6.994113,-3.76193 -9.871597,-6.58602 l 0.662009,7.9e-4 c 2.754204,2.62529 5.883768,4.67918 9.388688,6.16167 3.8755,1.63931 7.93535,2.45898 12.17954,2.45898 4.24395,0 8.3038,-0.81967 12.17954,-2.45898 3.48733,-1.47494 6.60306,-3.51566 9.34719,-6.12216 l 0.66278,-5.3e-4 c -2.86779,2.80488 -6.14475,4.98692 -9.83087,6.54612 z"
       data-paper-data="{&quot;isLogoContainer&quot;:true}"
       id="element-id-86055"
       style="mix-blend-mode:normal;fill:#ffffff;stroke-width:0.264583" />
  </g>
</svg>
