<svg xmlns:mydata="http://www.w3.org/2000/svg" mydata:contrastcolor="11111f" mydata:template="Contrast" mydata:presentation="2.5" mydata:layouttype="undefined" mydata:specialfontid="undefined" mydata:id1="004" mydata:id2="063" mydata:companyname="Music Pro" mydata:companytagline="warehouse and distributor" version="1.1" xmlns="http://www.w3.org/2000/svg" xmlns:xlink="http://www.w3.org/1999/xlink" viewBox="0 0 550 470" style="height: 318px;"><g fill="#ffc600" fill-rule="none" stroke="none" stroke-width="1" stroke-linecap="butt" stroke-linejoin="miter" stroke-miterlimit="10" stroke-dasharray="" stroke-dashoffset="0" font-family="none" font-weight="none" font-size="none" text-anchor="none" style="mix-blend-mode: normal"><g data-paper-data="{&quot;isGlobalGroup&quot;:true,&quot;bounds&quot;:{&quot;x&quot;:65.00000000000003,&quot;y&quot;:114.93278983677077,&quot;width&quot;:420,&quot;height&quot;:240.13442032645844}}"><g data-paper-data="{&quot;fillRule&quot;:&quot;nonzero&quot;,&quot;fillRuleOriginal&quot;:&quot;nonzero&quot;,&quot;isIcon&quot;:true,&quot;iconStyle&quot;:&quot;standalone&quot;,&quot;selectedEffects&quot;:{&quot;container&quot;:&quot;&quot;,&quot;transformation&quot;:&quot;&quot;,&quot;pattern&quot;:&quot;&quot;},&quot;bounds&quot;:{&quot;x&quot;:198.98119587795586,&quot;y&quot;:174.52074446583802,&quot;width&quot;:151.3441495328107,&quot;height&quot;:114.82199169635928},&quot;iconType&quot;:&quot;initial&quot;,&quot;initialText&quot;:&quot;M&quot;,&quot;rawInitialId&quot;:826,&quot;suitableAsStandaloneIcon&quot;:false}" fill-rule="evenodd" id="element-id-44851"><path d="M263.8907,175.27693c40.56685,0 28.64562,0.33116 50.17093,0.33116l35.76529,0.16559c0,108.40103 0.43582,111.78886 0.4904,111.78244c0.00241,0 0.00321,-0.00321 0.00482,-0.00722c0.0008,-0.00482 0.00161,-0.00883 0.00161,-0.00883c0,0.62764 0,1.228 0.00161,1.80267h-34.05332c-0.13484,-6.58304 -0.01445,-15.34438 0.1533,-27.5385c0.19423,-14.07601 0.45107,-32.72668 0.45107,-57.88197c0,-1.65579 -0.66216,-2.31811 -2.48409,-2.31811h-16.72327c-0.77051,0 -1.45835,-0.00409 -2.07074,-0.00771c-4.91842,-0.02913 -5.04925,-0.02986 -5.04925,2.32582c0,0.8279 0.8275,60.60203 0.8275,61.09885c0,12.74953 -0.49602,12.74953 -6.62317,12.74953c-19.47648,0 -25.27047,0.66617 -26.97137,-1.66061c-0.84403,-1.15496 -0.68014,-3.04592 -0.68014,-6.12154c0,-62.93996 0.35138,-69.20188 -1.0141,-69.60182c-0.2582,-0.07561 -0.57788,0.05843 -0.97285,0.05843c-24.00539,0 -23.97754,0.26847 -23.73427,2.61909c0.02689,0.25973 0.05634,0.54498 0.05634,0.85807c-0.66232,18.71054 -1.49021,35.26847 -1.49021,53.97886c0,7.92983 0.14254,22.41461 0.24054,31.44161h-30.88583c-0.02243,-3.66634 0.01218,-8.38411 0.05672,-14.45749c0.05372,-7.32305 0.12188,-16.61652 0.12188,-28.40893c0,-28.81096 -0.49674,-8.44463 -0.49674,-62.92038c0,-4.02001 -0.09531,-6.27676 0.97954,-7.52952c1.75855,-2.04963 6.6494,-1.41181 20.2147,-1.41181c19.8696,0 16.06119,0.66232 43.7131,0.66232z" data-paper-data="{&quot;isPathIcon&quot;:true}" id="element-id-56134"></path></g><g><path d="M243.69518,299.26539h-2.279c-0.78341,0 -0.90211,0.52227 -1.06828,0.80715l-3.27607,5.83995l-3.25233,-5.83995c-0.18992,-0.28488 -0.28488,-0.80715 -1.09202,-0.80715h-2.35022c-0.54601,0 -0.68845,0.26114 -0.68845,0.68845v14.26752c0,0.54601 0.26114,0.68845 0.68845,0.68845h2.35022c0.42731,0 0.68845,-0.14244 0.68845,-0.68845v-8.04773l2.3977,4.15444c0.1187,0.18992 0.30862,0.49853 0.66471,0.49853h1.18698c0.35609,0 0.56975,-0.30862 0.68845,-0.49853l2.37396,-4.15444v8.04773c0,0.54601 0.26114,0.68845 0.68845,0.68845h2.279c0.42731,0 0.68845,-0.14244 0.68845,-0.68845v-14.26752c0,-0.42731 -0.14244,-0.68845 -0.68845,-0.68845z" data-paper-data="{&quot;glyphName&quot;:&quot;M&quot;,&quot;glyphIndex&quot;:0,&quot;firstGlyphOfWord&quot;:true,&quot;word&quot;:1,&quot;line&quot;:1,&quot;firstGlyphOfFirstLine&quot;:true}" fill-rule="nonzero" id="element-id-48145"></path><path d="M264.52275,299.28913h-2.35022c-0.42731,0 -0.68845,0.14244 -0.68845,0.68845v9.63829c0,1.4956 -0.99706,2.35022 -2.56388,2.35022c-1.56682,0 -2.54014,-0.85463 -2.54014,-2.35022v-9.63829c0,-0.54601 -0.26114,-0.68845 -0.68845,-0.68845h-2.35022c-0.42731,0 -0.68845,0.14244 -0.68845,0.68845v10.16056c0,3.72712 3.44225,5.12776 6.26726,5.12776c2.82502,0 6.291,-1.40064 6.291,-5.12776v-10.16056c0,-0.54601 -0.26114,-0.68845 -0.68845,-0.68845z" data-paper-data="{&quot;glyphName&quot;:&quot;U&quot;,&quot;glyphIndex&quot;:1,&quot;word&quot;:1,&quot;line&quot;:1}" fill-rule="nonzero" id="element-id-63083"></path><path d="M280.83979,305.84127c-0.94959,-0.37983 -4.43931,-0.90211 -4.43931,-2.35022c0,-1.06828 1.30568,-1.3769 2.08909,-1.3769c0.71219,0 1.56682,0.21366 2.01787,0.64097c0.28488,0.28488 0.40357,0.47479 0.49853,0.71219c0.1187,0.30862 0.18992,0.64097 0.64097,0.64097h2.32648c0.54601,0 0.68845,-0.09496 0.68845,-0.66471c0,-3.13363 -3.29981,-4.51053 -6.31474,-4.51053c-2.96745,0.1187 -5.76873,1.63803 -5.76873,4.72419c0,3.01493 2.20779,3.96452 4.60549,4.72419c2.01787,0.64097 4.1307,0.66471 4.1307,1.99413c0,1.32942 -1.04454,1.61429 -2.32648,1.61429c-0.87837,0 -1.85169,-0.21366 -2.32648,-0.78341c-0.30862,-0.35609 -0.42731,-0.66471 -0.45105,-0.97332c-0.04748,-0.59349 -0.30862,-0.66471 -0.85463,-0.66471h-2.30274c-0.54601,0 -0.68845,0.1187 -0.68845,0.66471c0,3.32355 3.41851,5.0328 6.38596,5.0328c3.6559,0 6.31474,-1.61429 6.31474,-4.98532c0,-3.22859 -2.5164,-3.91704 -4.22565,-4.43931z" data-paper-data="{&quot;glyphName&quot;:&quot;S&quot;,&quot;glyphIndex&quot;:2,&quot;word&quot;:1,&quot;line&quot;:1}" fill-rule="nonzero" id="element-id-19915"></path><path d="M299.57827,311.65748h-1.4956v-9.06854h1.42438c0.54601,0 0.68845,-0.26114 0.68845,-0.68845v-1.92291c0,-0.42731 -0.14244,-0.68845 -0.68845,-0.68845h-6.59962c-0.54601,0 -0.68845,0.26114 -0.68845,0.68845v1.92291c0,0.42731 0.14244,0.68845 0.68845,0.68845h1.44812v9.06854h-1.4956c-0.54601,0 -0.68845,0.26114 -0.68845,0.68845v1.87543c0,0.42731 0.14244,0.68845 0.68845,0.68845h6.71832c0.54601,0 0.68845,-0.26114 0.68845,-0.68845v-1.87543c0,-0.42731 -0.14244,-0.68845 -0.68845,-0.68845z" data-paper-data="{&quot;glyphName&quot;:&quot;I&quot;,&quot;glyphIndex&quot;:3,&quot;word&quot;:1,&quot;line&quot;:1}" fill-rule="nonzero" id="element-id-76975"></path><path d="M320.31088,310.28058c0,-0.56975 -0.18992,-0.80715 -0.71219,-0.80715h-2.32648c-0.52227,0 -0.56975,0.37983 -0.64097,0.85463c-0.18992,1.1395 -1.21072,1.61429 -2.49266,1.61429c-1.56682,0 -2.6351,-0.85463 -2.6351,-2.37396v-4.93784c0,-1.4956 1.06828,-2.37396 2.6351,-2.37396c1.28194,0 1.94665,0.35609 2.44518,1.1395c0.18992,0.28488 0.21366,0.73593 0.71219,0.73593h2.279c0.54601,0 0.73593,-0.1187 0.73593,-0.68845c-0.30862,-3.01493 -3.22859,-4.51053 -6.1723,-4.51053c-2.82502,0 -6.36222,1.63803 -6.36222,5.36516v5.60255c0,3.72712 3.5372,5.36516 6.36222,5.36516c2.94371,0 6.1723,-1.92291 6.1723,-4.98532z" data-paper-data="{&quot;glyphName&quot;:&quot;C&quot;,&quot;glyphIndex&quot;:4,&quot;lastGlyphOfWord&quot;:true,&quot;word&quot;:1,&quot;line&quot;:1,&quot;lastGlyphOfFirstLine&quot;:true}" fill-rule="nonzero" id="element-id-37921"></path><path d="M240.02159,321.36988h-9.15306c-0.93565,0 -1.17973,0.44748 -1.17973,1.17973v24.40816c0,0.93565 0.44748,1.17973 1.17973,1.17973h4.02735c0.73224,0 1.17973,-0.24408 1.17973,-1.17973v-6.75292h3.90531c6.95633,0 10.69891,-3.74258 10.69891,-9.39714c0,-5.61388 -3.66122,-9.43782 -10.65823,-9.43782zM239.98091,334.71301h-3.90531v-7.60721h3.90531c3.17306,0 4.55619,1.70857 4.55619,3.82395c0,2.03401 -1.38313,3.78327 -4.55619,3.78327z" data-paper-data="{&quot;glyphName&quot;:&quot;P&quot;,&quot;glyphIndex&quot;:5,&quot;firstGlyphOfWord&quot;:true,&quot;word&quot;:2,&quot;line&quot;:2,&quot;firstGlyphOfSecondLine&quot;:true}" fill-rule="nonzero" id="element-id-20089"></path><path d="M285.63773,346.83573l-5.73592,-8.33946c2.52218,-0.85429 5.65456,-3.82395 5.65456,-8.09537c0,-2.60354 -0.85429,-4.92231 -2.35946,-6.3868c-1.70857,-1.70857 -3.66122,-2.60354 -8.09537,-2.60354h-10.25143c-0.93565,0 -1.13905,0.44748 -1.13905,1.17973v24.36748c0,0.93565 0.4068,1.17973 1.13905,1.17973h4.02735c0.73224,0 1.17973,-0.24408 1.17973,-1.17973v-19.85197h5.41048c2.11537,0 3.74258,1.34245 3.74258,3.45782c0,1.91197 -1.87129,3.2951 -3.86463,3.2951h-0.81361c-0.93565,0 -1.17973,0.44748 -1.17973,1.17973v3.25442c0,1.13905 0.08136,1.58653 0.44748,2.07469l4.39347,6.54952c0.56952,0.85429 1.05769,1.22041 2.03401,1.22041h4.80027c0.77293,0 0.97633,-0.73224 0.6102,-1.30177z" data-paper-data="{&quot;glyphName&quot;:&quot;R&quot;,&quot;glyphIndex&quot;:6,&quot;word&quot;:2,&quot;line&quot;:2}" fill-rule="nonzero" id="element-id-21305"></path><path d="M320.31088,329.95342c0,-6.42748 -6.10204,-9.19374 -10.94299,-9.19374c-4.84095,0 -10.86163,2.76626 -10.86163,9.19374v9.60054c0,6.42748 6.02068,9.19374 10.86163,9.19374c4.84095,0 10.94299,-2.76626 10.94299,-9.19374zM313.92408,338.98444c0,2.60354 -1.87129,4.10871 -4.55619,4.10871c-2.64422,0 -4.51551,-1.50517 -4.51551,-4.10871v-8.4615c0,-2.60354 1.87129,-4.10871 4.51551,-4.10871c2.6849,0 4.55619,1.50517 4.55619,4.10871z" data-paper-data="{&quot;glyphName&quot;:&quot;O&quot;,&quot;glyphIndex&quot;:7,&quot;lastGlyphOfWord&quot;:true,&quot;word&quot;:2,&quot;line&quot;:2,&quot;lastGlyphOfSecondLine&quot;:true}" fill-rule="nonzero" id="element-id-56098"></path><path d="M148.56298,348.93203h-82.47062c-0.03585,0 -0.07143,-0.00187 -0.10675,-0.00562c-0.03585,-0.00321 -0.07117,-0.00829 -0.10595,-0.01525c-0.03532,-0.00696 -0.07009,-0.01578 -0.10434,-0.02649c-0.03424,-0.01017 -0.06795,-0.02221 -0.10113,-0.03612c-0.03317,-0.01338 -0.06555,-0.02863 -0.09712,-0.04575c-0.03103,-0.01712 -0.06153,-0.03558 -0.0915,-0.05538c-0.02996,-0.0198 -0.05859,-0.04093 -0.08588,-0.06341c-0.02782,-0.02301 -0.05431,-0.04709 -0.07946,-0.07224c-0.02568,-0.02515 -0.04976,-0.05163 -0.07224,-0.07946c-0.02247,-0.02782 -0.04388,-0.05645 -0.06421,-0.08588c-0.0198,-0.02996 -0.03799,-0.06073 -0.05458,-0.0923c-0.01712,-0.03157 -0.03237,-0.06394 -0.04575,-0.09712c-0.01391,-0.03264 -0.02595,-0.06608 -0.03612,-0.10033c-0.0107,-0.03424 -0.01953,-0.06902 -0.02649,-0.10434c-0.00696,-0.03478 -0.01204,-0.07009 -0.01525,-0.10595c-0.00375,-0.03585 -0.00562,-0.07143 -0.00562,-0.10675c0,-0.08989 0.01097,-0.17845 0.03291,-0.26567l6.06937,-24.27667l-6.06937,-24.27667c-0.0091,-0.03478 -0.01605,-0.07009 -0.02087,-0.10595c-0.00535,-0.03532 -0.00883,-0.07063 -0.01043,-0.10595c-0.00214,-0.03585 -0.00214,-0.0717 0,-0.10755c0.00161,-0.03585 0.00508,-0.07143 0.01043,-0.10675c0.00535,-0.03532 0.01231,-0.07036 0.02087,-0.10514c0.00856,-0.03478 0.019,-0.06902 0.0313,-0.10273c0.01177,-0.03371 0.02542,-0.06662 0.04093,-0.09872c0.01552,-0.03264 0.03237,-0.06421 0.05056,-0.09471c0.01819,-0.0305 0.03799,-0.0602 0.05939,-0.08909c0.0214,-0.02889 0.04414,-0.05645 0.06822,-0.08267c0.02408,-0.02675 0.04949,-0.05217 0.07625,-0.07625c0.02622,-0.02354 0.05378,-0.04602 0.08267,-0.06742c0.02889,-0.0214 0.05859,-0.0412 0.08909,-0.05939c0.0305,-0.01873 0.06207,-0.03558 0.09471,-0.05056c0.0321,-0.01552 0.06501,-0.02916 0.09872,-0.04093c0.03371,-0.01231 0.06795,-0.02274 0.10273,-0.0313c0.08722,-0.02194 0.1755,-0.03291 0.26486,-0.03291h82.47062v-5.04283c0,-0.03585 0.00174,-0.07143 0.00522,-0.10675c0.00353,-0.03585 0.00878,-0.07143 0.01573,-0.10675c0.00701,-0.03478 0.0157,-0.06929 0.02608,-0.10354c0.01038,-0.03424 0.02242,-0.06795 0.03612,-0.10113c0.0137,-0.03317 0.02897,-0.06555 0.04583,-0.09712c0.01685,-0.03157 0.03523,-0.06207 0.05514,-0.0915c0.01985,-0.02996 0.04112,-0.05859 0.06381,-0.08588c0.02274,-0.02782 0.04674,-0.05431 0.07199,-0.07946c0.02531,-0.02568 0.0518,-0.04976 0.07946,-0.07224c0.02766,-0.02301 0.05637,-0.04441 0.08612,-0.06421c0.02975,-0.0198 0.06041,-0.03799 0.09198,-0.05458c0.03152,-0.01712 0.06381,-0.03264 0.09688,-0.04655c0.03307,-0.01338 0.06672,-0.02542 0.10097,-0.03612c0.03424,-0.01017 0.06892,-0.01873 0.10402,-0.02568c0.03505,-0.00696 0.07039,-0.01231 0.10603,-0.01605c0.03558,-0.00321 0.07127,-0.00482 0.10707,-0.00482h250.68885c0.03585,0 0.07143,0.00161 0.10675,0.00482c0.03585,0.00375 0.07143,0.0091 0.10675,0.01605c0.03478,0.00696 0.06929,0.01552 0.10354,0.02568c0.03424,0.0107 0.06795,0.02274 0.10113,0.03612c0.03317,0.01391 0.06555,0.02943 0.09712,0.04655c0.03157,0.01659 0.06207,0.03478 0.0915,0.05458c0.02996,0.0198 0.05859,0.0412 0.08588,0.06421c0.02782,0.02247 0.05431,0.04655 0.07946,0.07224c0.02568,0.02515 0.04976,0.05163 0.07224,0.07946c0.02301,0.02729 0.04441,0.05592 0.06421,0.08588c0.0198,0.02943 0.03799,0.05993 0.05458,0.0915c0.01712,0.03157 0.03264,0.06394 0.04655,0.09712c0.01338,0.03317 0.02542,0.06688 0.03612,0.10113c0.01017,0.03424 0.01873,0.06876 0.02568,0.10354c0.00696,0.03532 0.01231,0.0709 0.01605,0.10675c0.00321,0.03532 0.00482,0.0709 0.00482,0.10675v5.04283h82.47022c0.03585,0 0.0717,0.00187 0.10755,0.00562c0.03532,0.00321 0.07063,0.00829 0.10595,0.01525c0.03532,0.00696 0.07009,0.01578 0.10434,0.02649c0.03424,0.01017 0.06769,0.02221 0.10033,0.03612c0.03317,0.01338 0.06555,0.02863 0.09712,0.04575c0.03157,0.01712 0.06234,0.03558 0.0923,0.05538c0.02943,0.0198 0.05806,0.04093 0.08588,0.06341c0.02782,0.02301 0.05431,0.04709 0.07946,0.07224c0.02515,0.02515 0.04923,0.05163 0.07224,0.07946c0.02247,0.02782 0.04361,0.05645 0.06341,0.08588c0.0198,0.02996 0.03826,0.06073 0.05538,0.0923c0.01659,0.03157 0.03184,0.06394 0.04575,0.09712c0.01391,0.03264 0.02595,0.06608 0.03612,0.10033c0.01017,0.03424 0.01873,0.06902 0.02568,0.10434c0.00696,0.03478 0.01231,0.07009 0.01605,0.10595c0.00375,0.03585 0.00562,0.07143 0.00562,0.10675c0,0.08989 -0.01097,0.17845 -0.03291,0.26567l-6.06937,24.27667l6.06937,24.27667c0.01712,0.07009 0.02756,0.14073 0.0313,0.21189c0.00321,0.0717 -0.00027,0.14313 -0.01043,0.2143c-0.0107,0.07117 -0.02809,0.14046 -0.05217,0.20788c-0.02408,0.06742 -0.05458,0.1319 -0.0915,0.19343c-0.03692,0.06153 -0.07946,0.11879 -0.12762,0.17176c-0.04869,0.05297 -0.10166,0.10086 -0.15892,0.14367c-0.05779,0.04281 -0.11905,0.07946 -0.1838,0.10996c-0.06474,0.03103 -0.1319,0.05511 -0.20146,0.07224c-0.08722,0.02194 -0.17577,0.03291 -0.26567,0.03291h-82.47022v5.04283c0,0.03585 -0.00161,0.07143 -0.00482,0.10675c-0.00375,0.03585 -0.0091,0.07143 -0.01605,0.10675c-0.00696,0.03478 -0.01552,0.06929 -0.02568,0.10354c-0.0107,0.03424 -0.02274,0.06795 -0.03612,0.10113c-0.01391,0.03317 -0.02943,0.06555 -0.04655,0.09712c-0.01659,0.03157 -0.03478,0.06207 -0.05458,0.0915c-0.0198,0.02996 -0.0412,0.05859 -0.06421,0.08588c-0.02247,0.02782 -0.04655,0.05431 -0.07224,0.07946c-0.02515,0.02568 -0.05163,0.04976 -0.07946,0.07224c-0.02729,0.02301 -0.05592,0.04441 -0.08588,0.06421c-0.02943,0.0198 -0.05993,0.03799 -0.0915,0.05458c-0.03157,0.01712 -0.06394,0.03264 -0.09712,0.04655c-0.03317,0.01338 -0.06688,0.02542 -0.10113,0.03612c-0.03424,0.01017 -0.06876,0.01873 -0.10354,0.02568c-0.03532,0.00696 -0.0709,0.01231 -0.10675,0.01605c-0.03532,0.00321 -0.0709,0.00482 -0.10675,0.00482h-250.68885c-0.0358,0 -0.07149,-0.00161 -0.10707,-0.00482c-0.03564,-0.00375 -0.07098,-0.0091 -0.10603,-0.01605c-0.0351,-0.00696 -0.06977,-0.01552 -0.10402,-0.02568c-0.03424,-0.0107 -0.0679,-0.02274 -0.10097,-0.03612c-0.03307,-0.01391 -0.06536,-0.02943 -0.09688,-0.04655c-0.03157,-0.01659 -0.06223,-0.03478 -0.09198,-0.05458c-0.02975,-0.0198 -0.05846,-0.0412 -0.08612,-0.06421c-0.02766,-0.02247 -0.05415,-0.04655 -0.07946,-0.07224c-0.02526,-0.02515 -0.04925,-0.05163 -0.07199,-0.07946c-0.02269,-0.02729 -0.04396,-0.05592 -0.06381,-0.08588c-0.0199,-0.02943 -0.03828,-0.05993 -0.05514,-0.0915c-0.01685,-0.03157 -0.03213,-0.06394 -0.04583,-0.09712c-0.0137,-0.03317 -0.02574,-0.06688 -0.03612,-0.10113c-0.01038,-0.03424 -0.01908,-0.06876 -0.02608,-0.10354c-0.00696,-0.03532 -0.0122,-0.0709 -0.01573,-0.10675c-0.00348,-0.03532 -0.00522,-0.0709 -0.00522,-0.10675zM150.74785,347.83967c0,-0.03585 -0.00174,-0.0717 -0.00522,-0.10755c-0.00353,-0.03532 -0.00878,-0.07063 -0.01573,-0.10595c-0.00701,-0.03532 -0.0157,-0.07009 -0.02608,-0.10434c-0.01038,-0.03424 -0.02242,-0.06769 -0.03612,-0.10033c-0.0137,-0.03317 -0.02897,-0.06555 -0.04583,-0.09712c-0.01685,-0.03157 -0.03523,-0.06234 -0.05514,-0.0923c-0.01985,-0.02943 -0.04112,-0.05806 -0.06381,-0.08588c-0.02274,-0.02782 -0.04674,-0.05431 -0.07199,-0.07946c-0.02531,-0.02515 -0.0518,-0.04923 -0.07946,-0.07224c-0.02766,-0.02247 -0.05637,-0.04361 -0.08612,-0.06341c-0.02975,-0.0198 -0.06041,-0.03826 -0.09198,-0.05538c-0.03152,-0.01659 -0.06381,-0.03184 -0.09688,-0.04575c-0.03307,-0.01338 -0.06672,-0.02542 -0.10097,-0.03612c-0.03424,-0.01017 -0.06892,-0.01873 -0.10402,-0.02568c-0.03505,-0.00696 -0.07039,-0.01231 -0.10603,-0.01605c-0.03558,-0.00375 -0.07127,-0.00562 -0.10707,-0.00562h-82.1641l5.79648,-23.18431c0.04441,-0.17658 0.04441,-0.35315 0,-0.52973l-5.79648,-23.18431h82.1641c0.0358,0 0.07149,-0.00187 0.10707,-0.00562c0.03564,-0.00375 0.07098,-0.0091 0.10603,-0.01605c0.0351,-0.00696 0.06977,-0.01552 0.10402,-0.02568c0.03424,-0.0107 0.0679,-0.02274 0.10097,-0.03612c0.03307,-0.01391 0.06536,-0.02916 0.09688,-0.04575c0.03157,-0.01712 0.06223,-0.03558 0.09198,-0.05538c0.02975,-0.0198 0.05846,-0.04093 0.08612,-0.06341c0.02766,-0.02301 0.05415,-0.04709 0.07946,-0.07224c0.02526,-0.02515 0.04925,-0.05163 0.07199,-0.07946c0.02269,-0.02782 0.04396,-0.05645 0.06381,-0.08588c0.0199,-0.02996 0.03828,-0.06073 0.05514,-0.0923c0.01685,-0.03157 0.03213,-0.06394 0.04583,-0.09712c0.0137,-0.03264 0.02574,-0.06608 0.03612,-0.10033c0.01038,-0.03424 0.01908,-0.06902 0.02608,-0.10434c0.00696,-0.03532 0.0122,-0.07063 0.01573,-0.10595c0.00348,-0.03585 0.00522,-0.0717 0.00522,-0.10755v-5.04283h248.50405v5.04283c0,0.03585 0.00161,0.0717 0.00482,0.10755c0.00375,0.03532 0.0091,0.07063 0.01605,0.10595c0.00696,0.03532 0.01552,0.07009 0.02568,0.10434c0.0107,0.03424 0.02274,0.06769 0.03612,0.10033c0.01391,0.03317 0.02943,0.06555 0.04655,0.09712c0.01659,0.03157 0.03478,0.06234 0.05458,0.0923c0.0198,0.02943 0.0412,0.05806 0.06421,0.08588c0.02247,0.02782 0.04655,0.05431 0.07224,0.07946c0.02515,0.02515 0.05163,0.04923 0.07946,0.07224c0.02729,0.02247 0.05592,0.04361 0.08588,0.06341c0.02943,0.0198 0.05993,0.03826 0.0915,0.05538c0.03157,0.01659 0.06394,0.03184 0.09712,0.04575c0.03317,0.01338 0.06688,0.02542 0.10113,0.03612c0.03424,0.01017 0.06876,0.01873 0.10354,0.02568c0.03532,0.00696 0.0709,0.01231 0.10675,0.01605c0.03532,0.00375 0.0709,0.00562 0.10675,0.00562h82.16362l-5.79568,23.18431c-0.04441,0.17658 -0.04441,0.35315 0,0.52973l5.79568,23.18431h-82.16362c-0.03585,0 -0.07143,0.00187 -0.10675,0.00562c-0.03585,0.00375 -0.07143,0.0091 -0.10675,0.01605c-0.03478,0.00696 -0.06929,0.01552 -0.10354,0.02568c-0.03424,0.0107 -0.06795,0.02274 -0.10113,0.03612c-0.03317,0.01391 -0.06555,0.02916 -0.09712,0.04575c-0.03157,0.01712 -0.06207,0.03558 -0.0915,0.05538c-0.02996,0.0198 -0.05859,0.04093 -0.08588,0.06341c-0.02782,0.02301 -0.05431,0.04709 -0.07946,0.07224c-0.02568,0.02515 -0.04976,0.05163 -0.07224,0.07946c-0.02301,0.02782 -0.04441,0.05645 -0.06421,0.08588c-0.0198,0.02996 -0.03799,0.06073 -0.05458,0.0923c-0.01712,0.03157 -0.03264,0.06394 -0.04655,0.09712c-0.01338,0.03264 -0.02542,0.06608 -0.03612,0.10033c-0.01017,0.03424 -0.01873,0.06902 -0.02568,0.10434c-0.00696,0.03532 -0.01231,0.07063 -0.01605,0.10595c-0.00321,0.03585 -0.00482,0.0717 -0.00482,0.10755v5.04283h-248.50405z" fill-rule="evenodd" id="element-id-99220"></path><path d="M148.56298,292.61981v61.35504c0,0.03585 0.00174,0.07143 0.00522,0.10675c0.00353,0.03585 0.00878,0.07143 0.01573,0.10675c0.00701,0.03478 0.0157,0.06929 0.02608,0.10354c0.01038,0.03424 0.02242,0.06795 0.03612,0.10113c0.0137,0.03317 0.02897,0.06555 0.04583,0.09712c0.01685,0.03157 0.03523,0.06207 0.05514,0.0915c0.01985,0.02996 0.04112,0.05859 0.06381,0.08588c0.02274,0.02782 0.04674,0.05431 0.07199,0.07946c0.02531,0.02568 0.0518,0.04976 0.07946,0.07224c0.02766,0.02301 0.05637,0.04441 0.08612,0.06421c0.02975,0.0198 0.06041,0.03799 0.09198,0.05458c0.03152,0.01712 0.06381,0.03264 0.09688,0.04655c0.03307,0.01338 0.06672,0.02542 0.10097,0.03612c0.03424,0.01017 0.06892,0.01873 0.10402,0.02568c0.03505,0.00696 0.07039,0.01231 0.10603,0.01605c0.03558,0.00321 0.07127,0.00482 0.10707,0.00482h250.68885c0.03585,0 0.07143,-0.00161 0.10675,-0.00482c0.03585,-0.00375 0.07143,-0.0091 0.10675,-0.01605c0.03478,-0.00696 0.06929,-0.01552 0.10354,-0.02568c0.03424,-0.0107 0.06795,-0.02274 0.10113,-0.03612c0.03317,-0.01391 0.06555,-0.02943 0.09712,-0.04655c0.03157,-0.01659 0.06207,-0.03478 0.0915,-0.05458c0.02996,-0.0198 0.05859,-0.0412 0.08588,-0.06421c0.02782,-0.02247 0.05431,-0.04655 0.07946,-0.07224c0.02568,-0.02515 0.04976,-0.05163 0.07224,-0.07946c0.02301,-0.02729 0.04441,-0.05592 0.06421,-0.08588c0.0198,-0.02943 0.03799,-0.05993 0.05458,-0.0915c0.01712,-0.03157 0.03264,-0.06394 0.04655,-0.09712c0.01338,-0.03317 0.02542,-0.06688 0.03612,-0.10113c0.01017,-0.03424 0.01873,-0.06876 0.02568,-0.10354c0.00696,-0.03532 0.01231,-0.0709 0.01605,-0.10675c0.00321,-0.03532 0.00482,-0.0709 0.00482,-0.10675v-61.35504c0,-0.03585 -0.00161,-0.07143 -0.00482,-0.10675c-0.00375,-0.03585 -0.0091,-0.07143 -0.01605,-0.10675c-0.00696,-0.03478 -0.01552,-0.06929 -0.02568,-0.10354c-0.0107,-0.03424 -0.02274,-0.06795 -0.03612,-0.10113c-0.01391,-0.03317 -0.02943,-0.06555 -0.04655,-0.09712c-0.01659,-0.03157 -0.03478,-0.06207 -0.05458,-0.0915c-0.0198,-0.02996 -0.0412,-0.05859 -0.06421,-0.08588c-0.02247,-0.02782 -0.04655,-0.05431 -0.07224,-0.07946c-0.02515,-0.02568 -0.05163,-0.04976 -0.07946,-0.07224c-0.02729,-0.02301 -0.05592,-0.04441 -0.08588,-0.06421c-0.02943,-0.0198 -0.05993,-0.03799 -0.0915,-0.05458c-0.03157,-0.01712 -0.06394,-0.03264 -0.09712,-0.04655c-0.03317,-0.01338 -0.06688,-0.02542 -0.10113,-0.03612c-0.03424,-0.01017 -0.06876,-0.01873 -0.10354,-0.02568c-0.03532,-0.00696 -0.0709,-0.01231 -0.10675,-0.01605c-0.03532,-0.00321 -0.0709,-0.00482 -0.10675,-0.00482h-250.68885c-0.0358,0 -0.07149,0.00161 -0.10707,0.00482c-0.03564,0.00375 -0.07098,0.0091 -0.10603,0.01605c-0.0351,0.00696 -0.06977,0.01552 -0.10402,0.02568c-0.03424,0.0107 -0.0679,0.02274 -0.10097,0.03612c-0.03307,0.01391 -0.06536,0.02943 -0.09688,0.04655c-0.03157,0.01659 -0.06223,0.03478 -0.09198,0.05458c-0.02975,0.0198 -0.05846,0.0412 -0.08612,0.06421c-0.02766,0.02247 -0.05415,0.04655 -0.07946,0.07224c-0.02526,0.02515 -0.04925,0.05163 -0.07199,0.07946c-0.02269,0.02729 -0.04396,0.05592 -0.06381,0.08588c-0.0199,0.02943 -0.03828,0.05993 -0.05514,0.0915c-0.01685,0.03157 -0.03213,0.06394 -0.04583,0.09712c-0.0137,0.03317 -0.02574,0.06688 -0.03612,0.10113c-0.01038,0.03424 -0.01908,0.06876 -0.02608,0.10354c-0.00696,0.03532 -0.0122,0.0709 -0.01573,0.10675c-0.00348,0.03532 -0.00522,0.0709 -0.00522,0.10675zM150.74785,352.88249v-59.17033h248.50405v59.17033z" fill-rule="evenodd" id="element-id-10120"></path></g><g data-paper-data="{&quot;isSecondaryText&quot;:true}" fill-rule="nonzero" id="element-id-40158"><path d="M166.24424,256.07016l0.55964,2.6751l-8.02035,3.91937l8.92082,0.38486l0.5519,2.63808l-12.1331,5.91984l-0.54415,-2.60105l7.93057,-3.79431l-8.80199,-0.37107l-0.54028,-2.58254l7.96675,-3.8985l-8.85366,-0.34094l-0.54028,-2.58254z" data-paper-data="{&quot;glyphName&quot;:&quot;W&quot;,&quot;glyphIndex&quot;:0,&quot;firstGlyphOfWord&quot;:true,&quot;word&quot;:1}" id="element-id-42559"></path><path d="M165.02223,247.83155l-13.21579,-3.92475l-0.10723,-3.46899l12.94785,-4.74299l0.08444,2.73171l-2.62921,0.95172l0.15574,5.03807l2.68239,0.7686zM159.89994,243.7323l-0.10899,-3.5257l-5.35236,1.92526z" data-paper-data="{&quot;glyphName&quot;:&quot;A&quot;,&quot;glyphIndex&quot;:1,&quot;word&quot;:1}" id="element-id-18828"></path><path d="M165.9751,221.78506l-5.35037,2.65952l-0.17736,1.34064l4.91256,0.6499l-0.34975,2.64378l-12.97517,-1.71652l0.62385,-4.71569c0.22077,-1.66877 0.68221,-2.84941 1.38433,-3.54192c0.70212,-0.69251 1.73757,-0.94822 3.10633,-0.76715c1.10626,0.14635 1.95673,0.49575 2.55138,1.0482c0.59466,0.55245 0.92598,1.26879 0.99395,2.14903l5.68084,-2.77797zM156.90731,221.0338c-0.66251,-0.08765 -1.12838,0.02084 -1.39762,0.32545c-0.26924,0.30461 -0.45471,0.8413 -0.55641,1.61006l-0.27162,2.05315l3.45942,0.45766l0.25673,-1.94065c0.07855,-0.59376 0.08266,-1.05745 0.01233,-1.39109c-0.07033,-0.33364 -0.21495,-0.58648 -0.43385,-0.75853c-0.2189,-0.17205 -0.57523,-0.29073 -1.06898,-0.35605z" data-paper-data="{&quot;glyphName&quot;:&quot;R&quot;,&quot;glyphIndex&quot;:2,&quot;word&quot;:1}" id="element-id-4668"></path><path d="M167.79122,212.10904l-12.58382,-3.59846l2.33744,-8.17403l2.264,0.64741l-1.60423,5.60998l2.68224,0.76701l1.35202,-4.72802l2.27309,0.65001l-1.35202,4.72802l3.01866,0.86321l1.60423,-5.60998l2.34583,0.67081z" data-paper-data="{&quot;glyphName&quot;:&quot;E&quot;,&quot;glyphIndex&quot;:3,&quot;word&quot;:1}" id="element-id-45166"></path><path d="M175.93336,189.88531l-5.05144,-2.32448l-2.15449,4.68203l5.05144,2.32448l-1.1148,2.42263l-11.88979,-5.47123l1.1148,-2.42263l4.6219,2.12682l2.15449,-4.68203l-4.6219,-2.12682l1.11876,-2.43122l11.88979,5.47123z" data-paper-data="{&quot;glyphName&quot;:&quot;H&quot;,&quot;glyphIndex&quot;:4,&quot;word&quot;:1}" id="element-id-11854"></path><path d="M181.46279,168.192c1.8847,1.27585 3.02743,2.62995 3.4282,4.06227c0.40077,1.43233 0.08693,2.90811 -0.94153,4.42736c-1.08501,1.60278 -2.37752,2.4465 -3.87756,2.53116c-1.50003,0.08467 -3.1428,-0.47735 -4.9283,-1.68606c-1.79594,-1.21577 -2.93063,-2.53396 -3.40405,-3.95456c-0.47342,-1.4206 -0.16763,-2.93229 0.91738,-4.53507c1.09207,-1.61322 2.38375,-2.46132 3.87503,-2.5443c1.49128,-0.08298 3.13489,0.48342 4.93083,1.69919zM179.9201,170.47086c-1.28431,-0.86942 -2.34295,-1.32151 -3.17591,-1.35626c-0.83297,-0.03476 -1.54279,0.38119 -2.12947,1.24784c-0.58668,0.86665 -0.70917,1.68019 -0.36746,2.44064c0.34171,0.76044 1.15472,1.57537 2.43903,2.44479c1.28431,0.86942 2.34471,1.3189 3.18121,1.34843c0.8365,0.02954 1.54456,-0.3838 2.12417,-1.24001c0.58668,-0.86665 0.70917,-1.68019 0.36746,-2.44064c-0.34171,-0.76044 -1.15472,-1.57537 -2.43903,-2.44479z" data-paper-data="{&quot;glyphName&quot;:&quot;O&quot;,&quot;glyphIndex&quot;:5,&quot;word&quot;:1}" id="element-id-75031"></path><path d="M194.84562,154.71328c1.48449,1.4123 2.26423,2.72845 2.33923,3.94844c0.075,1.22 -0.5502,2.52656 -1.87559,3.9197c-1.31235,1.37943 -2.57947,2.06876 -3.80136,2.068c-1.22188,-0.00077 -2.58192,-0.71382 -4.08011,-2.13915l-5.5223,-5.25375l1.83816,-1.93212l5.38527,5.12339c0.64404,0.61272 1.20971,1.03341 1.69702,1.26207c0.48731,0.22866 0.94594,0.29081 1.3759,0.18645c0.42996,-0.10436 0.89046,-0.41461 1.3815,-0.93076c0.69963,-0.73539 0.99324,-1.43503 0.88082,-2.0989c-0.11242,-0.66387 -0.63453,-1.43905 -1.56633,-2.32554l-5.41267,-5.14946l1.83816,-1.93212z" data-paper-data="{&quot;glyphName&quot;:&quot;U&quot;,&quot;glyphIndex&quot;:6,&quot;word&quot;:1}" id="element-id-62511"></path><path d="M209.85974,144.58931c0.79558,1.04243 1.06361,2.10285 0.80408,3.18125c-0.25953,1.0784 -1.05585,2.12632 -2.38896,3.14375c-0.92215,0.70379 -1.83943,1.16196 -2.75184,1.37452c-0.91241,0.21256 -1.8417,0.14061 -2.78788,-0.21586l0.6789,-2.49293c0.50066,0.1572 0.92376,0.23876 1.26931,0.24469c0.34555,0.00593 0.70251,-0.05633 1.07087,-0.18678c0.36836,-0.13045 0.7455,-0.34293 1.1314,-0.63745c0.57635,-0.43987 0.9506,-0.88213 1.12277,-1.3268c0.17217,-0.44467 0.10335,-0.86998 -0.20647,-1.27593c-0.17595,-0.23054 -0.37959,-0.38046 -0.61092,-0.44976c-0.23134,-0.0693 -0.5028,-0.07427 -0.81438,-0.01492c-0.31159,0.05936 -0.80099,0.22865 -1.46821,0.50788c-0.65219,0.26775 -1.27401,0.51035 -1.86546,0.72778c-0.59145,0.21744 -1.15122,0.34129 -1.67931,0.37158c-0.52808,0.03028 -1.02815,-0.05599 -1.50018,-0.25883c-0.47204,-0.20283 -0.9146,-0.57488 -1.32769,-1.11615c-0.75351,-0.9873 -1.00831,-2.01221 -0.76441,-3.07472c0.2439,-1.06251 0.9873,-2.06805 2.2302,-3.01663c1.7992,-1.37315 3.54264,-1.72824 5.23031,-1.06527l-0.65239,2.49649c-0.62226,-0.22301 -1.18398,-0.29395 -1.68516,-0.21283c-0.50118,0.08112 -0.99734,0.30911 -1.48849,0.68395c-0.49115,0.37484 -0.82294,0.76884 -0.99537,1.18199c-0.17243,0.41315 -0.1133,0.81017 0.17739,1.19106c0.25627,0.33578 0.61267,0.47024 1.06921,0.40336c0.45653,-0.06688 1.15208,-0.31419 2.08664,-0.74193c0.529,-0.22132 1.05969,-0.43005 1.59205,-0.62619c0.53237,-0.19613 1.05758,-0.30552 1.57564,-0.32815c0.51806,-0.02263 1.02518,0.07808 1.52135,0.30215c0.49617,0.22407 0.97184,0.6343 1.42701,1.23069z" data-paper-data="{&quot;glyphName&quot;:&quot;S&quot;,&quot;glyphIndex&quot;:7,&quot;word&quot;:1}" id="element-id-54342"></path><path d="M218.26011,143.66902l-6.29584,-11.47448l7.45344,-4.08957l1.13271,2.06441l-5.11543,2.80674l1.34196,2.44579l4.31122,-2.36549l1.13725,2.0727l-4.31122,2.36549l1.51027,2.75255l5.11543,-2.80674l1.17365,2.13903z" data-paper-data="{&quot;glyphName&quot;:&quot;E&quot;,&quot;glyphIndex&quot;:8,&quot;lastGlyphOfWord&quot;:true,&quot;word&quot;:1}" id="element-id-60389"></path><path d="M240.81665,133.38453l0.82689,-13.76143l3.35439,-0.89078l7.5545,11.5357l-2.64146,0.70146l-1.52292,-2.34504l-4.87163,1.29369l-0.14056,2.78679zM243.6481,127.46636l3.40923,-0.90534l-3.0884,-4.77663z" data-paper-data="{&quot;glyphName&quot;:&quot;A&quot;,&quot;glyphIndex&quot;:9,&quot;firstGlyphOfWord&quot;:true,&quot;word&quot;:2}" id="element-id-22076"></path><path d="M266.4184,128.40787l-5.64862,-8.84785l0.90474,9.30892l-2.59784,0.25249l-1.26609,-13.02683l3.44496,-0.33482l5.26795,8.35278l-0.85351,-8.78182l2.60725,-0.2534l1.26609,13.02683z" data-paper-data="{&quot;glyphName&quot;:&quot;N&quot;,&quot;glyphIndex&quot;:10,&quot;word&quot;:2}" id="element-id-95253"></path><path d="M287.92358,122.1473c-0.10472,1.57265 -0.40594,2.82261 -0.90366,3.74988c-0.49772,0.92727 -1.19823,1.57882 -2.10153,1.95465c-0.9033,0.37583 -2.14756,0.51096 -3.73279,0.40541l-3.98195,-0.26515l0.86959,-13.05929l3.94421,0.26264c1.5412,0.10262 2.75142,0.40752 3.63068,0.91468c0.87925,0.50716 1.50438,1.24856 1.87539,2.2242c0.37101,0.97564 0.50437,2.24664 0.40007,3.813zM285.17898,121.94559c0.07582,-1.1386 0.02039,-1.99055 -0.16627,-2.55585c-0.18666,-0.5653 -0.53939,-0.98527 -1.05817,-1.25992c-0.51878,-0.27465 -1.30344,-0.44695 -2.35397,-0.5169l-1.01908,-0.06786l-0.54538,8.19037l1.01908,0.06786c1.05053,0.06995 1.84964,0.00153 2.39732,-0.20526c0.54768,-0.20679 0.9536,-0.58573 1.21777,-1.1368c0.26416,-0.55107 0.43373,-1.38962 0.50871,-2.51564z" data-paper-data="{&quot;glyphName&quot;:&quot;D&quot;,&quot;glyphIndex&quot;:11,&quot;lastGlyphOfWord&quot;:true,&quot;word&quot;:2}" id="element-id-65520"></path><path d="M316.1885,128.91831c-0.48943,1.49822 -1.08969,2.63524 -1.80077,3.41108c-0.71108,0.77583 -1.55067,1.23444 -2.51876,1.37583c-0.96809,0.14139 -2.20724,-0.03459 -3.71744,-0.52794l-3.79349,-1.23924l4.06422,-12.4412l3.75753,1.22749c1.46825,0.47964 2.56587,1.07365 3.29284,1.78204c0.72697,0.70838 1.14989,1.58108 1.26876,2.61809c0.11887,1.03701 -0.06543,2.30163 -0.5529,3.79385zM313.57848,128.04579c0.35435,-1.08471 0.5108,-1.924 0.46935,-2.51788c-0.04145,-0.59388 -0.27967,-1.08788 -0.71467,-1.48202c-0.435,-0.39414 -1.15291,-0.75467 -2.15372,-1.08161l-0.97085,-0.31715l-2.54895,7.80272l0.97085,0.31715c1.00081,0.32694 1.7921,0.45776 2.37387,0.39246c0.58177,-0.0653 1.06862,-0.33239 1.46056,-0.80127c0.39194,-0.46888 0.76312,-1.23968 1.11355,-2.31241z" data-paper-data="{&quot;glyphName&quot;:&quot;D&quot;,&quot;glyphIndex&quot;:12,&quot;firstGlyphOfWord&quot;:true,&quot;word&quot;:3}" id="element-id-83092"></path><path d="M326.20463,140.56348l-5.67693,-2.77106l0.90018,-1.84415l1.64019,0.80062l3.94088,-8.07348l-1.64019,-0.80062l0.90018,-1.84415l5.67693,2.77106l-0.90018,1.84415l-1.63169,-0.79647l-3.94088,8.07348l1.63169,0.79647z" data-paper-data="{&quot;glyphName&quot;:&quot;I&quot;,&quot;glyphIndex&quot;:13,&quot;word&quot;:3}" id="element-id-17512"></path><path d="M342.65984,146.3915c-0.7295,1.0897 -1.64646,1.68595 -2.75087,1.78874c-1.10442,0.10279 -2.35341,-0.31227 -3.74697,-1.24519c-0.96397,-0.64533 -1.69392,-1.36539 -2.18986,-2.16019c-0.49594,-0.7948 -0.72807,-1.69751 -0.69641,-2.70812l2.57857,-0.16291c0.01298,0.52459 0.07249,0.95136 0.17852,1.28029c0.10603,0.32893 0.28028,0.64663 0.52274,0.9531c0.24246,0.30647 0.56539,0.59473 0.96879,0.86478c0.60248,0.40333 1.14194,0.61463 1.61839,0.63391c0.47645,0.01928 0.85671,-0.18326 1.1408,-0.60762c0.16133,-0.24099 0.23742,-0.48215 0.22827,-0.72347c-0.00915,-0.24132 -0.09215,-0.49983 -0.24899,-0.77553c-0.15684,-0.2757 -0.47517,-0.68417 -0.95498,-1.2254c-0.4641,-0.53071 -0.89458,-1.04081 -1.29143,-1.53029c-0.39686,-0.48949 -0.69492,-0.97922 -0.89419,-1.4692c-0.19927,-0.48998 -0.27918,-0.9911 -0.23972,-1.50335c0.03945,-0.51225 0.24857,-1.05128 0.62735,-1.61709c0.69092,-1.03207 1.57854,-1.60434 2.66287,-1.71678c1.08433,-0.11245 2.27612,0.26622 3.57538,1.13601c1.88079,1.25909 2.78009,2.79431 2.69793,4.60567l-2.57338,0.18914c0.01001,-0.66094 -0.10433,-1.21545 -0.34302,-1.66355c-0.23869,-0.44809 -0.61475,-0.84399 -1.12817,-1.1877c-0.51342,-0.34371 -0.99348,-0.53041 -1.44018,-0.56012c-0.4467,-0.02971 -0.80333,0.15452 -1.06987,0.55268c-0.23498,0.35101 -0.24708,0.73174 -0.03629,1.14218c0.21079,0.41044 0.66955,0.98879 1.37628,1.73504c0.38036,0.42913 0.74935,0.86392 1.10696,1.30437c0.35761,0.44045 0.63081,0.90216 0.8196,1.38513c0.18879,0.48297 0.25731,0.99543 0.20556,1.53739c-0.05175,0.54196 -0.2863,1.12465 -0.70366,1.74809z" data-paper-data="{&quot;glyphName&quot;:&quot;S&quot;,&quot;glyphIndex&quot;:14,&quot;word&quot;:3}" id="element-id-80405"></path><path d="M357.2432,149.72275l-7.1538,7.88737l-1.97535,-1.79163l7.1538,-7.88737l-2.98403,-2.7065l1.63915,-1.80723l7.94341,7.20463l-1.63915,1.80723z" data-paper-data="{&quot;glyphName&quot;:&quot;T&quot;,&quot;glyphIndex&quot;:15,&quot;word&quot;:3}" id="element-id-84159"></path><path d="M362.30526,170.96611l1.77179,-5.70616l-0.84707,-1.05416l-3.8628,3.10393l-1.67044,-2.07884l10.20252,-8.19817l2.97954,3.708c1.05439,1.31217 1.58954,2.46128 1.60545,3.44733c0.01591,0.98605 -0.51427,1.91149 -1.59055,2.77633c-0.86987,0.69898 -1.70991,1.07272 -2.52014,1.12124c-0.81023,0.04852 -1.55711,-0.20661 -2.24064,-0.76537l-1.91436,6.02696zM369.11111,164.92712c0.52094,-0.4186 0.76423,-0.83044 0.72988,-1.23553c-0.03435,-0.40509 -0.29439,-0.90988 -0.78012,-1.51436l-1.29725,-1.61442l-2.72018,2.18578l1.22617,1.52595c0.37516,0.46688 0.70767,0.7901 0.99753,0.96965c0.28986,0.17956 0.57259,0.24959 0.8482,0.21011c0.2756,-0.03949 0.60753,-0.21522 0.99578,-0.52719z" data-paper-data="{&quot;glyphName&quot;:&quot;R&quot;,&quot;glyphIndex&quot;:16,&quot;word&quot;:3}" id="element-id-59773"></path><path d="M371.10639,184.06324l-3.26114,-5.41029l1.75754,-1.05938l0.94222,1.56315l7.69428,-4.63785l-0.94222,-1.56315l1.75754,-1.05938l3.26114,5.41029l-1.75754,1.05938l-0.93733,-1.55505l-7.69428,4.63785l0.93733,1.55505z" data-paper-data="{&quot;glyphName&quot;:&quot;I&quot;,&quot;glyphIndex&quot;:17,&quot;word&quot;:3}" id="element-id-34217"></path><path d="M381.96686,198.45371c-1.20752,0.5114 -2.26718,0.47064 -3.17898,-0.12227c-0.9118,-0.59291 -1.67995,-1.62664 -2.30445,-3.10121l-1.91774,-4.52818l12.05194,-5.10414l1.80341,4.25823c0.654,1.54423 0.89741,2.74542 0.73024,3.60358c-0.16717,0.85816 -0.73841,1.49377 -1.71371,1.90682c-0.74889,0.31716 -1.43239,0.39267 -2.05048,0.22653c-0.61809,-0.16614 -1.16901,-0.60208 -1.65276,-1.30781c0.28847,1.06914 0.28081,1.9402 -0.02299,2.61317c-0.3038,0.67297 -0.8853,1.19139 -1.74449,1.55527zM385.8466,193.11341c0.45862,-0.19423 0.70517,-0.4972 0.73963,-0.9089c0.03446,-0.4117 -0.09828,-0.97168 -0.39824,-1.67993l-0.66383,-1.56745l-2.58629,1.09532l0.63433,1.49778c0.30733,0.72567 0.63696,1.22109 0.9889,1.48626c0.35194,0.26517 0.78044,0.29081 1.2855,0.07691zM381.12242,195.85359c0.5399,-0.22865 0.84415,-0.57318 0.91277,-1.03357c0.06861,-0.4604 -0.10975,-1.19276 -0.5351,-2.19709l-0.7044,-1.66324l-3.01298,1.27603l0.52738,1.24525c0.40568,0.95789 0.73179,1.59858 0.97834,1.92207c0.24655,0.3235 0.51516,0.52126 0.80584,0.59328c0.29068,0.07202 0.63339,0.02444 1.02816,-0.14274z" data-paper-data="{&quot;glyphName&quot;:&quot;B&quot;,&quot;glyphIndex&quot;:18,&quot;word&quot;:3}" id="element-id-22197"></path><path d="M388.64795,215.9382c-1.98963,0.48954 -3.51852,0.43721 -4.58667,-0.157c-1.06815,-0.59421 -1.83193,-1.82491 -2.29134,-3.6921c-0.4549,-1.84883 -0.35282,-3.2877 0.30623,-4.31661c0.65905,-1.02891 1.99257,-1.7904 4.00057,-2.28446l7.40144,-1.82109l0.63715,2.58959l-7.21778,1.7759c-0.8632,0.21238 -1.5224,0.46223 -1.97761,0.74953c-0.45521,0.2873 -0.75469,0.64017 -0.89846,1.0586c-0.14376,0.41843 -0.13054,0.97354 0.03967,1.66532c0.24251,0.98563 0.67368,1.60996 1.29351,1.87298c0.61983,0.26302 1.55418,0.24089 2.80306,-0.06639l7.25451,-1.78494l0.63715,2.58959z" data-paper-data="{&quot;glyphName&quot;:&quot;U&quot;,&quot;glyphIndex&quot;:19,&quot;word&quot;:3}" id="element-id-63098"></path><path d="M395.59498,229.68566l-10.61168,0.8831l-0.22117,-2.65763l10.61168,-0.8831l-0.3341,-4.01472l2.43145,-0.20234l0.88937,10.68707l-2.43145,0.20234z" data-paper-data="{&quot;glyphName&quot;:&quot;T&quot;,&quot;glyphIndex&quot;:20,&quot;word&quot;:3}" id="element-id-90640"></path><path d="M391.12318,251.97542c-2.27059,-0.15595 -3.93902,-0.7524 -5.00528,-1.78934c-1.06627,-1.03694 -1.53655,-2.47057 -1.41083,-4.30088c0.13263,-1.93094 0.8261,-3.30991 2.08043,-4.13691c1.25433,-0.827 2.95703,-1.16663 5.10811,-1.01888c2.16366,0.14861 3.80709,0.71806 4.93027,1.70836c1.12319,0.9903 1.61847,2.45092 1.48584,4.38186c-0.13349,1.94352 -0.82404,3.32585 -2.07164,4.147c-1.2476,0.82114 -2.95324,1.15741 -5.1169,1.0088zM391.31175,249.22995c1.54727,0.10627 2.68971,-0.03486 3.42733,-0.42339c0.73762,-0.38853 1.14228,-1.10485 1.214,-2.14894c0.07171,-1.04409 -0.23122,-1.80901 -0.90878,-2.29474c-0.67757,-0.48574 -1.78999,-0.78174 -3.33726,-0.88801c-1.54727,-0.10627 -2.68993,0.038 -3.42798,0.43283c-0.73805,0.39482 -1.1425,1.10799 -1.21335,2.13951c-0.07171,1.04409 0.23122,1.80901 0.90878,2.29474c0.67757,0.48574 1.78999,0.78174 3.33726,0.88801z" data-paper-data="{&quot;glyphName&quot;:&quot;O&quot;,&quot;glyphIndex&quot;:21,&quot;word&quot;:3}" id="element-id-41758"></path><path d="M381.80685,265.7876l5.59101,-2.10716l0.31147,-1.31596l-4.82213,-1.14134l0.61423,-2.59512l12.73632,3.01453l-1.0956,4.62888c-0.38771,1.63805 -0.96571,2.76622 -1.734,3.38449c-0.7683,0.61828 -1.82423,0.76841 -3.1678,0.4504c-1.0859,-0.25702 -1.89685,-0.69029 -2.43285,-1.29982c-0.536,-0.60953 -0.79349,-1.3556 -0.77247,-2.23821l-5.93173,2.19172zM390.75287,267.44826c0.65031,0.15392 1.12474,0.09291 1.42329,-0.18304c0.29855,-0.27595 0.53713,-0.79123 0.71573,-1.54584l0.47701,-2.01536l-3.39574,-0.80373l-0.45087,1.90493c-0.13795,0.58283 -0.18874,1.04375 -0.15236,1.38278c0.03637,0.33902 0.15479,0.60515 0.35525,0.79836c0.20046,0.19322 0.54302,0.34718 1.02769,0.4619z" data-paper-data="{&quot;glyphName&quot;:&quot;R&quot;,&quot;glyphIndex&quot;:22,&quot;lastGlyphOfWord&quot;:true,&quot;word&quot;:3}" id="element-id-16114"></path></g></g></g><rect data-element-id="element-id-40158" stroke-width="2" fill="transparent" class="invisible-element-box grouping-element" x="152" y="115" width="247" height="157" data-element-name="isSecondaryText"></rect><rect data-element-id="element-id-99220" stroke-width="2" fill="transparent" class="invisible-element-box individual-element" x="65" y="292" width="420" height="64"></rect><rect data-element-id="element-id-44851" stroke-width="2" fill="transparent" class="invisible-element-box grouping-element" x="199" y="175" width="151" height="115" data-element-name="isIcon"></rect><rect data-element-id="element-id-56134" stroke-width="2" fill="transparent" class="invisible-element-box individual-element" x="199" y="175" width="151" height="115"></rect><rect data-element-id="element-id-10120" stroke-width="2" fill="transparent" class="invisible-element-box individual-element" x="149" y="292" width="253" height="64"></rect><rect data-element-id="element-id-56098" stroke-width="2" fill="transparent" class="invisible-element-box individual-element" x="299" y="321" width="22" height="28"></rect><rect data-element-id="element-id-21305" stroke-width="2" fill="transparent" class="invisible-element-box individual-element" x="264" y="321" width="22" height="27"></rect><rect data-element-id="element-id-20089" stroke-width="2" fill="transparent" class="invisible-element-box individual-element" x="230" y="321" width="21" height="27"></rect><rect data-element-id="element-id-42559" stroke-width="2" fill="transparent" class="invisible-element-box individual-element" x="153" y="255" width="16" height="16"></rect><rect data-element-id="element-id-48145" stroke-width="2" fill="transparent" class="invisible-element-box individual-element" x="230" y="299" width="15" height="16"></rect><rect data-element-id="element-id-11854" stroke-width="2" fill="transparent" class="invisible-element-box individual-element" x="161" y="182" width="16" height="15"></rect><rect data-element-id="element-id-59773" stroke-width="2" fill="transparent" class="invisible-element-box individual-element" x="358" y="157" width="15" height="16"></rect><rect data-element-id="element-id-62511" stroke-width="2" fill="transparent" class="invisible-element-box individual-element" x="182" y="149" width="15" height="15"></rect><rect data-element-id="element-id-60389" stroke-width="2" fill="transparent" class="invisible-element-box individual-element" x="212" y="128" width="14" height="16"></rect><rect data-element-id="element-id-63083" stroke-width="2" fill="transparent" class="invisible-element-box individual-element" x="253" y="299" width="13" height="16"></rect><rect data-element-id="element-id-19915" stroke-width="2" fill="transparent" class="invisible-element-box individual-element" x="272" y="299" width="13" height="16"></rect><rect data-element-id="element-id-37921" stroke-width="2" fill="transparent" class="invisible-element-box individual-element" x="308" y="299" width="13" height="16"></rect><rect data-element-id="element-id-84159" stroke-width="2" fill="transparent" class="invisible-element-box individual-element" x="348" y="143" width="14" height="14"></rect><rect data-element-id="element-id-22197" stroke-width="2" fill="transparent" class="invisible-element-box individual-element" x="375" y="186" width="15" height="13"></rect><rect data-element-id="element-id-63098" stroke-width="2" fill="transparent" class="invisible-element-box individual-element" x="381" y="204" width="15" height="13"></rect><rect data-element-id="element-id-75031" stroke-width="2" fill="transparent" class="invisible-element-box individual-element" x="172" y="166" width="14" height="13"></rect><rect data-element-id="element-id-54342" stroke-width="2" fill="transparent" class="invisible-element-box individual-element" x="198" y="139" width="13" height="14"></rect><rect data-element-id="element-id-80405" stroke-width="2" fill="transparent" class="invisible-element-box individual-element" x="333" y="134" width="13" height="14"></rect><rect data-element-id="element-id-45166" stroke-width="2" fill="transparent" class="invisible-element-box individual-element" x="155" y="200" width="15" height="12"></rect><rect data-element-id="element-id-22076" stroke-width="2" fill="transparent" class="invisible-element-box individual-element" x="241" y="119" width="12" height="15"></rect><rect data-element-id="element-id-16114" stroke-width="2" fill="transparent" class="invisible-element-box individual-element" x="381" y="259" width="15" height="12"></rect><rect data-element-id="element-id-95253" stroke-width="2" fill="transparent" class="invisible-element-box individual-element" x="258" y="115" width="12" height="14"></rect><rect data-element-id="element-id-83092" stroke-width="2" fill="transparent" class="invisible-element-box individual-element" x="304" y="119" width="12" height="14"></rect><rect data-element-id="element-id-34217" stroke-width="2" fill="transparent" class="invisible-element-box individual-element" x="368" y="172" width="14" height="12"></rect><rect data-element-id="element-id-17512" stroke-width="2" fill="transparent" class="invisible-element-box individual-element" x="321" y="126" width="11" height="15"></rect><rect data-element-id="element-id-18828" stroke-width="2" fill="transparent" class="invisible-element-box individual-element" x="152" y="236" width="13" height="12"></rect><rect data-element-id="element-id-4668" stroke-width="2" fill="transparent" class="invisible-element-box individual-element" x="152" y="218" width="14" height="11"></rect><rect data-element-id="element-id-90640" stroke-width="2" fill="transparent" class="invisible-element-box individual-element" x="385" y="223" width="14" height="11"></rect><rect data-element-id="element-id-41758" stroke-width="2" fill="transparent" class="invisible-element-box individual-element" x="385" y="241" width="14" height="11"></rect><rect data-element-id="element-id-65520" stroke-width="2" fill="transparent" class="invisible-element-box individual-element" x="277" y="115" width="11" height="13"></rect><rect data-element-id="element-id-76975" stroke-width="2" fill="transparent" class="invisible-element-box individual-element" x="292" y="299" width="8" height="16"></rect></svg>