<svg xmlns:mydata="http://www.w3.org/2000/svg" mydata:contrastcolor="11111f" mydata:template="Contrast" mydata:presentation="2.5" mydata:layouttype="undefined" mydata:specialfontid="undefined" mydata:id1="004" mydata:id2="063" mydata:companyname="Music Pro Company" mydata:companytagline="warehouse and distributor" version="1.1" xmlns="http://www.w3.org/2000/svg" xmlns:xlink="http://www.w3.org/1999/xlink" style="height: 758px;" viewBox="0 0 550 470"><g fill="#ffc600" fill-rule="nonzero" stroke="none" stroke-width="1" stroke-linecap="butt" stroke-linejoin="miter" stroke-miterlimit="10" stroke-dasharray="" stroke-dashoffset="0" font-family="none" font-weight="none" font-size="none" text-anchor="none" style="mix-blend-mode: normal"><g data-paper-data="{&quot;isGlobalGroup&quot;:true,&quot;bounds&quot;:{&quot;x&quot;:155,&quot;y&quot;:115,&quot;width&quot;:240,&quot;height&quot;:240}}"><g data-paper-data="{&quot;isSecondaryText&quot;:true}" id="element-id-15366"><path d="M170.25577,317.88863h-1.56016l-1.25244,-4.93959l-1.25784,4.93959h-1.53856l-1.88946,-7.47147h1.51697l1.19306,4.87481l1.23625,-4.87481h1.50617l1.24705,4.9072l1.22545,-4.9072h1.50617z" data-paper-data="{&quot;glyphName&quot;:&quot;W&quot;,&quot;glyphIndex&quot;:0,&quot;firstGlyphOfWord&quot;:true,&quot;word&quot;:1}" id="element-id-55820"></path><path d="M174.54035,317.88863l2.4725,-7.47147h1.98124l2.47789,7.47147h-1.56016l-0.49666,-1.51697h-2.87738l-0.48586,1.51697zM176.96966,315.03824h2.01363l-1.00411,-3.08792z" data-paper-data="{&quot;glyphName&quot;:&quot;A&quot;,&quot;glyphIndex&quot;:1,&quot;word&quot;:1}" id="element-id-97085"></path><path d="M188.92546,317.88863l-1.90566,-2.8288h-0.77198v2.8288h-1.52237v-7.47147h2.71543c0.96093,0 1.66363,0.17275 2.1081,0.51825c0.44447,0.3455 0.66671,0.91234 0.66671,1.70052c0,0.63702 -0.13406,1.14447 -0.40219,1.52237c-0.26812,0.37789 -0.64872,0.61902 -1.14178,0.72339l1.99743,3.00694zM188.67173,312.70071c0,-0.38149 -0.09627,-0.63702 -0.28882,-0.76658c-0.19255,-0.12956 -0.51015,-0.19434 -0.95283,-0.19434h-1.18226v1.99203h1.11748c0.3419,0 0.60463,-0.03239 0.78818,-0.09717c0.18355,-0.06478 0.31581,-0.16555 0.39679,-0.30231c0.08098,-0.13676 0.12147,-0.3473 0.12147,-0.63162z" data-paper-data="{&quot;glyphName&quot;:&quot;R&quot;,&quot;glyphIndex&quot;:2,&quot;word&quot;:1}" id="element-id-28620"></path><path d="M193.96042,317.88863v-7.47147h4.85322v1.34422h-3.33085v1.59255h2.8072v1.34962h-2.8072v1.79229h3.33085v1.3928z" data-paper-data="{&quot;glyphName&quot;:&quot;E&quot;,&quot;glyphIndex&quot;:3,&quot;word&quot;:1}" id="element-id-640"></path><path d="M206.93113,317.88863v-3.1743h-2.94216v3.1743h-1.52237v-7.47147h1.52237v2.90437h2.94216v-2.90437h1.52777v7.47147z" data-paper-data="{&quot;glyphName&quot;:&quot;H&quot;,&quot;glyphIndex&quot;:4,&quot;word&quot;:1}" id="element-id-55116"></path><path d="M218.46585,314.15289c0,1.29923 -0.27442,2.27275 -0.82327,2.92057c-0.54884,0.64782 -1.34692,0.97172 -2.39422,0.97172c-1.10489,0 -1.91735,-0.341 -2.43741,-1.02301c-0.52005,-0.68201 -0.78008,-1.63843 -0.78008,-2.86928c0,-1.23805 0.26003,-2.19628 0.78008,-2.87468c0.52005,-0.67841 1.33252,-1.01761 2.43741,-1.01761c1.11208,0 1.92635,0.3392 2.4428,1.01761c0.51645,0.67841 0.77468,1.63663 0.77468,2.87468zM216.8949,314.15289c0,-0.88535 -0.12506,-1.53046 -0.37519,-1.93535c-0.25013,-0.40488 -0.67391,-0.60733 -1.27134,-0.60733c-0.59743,0 -1.02121,0.20244 -1.27134,0.60733c-0.25013,0.40488 -0.37519,1.05 -0.37519,1.93535c0,0.88535 0.12686,1.53046 0.38059,1.93535c0.25373,0.40488 0.67571,0.60733 1.26594,0.60733c0.59743,0 1.02121,-0.20244 1.27134,-0.60733c0.25013,-0.40488 0.37519,-1.05 0.37519,-1.93535z" data-paper-data="{&quot;glyphName&quot;:&quot;O&quot;,&quot;glyphIndex&quot;:5,&quot;word&quot;:1}" id="element-id-84550"></path><path d="M228.18669,314.76832c0,1.16967 -0.23753,2.01003 -0.7126,2.52108c-0.47506,0.51105 -1.26144,0.76658 -2.35913,0.76658c-1.08689,0 -1.87057,-0.25283 -2.35103,-0.75848c-0.48046,-0.50566 -0.72069,-1.34872 -0.72069,-2.52918v-4.35116h1.52237v4.24319c0,0.50746 0.04859,0.90694 0.14576,1.19846c0.09717,0.29152 0.25193,0.50566 0.46427,0.64242c0.21234,0.13676 0.52185,0.20514 0.92854,0.20514c0.57944,0 0.98432,-0.15386 1.21465,-0.46157c0.23033,-0.30771 0.3455,-0.82866 0.3455,-1.56286v-4.26479h1.52237z" data-paper-data="{&quot;glyphName&quot;:&quot;U&quot;,&quot;glyphIndex&quot;:6,&quot;word&quot;:1}" id="element-id-5945"></path><path d="M237.48104,315.72385c0,0.74859 -0.24563,1.32262 -0.73689,1.72211c-0.49126,0.39949 -1.21555,0.59923 -2.17288,0.59923c-0.66221,0 -1.23715,-0.10977 -1.72481,-0.32931c-0.48766,-0.21954 -0.88445,-0.57404 -1.19036,-1.0635l1.17147,-0.89615c0.17275,0.24473 0.3365,0.42828 0.49126,0.55064c0.15476,0.12237 0.3383,0.21774 0.55064,0.28612c0.21234,0.06838 0.45707,0.10257 0.73419,0.10257c0.41388,0 0.73689,-0.07108 0.96902,-0.21324c0.23213,-0.14216 0.3482,-0.359 0.3482,-0.65051c0,-0.16555 -0.04049,-0.30411 -0.12147,-0.41568c-0.08098,-0.11157 -0.20244,-0.20784 -0.3644,-0.28882c-0.16195,-0.08098 -0.44267,-0.17365 -0.84216,-0.27802c-0.38869,-0.10437 -0.75489,-0.20964 -1.09859,-0.31581c-0.3437,-0.10617 -0.64062,-0.24383 -0.89075,-0.41298c-0.25013,-0.16915 -0.44717,-0.38149 -0.59113,-0.63702c-0.14396,-0.25553 -0.21594,-0.57764 -0.21594,-0.96633c0,-0.709 0.23933,-1.26234 0.718,-1.66003c0.47866,-0.39769 1.16427,-0.59653 2.05681,-0.59653c1.29203,0 2.20617,0.44267 2.74242,1.32802l-1.16067,0.90694c-0.20514,-0.31671 -0.43548,-0.54345 -0.691,-0.68021c-0.25553,-0.13676 -0.55964,-0.20514 -0.91234,-0.20514c-0.3527,0 -0.63972,0.06388 -0.86106,0.19165c-0.22134,0.12776 -0.33201,0.32841 -0.33201,0.60193c0,0.24113 0.11517,0.42558 0.3455,0.55334c0.23033,0.12776 0.63162,0.25643 1.20386,0.38599c0.31671,0.08278 0.62982,0.17185 0.93933,0.26722c0.30951,0.09537 0.58573,0.22764 0.82866,0.39679c0.24293,0.16915 0.43818,0.39049 0.58573,0.66401c0.14756,0.27352 0.22134,0.62442 0.22134,1.0527z" data-paper-data="{&quot;glyphName&quot;:&quot;S&quot;,&quot;glyphIndex&quot;:7,&quot;word&quot;:1}" id="element-id-88011"></path><path d="M241.04763,317.88863v-7.47147h4.85322v1.34422h-3.33085v1.59255h2.8072v1.34962h-2.8072v1.79229h3.33085v1.3928z" data-paper-data="{&quot;glyphName&quot;:&quot;E&quot;,&quot;glyphIndex&quot;:8,&quot;lastGlyphOfWord&quot;:true,&quot;word&quot;:1}" id="element-id-91070"></path><path d="M253.84918,317.88863l2.4725,-7.47147h1.98124l2.47789,7.47147h-1.56016l-0.49666,-1.51697h-2.87738l-0.48586,1.51697zM256.27849,315.03824h2.01363l-1.00411,-3.08792z" data-paper-data="{&quot;glyphName&quot;:&quot;A&quot;,&quot;glyphIndex&quot;:9,&quot;firstGlyphOfWord&quot;:true,&quot;word&quot;:2}" id="element-id-77827"></path><path d="M268.24509,317.88863l-2.72083,-5.33908v5.33908h-1.48998v-7.47147h1.97584l2.53188,5.03677v-5.03677h1.49537v7.47147z" data-paper-data="{&quot;glyphName&quot;:&quot;N&quot;,&quot;glyphIndex&quot;:10,&quot;word&quot;:2}" id="element-id-48226"></path><path d="M279.76901,314.15289c0,0.89974 -0.12416,1.62314 -0.37249,2.17018c-0.24833,0.54704 -0.62262,0.94473 -1.12288,1.19306c-0.50026,0.24833 -1.20386,0.37249 -2.1108,0.37249h-2.27815v-7.47147h2.25656c0.88175,0 1.58265,0.12776 2.1027,0.38329c0.52005,0.25553 0.90424,0.65411 1.15257,1.19576c0.24833,0.54165 0.37249,1.26054 0.37249,2.15669zM278.19806,314.1421c0,-0.65141 -0.06388,-1.13458 -0.19165,-1.44949c-0.12776,-0.31491 -0.3446,-0.54075 -0.65051,-0.67751c-0.30591,-0.13676 -0.75938,-0.20514 -1.36041,-0.20514h-0.58303v4.68587h0.58303c0.60103,0 1.0536,-0.06928 1.35771,-0.20784c0.30411,-0.13856 0.52095,-0.36979 0.65051,-0.6937c0.12956,-0.32391 0.19434,-0.80797 0.19434,-1.45219z" data-paper-data="{&quot;glyphName&quot;:&quot;D&quot;,&quot;glyphIndex&quot;:11,&quot;lastGlyphOfWord&quot;:true,&quot;word&quot;:2}" id="element-id-3346"></path><path d="M294.11993,314.15289c0,0.89974 -0.12416,1.62314 -0.37249,2.17018c-0.24833,0.54704 -0.62262,0.94473 -1.12288,1.19306c-0.50026,0.24833 -1.20386,0.37249 -2.1108,0.37249h-2.27815v-7.47147h2.25656c0.88175,0 1.58265,0.12776 2.1027,0.38329c0.52005,0.25553 0.90424,0.65411 1.15257,1.19576c0.24833,0.54165 0.37249,1.26054 0.37249,2.15669zM292.54897,314.1421c0,-0.65141 -0.06388,-1.13458 -0.19165,-1.44949c-0.12776,-0.31491 -0.3446,-0.54075 -0.65051,-0.67751c-0.30591,-0.13676 -0.75938,-0.20514 -1.36041,-0.20514h-0.58303v4.68587h0.58303c0.60103,0 1.0536,-0.06928 1.35771,-0.20784c0.30411,-0.13856 0.52095,-0.36979 0.65051,-0.6937c0.12956,-0.32391 0.19434,-0.80797 0.19434,-1.45219z" data-paper-data="{&quot;glyphName&quot;:&quot;D&quot;,&quot;glyphIndex&quot;:12,&quot;firstGlyphOfWord&quot;:true,&quot;word&quot;:3}" id="element-id-25681"></path><path d="M301.04436,317.88863h-3.60617v-1.17147h1.0419v-5.12854h-1.0419v-1.17147h3.60617v1.17147h-1.03651v5.12854h1.03651z" data-paper-data="{&quot;glyphName&quot;:&quot;I&quot;,&quot;glyphIndex&quot;:13,&quot;word&quot;:3}" id="element-id-42883"></path><path d="M310.07959,315.72385c0,0.74859 -0.24563,1.32262 -0.73689,1.72211c-0.49126,0.39949 -1.21555,0.59923 -2.17288,0.59923c-0.66221,0 -1.23715,-0.10977 -1.72481,-0.32931c-0.48766,-0.21954 -0.88445,-0.57404 -1.19036,-1.0635l1.17147,-0.89615c0.17275,0.24473 0.3365,0.42828 0.49126,0.55064c0.15476,0.12237 0.3383,0.21774 0.55064,0.28612c0.21234,0.06838 0.45707,0.10257 0.73419,0.10257c0.41388,0 0.73689,-0.07108 0.96902,-0.21324c0.23213,-0.14216 0.3482,-0.359 0.3482,-0.65051c0,-0.16555 -0.04049,-0.30411 -0.12147,-0.41568c-0.08098,-0.11157 -0.20244,-0.20784 -0.3644,-0.28882c-0.16195,-0.08098 -0.44267,-0.17365 -0.84216,-0.27802c-0.38869,-0.10437 -0.75489,-0.20964 -1.09859,-0.31581c-0.3437,-0.10617 -0.64062,-0.24383 -0.89075,-0.41298c-0.25013,-0.16915 -0.44717,-0.38149 -0.59113,-0.63702c-0.14396,-0.25553 -0.21594,-0.57764 -0.21594,-0.96633c0,-0.709 0.23933,-1.26234 0.718,-1.66003c0.47866,-0.39769 1.16427,-0.59653 2.05681,-0.59653c1.29203,0 2.20617,0.44267 2.74242,1.32802l-1.16067,0.90694c-0.20514,-0.31671 -0.43548,-0.54345 -0.691,-0.68021c-0.25553,-0.13676 -0.55964,-0.20514 -0.91234,-0.20514c-0.3527,0 -0.63972,0.06388 -0.86106,0.19165c-0.22134,0.12776 -0.33201,0.32841 -0.33201,0.60193c0,0.24113 0.11517,0.42558 0.3455,0.55334c0.23033,0.12776 0.63162,0.25643 1.20386,0.38599c0.31671,0.08278 0.62982,0.17185 0.93933,0.26722c0.30951,0.09537 0.58573,0.22764 0.82866,0.39679c0.24293,0.16915 0.43818,0.39049 0.58573,0.66401c0.14756,0.27352 0.22134,0.62442 0.22134,1.0527z" data-paper-data="{&quot;glyphName&quot;:&quot;S&quot;,&quot;glyphIndex&quot;:14,&quot;word&quot;:3}" id="element-id-36062"></path><path d="M316.62612,311.80996v6.07867h-1.52237v-6.07867h-2.29975v-1.3928h6.12186v1.3928z" data-paper-data="{&quot;glyphName&quot;:&quot;T&quot;,&quot;glyphIndex&quot;:15,&quot;word&quot;:3}" id="element-id-26626"></path><path d="M326.42793,317.88863l-1.90566,-2.8288h-0.77198v2.8288h-1.52237v-7.47147h2.71543c0.96093,0 1.66363,0.17275 2.1081,0.51825c0.44447,0.3455 0.66671,0.91234 0.66671,1.70052c0,0.63702 -0.13406,1.14447 -0.40219,1.52237c-0.26812,0.37789 -0.64872,0.61902 -1.14178,0.72339l1.99743,3.00694zM326.17421,312.70071c0,-0.38149 -0.09627,-0.63702 -0.28882,-0.76658c-0.19255,-0.12956 -0.51015,-0.19434 -0.95283,-0.19434h-1.18226v1.99203h1.11748c0.3419,0 0.60463,-0.03239 0.78818,-0.09717c0.18355,-0.06478 0.31581,-0.16555 0.39679,-0.30231c0.08098,-0.13676 0.12147,-0.3473 0.12147,-0.63162z" data-paper-data="{&quot;glyphName&quot;:&quot;R&quot;,&quot;glyphIndex&quot;:16,&quot;word&quot;:3}" id="element-id-60750"></path><path d="M334.80995,317.88863h-3.60617v-1.17147h1.0419v-5.12854h-1.0419v-1.17147h3.60617v1.17147h-1.03651v5.12854h1.03651z" data-paper-data="{&quot;glyphName&quot;:&quot;I&quot;,&quot;glyphIndex&quot;:17,&quot;word&quot;:3}" id="element-id-49089"></path><path d="M344.19608,315.72385c0,0.74859 -0.25733,1.29653 -0.77198,1.64383c-0.51465,0.3473 -1.22905,0.52095 -2.14319,0.52095h-2.8072v-7.47147h2.63985c0.95733,0 1.64293,0.13946 2.05681,0.41838c0.41388,0.27892 0.62082,0.72069 0.62082,1.32532c0,0.46427 -0.11247,0.84036 -0.3374,1.12828c-0.22494,0.28792 -0.57674,0.48046 -1.0554,0.57764c0.62622,0.08638 1.08239,0.28432 1.36851,0.59383c0.28612,0.30951 0.42918,0.73059 0.42918,1.26324zM342.25263,312.49557c0,-0.28432 -0.10437,-0.48136 -0.31311,-0.59113c-0.20874,-0.10977 -0.53265,-0.16465 -0.97172,-0.16465h-0.97172v1.60334h0.92854c0.44987,0 0.78368,-0.06298 1.00142,-0.18895c0.21774,-0.12596 0.32661,-0.3455 0.32661,-0.65861zM342.64132,315.58889c0,-0.3347 -0.11337,-0.57134 -0.3401,-0.7099c-0.22674,-0.13856 -0.65141,-0.20784 -1.27404,-0.20784h-1.03111v1.86787h0.77198c0.59383,0 1.00321,-0.02879 1.22815,-0.08638c0.22494,-0.05758 0.38869,-0.15476 0.49126,-0.29152c0.10257,-0.13676 0.15386,-0.32751 0.15386,-0.57224z" data-paper-data="{&quot;glyphName&quot;:&quot;B&quot;,&quot;glyphIndex&quot;:18,&quot;word&quot;:3}" id="element-id-97477"></path><path d="M353.92771,314.76832c0,1.16967 -0.23753,2.01003 -0.7126,2.52108c-0.47506,0.51105 -1.26144,0.76658 -2.35913,0.76658c-1.08689,0 -1.87057,-0.25283 -2.35103,-0.75848c-0.48046,-0.50566 -0.72069,-1.34872 -0.72069,-2.52918v-4.35116h1.52237v4.24319c0,0.50746 0.04859,0.90694 0.14576,1.19846c0.09717,0.29152 0.25193,0.50566 0.46427,0.64242c0.21234,0.13676 0.52185,0.20514 0.92854,0.20514c0.57944,0 0.98432,-0.15386 1.21465,-0.46157c0.23033,-0.30771 0.3455,-0.82866 0.3455,-1.56286v-4.26479h1.52237z" data-paper-data="{&quot;glyphName&quot;:&quot;U&quot;,&quot;glyphIndex&quot;:19,&quot;word&quot;:3}" id="element-id-26480"></path><path d="M361.05188,311.80996v6.07867h-1.52237v-6.07867h-2.29975v-1.3928h6.12186v1.3928z" data-paper-data="{&quot;glyphName&quot;:&quot;T&quot;,&quot;glyphIndex&quot;:20,&quot;word&quot;:3}" id="element-id-29701"></path><path d="M372.46784,314.15289c0,1.29923 -0.27442,2.27275 -0.82327,2.92057c-0.54884,0.64782 -1.34692,0.97172 -2.39422,0.97172c-1.10489,0 -1.91735,-0.341 -2.43741,-1.02301c-0.52005,-0.68201 -0.78008,-1.63843 -0.78008,-2.86928c0,-1.23805 0.26003,-2.19628 0.78008,-2.87468c0.52005,-0.67841 1.33252,-1.01761 2.43741,-1.01761c1.11208,0 1.92635,0.3392 2.4428,1.01761c0.51645,0.67841 0.77468,1.63663 0.77468,2.87468zM370.89688,314.15289c0,-0.88535 -0.12506,-1.53046 -0.37519,-1.93535c-0.25013,-0.40488 -0.67391,-0.60733 -1.27134,-0.60733c-0.59743,0 -1.02121,0.20244 -1.27134,0.60733c-0.25013,0.40488 -0.37519,1.05 -0.37519,1.93535c0,0.88535 0.12686,1.53046 0.38059,1.93535c0.25373,0.40488 0.67571,0.60733 1.26594,0.60733c0.59743,0 1.02121,-0.20244 1.27134,-0.60733c0.25013,-0.40488 0.37519,-1.05 0.37519,-1.93535z" data-paper-data="{&quot;glyphName&quot;:&quot;O&quot;,&quot;glyphIndex&quot;:21,&quot;word&quot;:3}" id="element-id-74196"></path><path d="M380.24522,317.88863l-1.90566,-2.8288h-0.77198v2.8288h-1.52237v-7.47147h2.71543c0.96093,0 1.66363,0.17275 2.1081,0.51825c0.44447,0.3455 0.66671,0.91234 0.66671,1.70052c0,0.63702 -0.13406,1.14447 -0.40219,1.52237c-0.26812,0.37789 -0.64872,0.61902 -1.14178,0.72339l1.99743,3.00694zM379.99149,312.70071c0,-0.38149 -0.09627,-0.63702 -0.28882,-0.76658c-0.19255,-0.12956 -0.51015,-0.19434 -0.95283,-0.19434h-1.18226v1.99203h1.11748c0.3419,0 0.60463,-0.03239 0.78818,-0.09717c0.18355,-0.06478 0.31581,-0.16555 0.39679,-0.30231c0.08098,-0.13676 0.12147,-0.3473 0.12147,-0.63162z" data-paper-data="{&quot;glyphName&quot;:&quot;R&quot;,&quot;glyphIndex&quot;:22,&quot;lastGlyphOfWord&quot;:true,&quot;word&quot;:3}" id="element-id-69695"></path></g><g data-paper-data="{&quot;stacked&quot;:true,&quot;isPrimaryText&quot;:true}" id="element-id-58782"><path d="M179.49956,244.9058h-3.22952c-1.11015,0 -1.27835,0.7401 -1.51384,1.14379l-4.64243,8.27563l-4.60879,-8.27563c-0.26913,-0.40369 -0.40369,-1.14379 -1.54748,-1.14379h-3.33044c-0.77374,0 -0.97558,0.37005 -0.97558,0.97558v20.21811c0,0.77374 0.37005,0.97558 0.97558,0.97558h3.33044c0.60553,0 0.97558,-0.20184 0.97558,-0.97558v-11.40423l3.39772,5.88714c0.1682,0.26913 0.43733,0.70646 0.94194,0.70646h1.68204c0.50461,0 0.80738,-0.43733 0.97558,-0.70646l3.36408,-5.88714v11.40423c0,0.77374 0.37005,0.97558 0.97558,0.97558h3.22952c0.60553,0 0.97558,-0.20184 0.97558,-0.97558v-20.21811c0,-0.60553 -0.20184,-0.97558 -0.97558,-0.97558z" data-paper-data="{&quot;glyphName&quot;:&quot;M&quot;,&quot;glyphIndex&quot;:0,&quot;firstGlyphOfWord&quot;:true,&quot;word&quot;:1,&quot;line&quot;:1,&quot;firstGlyphOfFirstLine&quot;:true}" id="element-id-17153"></path><path d="M209.01374,244.93944h-3.33044c-0.60553,0 -0.97558,0.20184 -0.97558,0.97558v13.65816c0,2.11937 -1.41291,3.33044 -3.6332,3.33044c-2.22029,0 -3.59956,-1.21107 -3.59956,-3.33044v-13.65816c0,-0.77374 -0.37005,-0.97558 -0.97558,-0.97558h-3.33044c-0.60553,0 -0.97558,0.20184 -0.97558,0.97558v14.39826c0,5.2816 4.87791,7.26641 8.88117,7.26641c4.00325,0 8.91481,-1.98481 8.91481,-7.26641v-14.39826c0,-0.77374 -0.37005,-0.97558 -0.97558,-0.97558z" data-paper-data="{&quot;glyphName&quot;:&quot;U&quot;,&quot;glyphIndex&quot;:1,&quot;word&quot;:1,&quot;line&quot;:1}" id="element-id-13332"></path><path d="M232.13617,254.22429c-1.34563,-0.53825 -6.29083,-1.27835 -6.29083,-3.33044c0,-1.51384 1.85024,-1.95117 2.96039,-1.95117c1.00922,0 2.22029,0.30277 2.85947,0.9083c0.40369,0.40369 0.57189,0.67282 0.70646,1.00922c0.1682,0.43733 0.26913,0.9083 0.9083,0.9083h3.2968c0.77374,0 0.97558,-0.13456 0.97558,-0.94194c0,-4.44058 -4.67607,-6.39175 -8.94845,-6.39175c-4.2051,0.1682 -8.17471,2.32121 -8.17471,6.69452c0,4.27238 3.12859,5.61801 6.52631,6.69452c2.85947,0.9083 5.8535,0.94194 5.8535,2.82583c0,1.88388 -1.48019,2.28757 -3.2968,2.28757c-1.24471,0 -2.62398,-0.30277 -3.2968,-1.11015c-0.43733,-0.50461 -0.60553,-0.94194 -0.63917,-1.37927c-0.06728,-0.84102 -0.43733,-0.94194 -1.21107,-0.94194h-3.26316c-0.77374,0 -0.97558,0.1682 -0.97558,0.94194c0,4.70971 4.84427,7.13185 9.04937,7.13185c5.18068,0 8.94845,-2.28757 8.94845,-7.06456c0,-4.57515 -3.56592,-5.55073 -5.98806,-6.29083z" data-paper-data="{&quot;glyphName&quot;:&quot;S&quot;,&quot;glyphIndex&quot;:2,&quot;word&quot;:1,&quot;line&quot;:1}" id="element-id-82893"></path><path d="M258.68997,262.46629h-2.11937v-12.85078h2.01845c0.77374,0 0.97558,-0.37005 0.97558,-0.97558v-2.7249c0,-0.60553 -0.20184,-0.97558 -0.97558,-0.97558h-9.35214c-0.77374,0 -0.97558,0.37005 -0.97558,0.97558v2.7249c0,0.60553 0.20184,0.97558 0.97558,0.97558h2.05209v12.85078h-2.11937c-0.77374,0 -0.97558,0.37005 -0.97558,0.97558v2.65762c0,0.60553 0.20184,0.97558 0.97558,0.97558h9.52034c0.77374,0 0.97558,-0.37005 0.97558,-0.97558v-2.65762c0,-0.60553 -0.20184,-0.97558 -0.97558,-0.97558z" data-paper-data="{&quot;glyphName&quot;:&quot;I&quot;,&quot;glyphIndex&quot;:3,&quot;word&quot;:1,&quot;line&quot;:1}" id="element-id-40283"></path><path d="M288.06958,260.51512c0,-0.80738 -0.26913,-1.14379 -1.00922,-1.14379h-3.2968c-0.7401,0 -0.80738,0.53825 -0.9083,1.21107c-0.26913,1.61476 -1.71568,2.28757 -3.53228,2.28757c-2.22029,0 -3.73413,-1.21107 -3.73413,-3.36408v-6.99728c0,-2.11937 1.51384,-3.36408 3.73413,-3.36408c1.8166,0 2.75854,0.50461 3.465,1.61476c0.26913,0.40369 0.30277,1.04286 1.00922,1.04286h3.22952c0.77374,0 1.04286,-0.1682 1.04286,-0.97558c-0.43733,-4.27238 -4.57515,-6.39175 -8.7466,-6.39175c-4.00325,0 -9.01573,2.32121 -9.01573,7.60282v7.93922c0,5.2816 5.01248,7.60282 9.01573,7.60282c4.17146,0 8.7466,-2.7249 8.7466,-7.06456z" data-paper-data="{&quot;glyphName&quot;:&quot;C&quot;,&quot;glyphIndex&quot;:4,&quot;lastGlyphOfWord&quot;:true,&quot;word&quot;:1,&quot;line&quot;:1}" id="element-id-9751"></path><path d="M323.95309,244.93944h-7.56918c-0.77374,0 -0.97558,0.37005 -0.97558,0.97558v20.18447c0,0.77374 0.37005,0.97558 0.97558,0.97558h3.33044c0.60553,0 0.97558,-0.20184 0.97558,-0.97558v-5.58437h3.22952c5.75257,0 8.84753,-3.09495 8.84753,-7.77102c0,-4.64243 -3.02767,-7.80466 -8.81389,-7.80466zM323.91945,255.97361h-3.22952v-6.29083h3.22952c2.62398,0 3.76777,1.41291 3.76777,3.16223c0,1.68204 -1.14379,3.12859 -3.76777,3.12859z" data-paper-data="{&quot;glyphName&quot;:&quot;P&quot;,&quot;glyphIndex&quot;:5,&quot;firstGlyphOfWord&quot;:true,&quot;word&quot;:2,&quot;line&quot;:1}" id="element-id-44027"></path><path d="M361.67562,265.99857l-4.74335,-6.89636c2.08573,-0.70646 4.67607,-3.16223 4.67607,-6.69452c0,-2.15301 -0.70646,-4.07053 -1.95117,-5.2816c-1.41291,-1.41291 -3.02767,-2.15301 -6.69452,-2.15301h-8.47748c-0.77374,0 -0.94194,0.37005 -0.94194,0.97558v20.15083c0,0.77374 0.33641,0.97558 0.94194,0.97558h3.33044c0.60553,0 0.97558,-0.20184 0.97558,-0.97558v-16.4167h4.47422c1.74932,0 3.09495,1.11015 3.09495,2.85947c0,1.58112 -1.54748,2.7249 -3.19587,2.7249h-0.67282c-0.77374,0 -0.97558,0.37005 -0.97558,0.97558v2.69126c0,0.94194 0.06728,1.31199 0.37005,1.71568l3.6332,5.41617c0.47097,0.70646 0.87466,1.00922 1.68204,1.00922h3.96961c0.63917,0 0.80738,-0.60553 0.50461,-1.07651z" data-paper-data="{&quot;glyphName&quot;:&quot;R&quot;,&quot;glyphIndex&quot;:6,&quot;word&quot;:2,&quot;line&quot;:1}" id="element-id-90742"></path><path d="M390.34878,252.03764c0,-5.31524 -5.04612,-7.60282 -9.04937,-7.60282c-4.00325,0 -8.98209,2.28757 -8.98209,7.60282v7.93922c0,5.31524 4.97884,7.60282 8.98209,7.60282c4.00325,0 9.04937,-2.28757 9.04937,-7.60282zM385.06718,259.5059c0,2.15301 -1.54748,3.39772 -3.76777,3.39772c-2.18665,0 -3.73413,-1.24471 -3.73413,-3.39772v-6.99728c0,-2.15301 1.54748,-3.39772 3.73413,-3.39772c2.22029,0 3.76777,1.24471 3.76777,3.39772z" data-paper-data="{&quot;glyphName&quot;:&quot;O&quot;,&quot;glyphIndex&quot;:7,&quot;lastGlyphOfWord&quot;:true,&quot;word&quot;:2,&quot;line&quot;:1,&quot;lastGlyphOfFirstLine&quot;:true}" id="element-id-9983"></path><path d="M180.83796,292.85702c0,-0.96302 -0.32101,-1.36428 -1.20378,-1.36428h-3.93233c-0.88277,0 -0.96302,0.64201 -1.0834,1.44453c-0.32101,1.92604 -2.04642,2.72856 -4.21322,2.72856c-2.64831,0 -4.45397,-1.44453 -4.45397,-4.01259v-8.34618c0,-2.52793 1.80566,-4.01259 4.45397,-4.01259c2.1668,0 3.29032,0.60189 4.13296,1.92604c0.32101,0.48151 0.36113,1.2439 1.20378,1.2439h3.85208c0.92289,0 1.2439,-0.20063 1.2439,-1.16365c-0.52164,-5.09599 -5.45712,-7.62391 -10.43273,-7.62391c-4.77498,0 -10.75373,2.76868 -10.75373,9.06845v9.4697c0,6.29976 5.97875,9.06845 10.75373,9.06845c4.97561,0 10.43273,-3.2502 10.43273,-8.42643z" data-paper-data="{&quot;glyphName&quot;:&quot;C&quot;,&quot;glyphIndex&quot;:8,&quot;firstGlyphOfWord&quot;:true,&quot;word&quot;:2,&quot;line&quot;:2,&quot;firstGlyphOfSecondLine&quot;:true}" id="element-id-72873"></path><path d="M214.95832,282.7453c0,-6.33989 -6.01888,-9.06845 -10.79386,-9.06845c-4.77498,0 -10.71361,2.72856 -10.71361,9.06845v9.4697c0,6.33989 5.93863,9.06845 10.71361,9.06845c4.77498,0 10.79386,-2.72856 10.79386,-9.06845zM208.65856,291.65324c0,2.56806 -1.84579,4.05271 -4.4941,4.05271c-2.60818,0 -4.45397,-1.48466 -4.45397,-4.05271v-8.34618c0,-2.56806 1.84579,-4.05271 4.45397,-4.05271c2.64831,0 4.4941,1.48466 4.4941,4.05271z" data-paper-data="{&quot;glyphName&quot;:&quot;O&quot;,&quot;glyphIndex&quot;:9,&quot;word&quot;:2,&quot;line&quot;:2}" id="element-id-53003"></path><path d="M252.12825,274.23862h-3.85208c-1.32415,0 -1.52478,0.88277 -1.80566,1.36428l-5.53737,9.87096l-5.49724,-9.87096c-0.32101,-0.48151 -0.48151,-1.36428 -1.84579,-1.36428h-3.97246c-0.92289,0 -1.16365,0.44138 -1.16365,1.16365v24.11565c0,0.92289 0.44138,1.16365 1.16365,1.16365h3.97246c0.72227,0 1.16365,-0.24076 1.16365,-1.16365v-13.60267l4.05271,7.02203c0.20063,0.32101 0.52164,0.84264 1.12352,0.84264h2.00629c0.60189,0 0.96302,-0.52164 1.16365,-0.84264l4.01259,-7.02203v13.60267c0,0.92289 0.44138,1.16365 1.16365,1.16365h3.85208c0.72227,0 1.16365,-0.24076 1.16365,-1.16365v-24.11565c0,-0.72227 -0.24076,-1.16365 -1.16365,-1.16365z" data-paper-data="{&quot;glyphName&quot;:&quot;M&quot;,&quot;glyphIndex&quot;:10,&quot;word&quot;:2,&quot;line&quot;:2}" id="element-id-30905"></path><path d="M277.78205,274.27874h-9.02832c-0.92289,0 -1.16365,0.44138 -1.16365,1.16365v24.07552c0,0.92289 0.44138,1.16365 1.16365,1.16365h3.97246c0.72227,0 1.16365,-0.24076 1.16365,-1.16365v-6.66089h3.85208c6.86152,0 10.5531,-3.69158 10.5531,-9.26908c0,-5.53737 -3.61133,-9.3092 -10.51298,-9.3092zM277.74192,287.44003h-3.85208v-7.50354h3.85208c3.12982,0 4.4941,1.68529 4.4941,3.77183c0,2.00629 -1.36428,3.73171 -4.4941,3.73171z" data-paper-data="{&quot;glyphName&quot;:&quot;P&quot;,&quot;glyphIndex&quot;:11,&quot;word&quot;:2,&quot;line&quot;:2}" id="element-id-16135"></path><path d="M321.85363,299.55804l-8.86782,-24.03539c-0.36113,-0.84264 -0.76239,-1.2439 -1.64516,-1.2439h-3.85208c-0.88277,0 -1.32415,0.40126 -1.64516,1.2439l-8.90794,24.03539c-0.20063,0.48151 -0.20063,1.12352 0.68214,1.12352h4.21322c0.88277,0 1.20378,-0.24076 1.52478,-1.20378l1.12352,-3.16994h9.83084l1.12352,3.16994c0.32101,0.96302 0.64201,1.20378 1.52478,1.20378h4.21322c0.88277,0 0.88277,-0.64201 0.68214,-1.12352zM306.40517,290.69022l3.00944,-8.86782l3.00944,8.86782z" data-paper-data="{&quot;glyphName&quot;:&quot;A&quot;,&quot;glyphIndex&quot;:12,&quot;word&quot;:2,&quot;line&quot;:2}" id="element-id-3277"></path><path d="M354.04795,274.27874h-3.85208c-0.72227,0 -1.16365,0.24076 -1.16365,1.16365v13.92368l-8.50668,-13.72305c-0.52164,-0.80252 -0.80252,-1.36428 -1.80566,-1.36428h-3.77183c-0.92289,0 -1.16365,0.44138 -1.16365,1.16365v24.07552c0,0.92289 0.44138,1.16365 1.16365,1.16365h3.97246c0.72227,0 1.16365,-0.24076 1.16365,-1.16365v-13.9638l8.50668,13.76317c0.52164,0.80252 0.80252,1.36428 1.80566,1.36428h3.65145c0.92289,0 1.16365,-0.44138 1.16365,-1.16365v-24.07552c0,-0.92289 -0.44138,-1.16365 -1.16365,-1.16365z" data-paper-data="{&quot;glyphName&quot;:&quot;N&quot;,&quot;glyphIndex&quot;:13,&quot;word&quot;:2,&quot;line&quot;:2}" id="element-id-25535"></path><path d="M389.61284,274.27874h-4.33359c-0.92289,0 -1.32415,0.12038 -1.84579,1.20378l-4.53422,8.62706l-4.69473,-8.62706c-0.56176,-1.0834 -0.96302,-1.20378 -1.88592,-1.20378h-4.61447c-0.76239,0 -0.84264,0.68214 -0.64201,1.12352l8.58694,15.36821v8.74744c0,0.92289 0.40126,1.16365 1.16365,1.16365h4.01259c0.72227,0 1.16365,-0.24076 1.16365,-1.16365v-8.74744l8.26593,-15.36821c0.20063,-0.44138 0.12038,-1.12352 -0.64201,-1.12352z" data-paper-data="{&quot;glyphName&quot;:&quot;Y&quot;,&quot;glyphIndex&quot;:14,&quot;lastGlyphOfWord&quot;:true,&quot;word&quot;:2,&quot;line&quot;:2,&quot;lastGlyphOfSecondLine&quot;:true}" id="element-id-29794"></path></g><g data-paper-data="{&quot;fillRule&quot;:&quot;nonzero&quot;,&quot;fillRuleOriginal&quot;:&quot;nonzero&quot;,&quot;isIcon&quot;:true,&quot;iconStyle&quot;:&quot;standalone&quot;,&quot;selectedEffects&quot;:{&quot;container&quot;:&quot;&quot;,&quot;transformation&quot;:&quot;&quot;,&quot;pattern&quot;:&quot;&quot;},&quot;bounds&quot;:{&quot;x&quot;:231.61657940651756,&quot;y&quot;:151.94429363020106,&quot;width&quot;:86.76711897871994,&quot;height&quot;:73.62115853689662},&quot;iconType&quot;:&quot;initial&quot;,&quot;initialText&quot;:&quot;M&quot;,&quot;rawInitialId&quot;:826,&quot;suitableAsStandaloneIcon&quot;:true}" id="element-id-47358"><path d="M297.59112,152.56766c-12.34033,0 -5.50569,-0.18985 -28.76246,-0.18985c-15.85258,0 -13.66929,-0.3797 -25.06036,-0.3797c-12.53018,0 -12.15048,-0.94925 -12.15048,5.12598c0,31.23052 0.28478,19.55468 0.28478,36.07173c0,31.61023 -0.85433,31.895 2.27821,31.895c16.3272,0 15.37795,0.56955 15.37795,-2.75284c0,0 -0.18985,-15.66272 -0.18985,-22.59229c0,-10.72659 0.47463,-20.21916 0.85433,-30.94575c0,-1.80358 -1.70866,-1.99344 13.57436,-1.99344c1.42388,0 1.13911,-3.03762 1.13911,39.86875c0,5.31584 -0.85433,4.4615 15.85258,4.4615c3.51225,0 3.79702,0 3.79702,-7.30927c0,-0.28478 -0.47463,-34.55292 -0.47463,-35.02755c0,-1.51881 0.09493,-1.32896 4.0818,-1.32896c9.87226,0 9.58748,0 9.58748,0c1.04418,0 1.42388,0.3797 1.42388,1.32896c0,34.74277 -0.85433,47.8425 0,54.77207c0.18985,1.80358 0.18985,1.99344 1.61373,1.99344c0.56955,0 6.17017,-0.09493 15.47287,-0.3797c2.27821,-0.09493 2.08836,-0.47463 2.08836,-8.44838c0,0 -0.28478,2.27821 -0.28478,-64.07478z" data-paper-data="{&quot;isPathIcon&quot;:true}" id="element-id-30884"></path></g><path d="M190.14744,150.14744c11.07168,-11.07223 23.78598,-19.64453 38.14289,-25.71692c14.8643,-6.28702 30.43423,-9.43053 46.70981,-9.43053c16.27512,0 31.84506,3.14351 46.70981,9.43053c14.35691,6.07238 27.07121,14.64469 38.14289,25.71692c11.07214,11.07214 19.64453,23.78643 25.71719,38.14289c6.28665,14.86384 9.42998,30.43378 9.42998,46.70981c0,7.25484 -0.62459,14.36956 -1.87378,21.34416v-4.30649l-0.03195,-0.41808l-0.34585,-2.27164l-0.24694,-0.74431c0.50764,-4.47742 0.76145,-9.01197 0.76145,-13.60363c0,-16.04059 -3.09793,-31.3849 -9.29378,-46.03291c-5.98414,-14.14885 -14.43243,-26.67926 -25.34486,-37.59124c-10.91244,-10.91235 -23.44285,-19.36068 -37.59124,-25.345c-14.64802,-6.19553 -29.99232,-9.2933 -46.03291,-9.2933c-16.04059,0 -31.3849,3.09777 -46.03291,9.2933c-14.14839,5.98432 -26.6788,14.43265 -37.59124,25.345c-10.91244,10.91198 -19.36073,23.4424 -25.34486,37.59124c-6.19585,14.64802 -9.29378,29.99232 -9.29378,46.03291c0,3.27725 0.12932,6.52545 0.38797,9.7446l-0.03943,0.07395l-0.15834,0.52086l-0.05347,0.54169v10.46464c-1.24937,-6.97502 -1.87406,-14.09026 -1.87406,-21.34574c0,-16.27558 3.14342,-31.84551 9.43025,-46.70981c6.07266,-14.35645 14.64505,-27.07075 25.71719,-38.14289zM321.70995,345.57002c-14.86338,6.28665 -30.43332,9.42998 -46.70981,9.42998c-16.27558,0 -31.84551,-3.14333 -46.70981,-9.42998c-13.9978,-5.92095 -26.43446,-14.2183 -37.30999,-24.89205l2.50208,0.00299c10.40959,9.92235 22.23786,17.68508 35.48481,23.28819c14.64756,6.19585 29.99187,9.29378 46.03291,9.29378c16.04013,0 31.38444,-3.09793 46.03291,-9.29378c13.18046,-5.57456 24.95644,-13.28751 35.32795,-23.13885l2.505,-0.00151c-10.8389,10.60112 -23.22425,18.8482 -37.15605,24.74123z" data-paper-data="{&quot;isLogoContainer&quot;:true}" id="element-id-86055"></path></g></g><rect data-element-id="element-id-86055" stroke-width="2" fill="transparent" class="invisible-element-box individual-element" x="155" y="115" width="240" height="240"></rect><rect data-element-id="element-id-58782" stroke-width="2" fill="transparent" class="invisible-element-box grouping-element" x="160" y="244" width="231" height="57" data-element-name="isPrimaryText"></rect><rect data-element-id="element-id-47358" stroke-width="2" fill="transparent" class="invisible-element-box grouping-element" x="232" y="152" width="87" height="74" data-element-name="isIcon"></rect><rect data-element-id="element-id-30884" stroke-width="2" fill="transparent" class="invisible-element-box individual-element" x="232" y="152" width="87" height="74"></rect><rect data-element-id="element-id-15366" stroke-width="2" fill="transparent" class="invisible-element-box grouping-element" x="163" y="310" width="219" height="8" data-element-name="isSecondaryText"></rect><rect data-element-id="element-id-30905" stroke-width="2" fill="transparent" class="invisible-element-box individual-element" x="228" y="274" width="25" height="26"></rect><rect data-element-id="element-id-3277" stroke-width="2" fill="transparent" class="invisible-element-box individual-element" x="297" y="274" width="25" height="26"></rect><rect data-element-id="element-id-53003" stroke-width="2" fill="transparent" class="invisible-element-box individual-element" x="193" y="274" width="22" height="28"></rect><rect data-element-id="element-id-29794" stroke-width="2" fill="transparent" class="invisible-element-box individual-element" x="367" y="274" width="23" height="26"></rect><rect data-element-id="element-id-72873" stroke-width="2" fill="transparent" class="invisible-element-box individual-element" x="160" y="274" width="21" height="28"></rect><rect data-element-id="element-id-16135" stroke-width="2" fill="transparent" class="invisible-element-box individual-element" x="268" y="274" width="21" height="26"></rect><rect data-element-id="element-id-25535" stroke-width="2" fill="transparent" class="invisible-element-box individual-element" x="334" y="274" width="21" height="26"></rect><rect data-element-id="element-id-17153" stroke-width="2" fill="transparent" class="invisible-element-box individual-element" x="160" y="245" width="21" height="22"></rect><rect data-element-id="element-id-13332" stroke-width="2" fill="transparent" class="invisible-element-box individual-element" x="192" y="245" width="18" height="23"></rect><rect data-element-id="element-id-82893" stroke-width="2" fill="transparent" class="invisible-element-box individual-element" x="220" y="244" width="18" height="23"></rect><rect data-element-id="element-id-9751" stroke-width="2" fill="transparent" class="invisible-element-box individual-element" x="270" y="244" width="18" height="23"></rect><rect data-element-id="element-id-9983" stroke-width="2" fill="transparent" class="invisible-element-box individual-element" x="372" y="244" width="18" height="23"></rect><rect data-element-id="element-id-90742" stroke-width="2" fill="transparent" class="invisible-element-box individual-element" x="344" y="245" width="18" height="22"></rect><rect data-element-id="element-id-44027" stroke-width="2" fill="transparent" class="invisible-element-box individual-element" x="315" y="245" width="17" height="22"></rect><rect data-element-id="element-id-40283" stroke-width="2" fill="transparent" class="invisible-element-box individual-element" x="248" y="245" width="11" height="22"></rect><rect data-element-id="element-id-55820" stroke-width="2" fill="transparent" class="invisible-element-box individual-element" x="163" y="310" width="9" height="7"></rect><rect data-element-id="element-id-97085" stroke-width="2" fill="transparent" class="invisible-element-box individual-element" x="175" y="310" width="7" height="7"></rect><rect data-element-id="element-id-77827" stroke-width="2" fill="transparent" class="invisible-element-box individual-element" x="254" y="310" width="7" height="7"></rect><rect data-element-id="element-id-84550" stroke-width="2" fill="transparent" class="invisible-element-box individual-element" x="212" y="310" width="6" height="8"></rect><rect data-element-id="element-id-5945" stroke-width="2" fill="transparent" class="invisible-element-box individual-element" x="222" y="310" width="6" height="8"></rect><rect data-element-id="element-id-88011" stroke-width="2" fill="transparent" class="invisible-element-box individual-element" x="232" y="310" width="6" height="8"></rect><rect data-element-id="element-id-36062" stroke-width="2" fill="transparent" class="invisible-element-box individual-element" x="304" y="310" width="6" height="8"></rect><rect data-element-id="element-id-26480" stroke-width="2" fill="transparent" class="invisible-element-box individual-element" x="348" y="310" width="6" height="8"></rect><rect data-element-id="element-id-74196" stroke-width="2" fill="transparent" class="invisible-element-box individual-element" x="366" y="310" width="6" height="8"></rect><rect data-element-id="element-id-28620" stroke-width="2" fill="transparent" class="invisible-element-box individual-element" x="185" y="310" width="6" height="7"></rect><rect data-element-id="element-id-55116" stroke-width="2" fill="transparent" class="invisible-element-box individual-element" x="202" y="310" width="6" height="7"></rect><rect data-element-id="element-id-48226" stroke-width="2" fill="transparent" class="invisible-element-box individual-element" x="264" y="310" width="6" height="7"></rect><rect data-element-id="element-id-3346" stroke-width="2" fill="transparent" class="invisible-element-box individual-element" x="274" y="310" width="6" height="7"></rect><rect data-element-id="element-id-25681" stroke-width="2" fill="transparent" class="invisible-element-box individual-element" x="288" y="310" width="6" height="7"></rect><rect data-element-id="element-id-26626" stroke-width="2" fill="transparent" class="invisible-element-box individual-element" x="313" y="310" width="6" height="7"></rect><rect data-element-id="element-id-60750" stroke-width="2" fill="transparent" class="invisible-element-box individual-element" x="322" y="310" width="6" height="7"></rect><rect data-element-id="element-id-97477" stroke-width="2" fill="transparent" class="invisible-element-box individual-element" x="338" y="310" width="6" height="7"></rect><rect data-element-id="element-id-29701" stroke-width="2" fill="transparent" class="invisible-element-box individual-element" x="357" y="310" width="6" height="7"></rect><rect data-element-id="element-id-69695" stroke-width="2" fill="transparent" class="invisible-element-box individual-element" x="376" y="310" width="6" height="7"></rect><rect data-element-id="element-id-640" stroke-width="2" fill="transparent" class="invisible-element-box individual-element" x="194" y="310" width="5" height="7"></rect><rect data-element-id="element-id-91070" stroke-width="2" fill="transparent" class="invisible-element-box individual-element" x="241" y="310" width="5" height="7"></rect><rect data-element-id="element-id-42883" stroke-width="2" fill="transparent" class="invisible-element-box individual-element" x="297" y="310" width="4" height="7"></rect><rect data-element-id="element-id-49089" stroke-width="2" fill="transparent" class="invisible-element-box individual-element" x="331" y="310" width="4" height="7"></rect></svg>