<?xml version="1.0" encoding="UTF-8" standalone="no"?>
<svg
   svg:contrastcolor="00B08B"
   svg:template="Contrast"
   svg:presentation="2.5"
   svg:layouttype="undefined"
   svg:specialfontid="undefined"
   svg:id1="004"
   svg:id2="272"
   svg:companyname="BeatPay"
   svg:companytagline=""
   version="1.1"
   viewBox="0 0 231000.02 57913.273"
   id="svg126"
   sodipodi:docname="new.svg"
   inkscape:export-filename="new.png"
   inkscape:export-xdpi="96"
   inkscape:export-ydpi="96"
   width="231000.02"
   height="57913.273"
   xmlns:inkscape="http://www.inkscape.org/namespaces/inkscape"
   xmlns:sodipodi="http://sodipodi.sourceforge.net/DTD/sodipodi-0.dtd"
   xmlns="http://www.w3.org/2000/svg"
   xmlns:svg="http://www.w3.org/2000/svg">
  <defs
     id="defs130" />
  <sodipodi:namedview
     id="namedview128"
     pagecolor="#ffffff"
     bordercolor="#000000"
     borderopacity="0.25"
     inkscape:showpageshadow="2"
     inkscape:pageopacity="0.0"
     inkscape:pagecheckerboard="0"
     inkscape:deskcolor="#d1d1d1"
     showgrid="false" />
  <g
     fill="#101820"
     fill-rule="none"
     stroke="none"
     stroke-width="1"
     stroke-linecap="butt"
     stroke-linejoin="miter"
     stroke-miterlimit="10"
     stroke-dasharray="none"
     stroke-dashoffset="0"
     font-family="none"
     font-weight="none"
     font-size="none"
     text-anchor="none"
     style="mix-blend-mode:normal;fill:#3366cc;fill-opacity:1"
     id="g78"
     transform="translate(-5527.3633,-3738.7637)">
    <g
       data-paper-data="{&quot;isGlobalGroup&quot;:true,&quot;bounds&quot;:{&quot;x&quot;:65,&quot;y&quot;:173.39013687451094,&quot;width&quot;:420,&quot;height&quot;:123.21972625097808}}"
       id="g76"
       style="fill:#3366cc;fill-opacity:1">
      <g
         data-paper-data="{&quot;isPrimaryText&quot;:true}"
         fill-rule="nonzero"
         id="element-id-5840"
         style="fill:#3375cc;fill-opacity:1"
         transform="translate(-54.950249,-165.43532)">
        <path
           d="m 139.26437,229.23547 c 0.72193,-0.32086 5.85561,-2.8877 5.85561,-10.9893 0,-7.54011 -5.61497,-14.51872 -18.68984,-14.51872 h -22.45989 c -1.84492,0 -2.3262,0.88235 -2.3262,2.3262 v 48.20855 c 0,1.44385 0.48128,2.3262 2.3262,2.3262 h 23.58289 c 11.14973,0 19.09091,-5.2139 19.09091,-15.40107 0,-8.6631 -6.73797,-11.71123 -7.37968,-11.95187 z m -11.5508,15.96257 h -13.47594 v -30.16043 h 12.19251 c 4.17112,0 6.65775,0.88235 6.65775,4.49198 0,3.12834 -2.00535,4.81283 -6.65775,4.81283 v 0 h -1.04278 c -1.84492,0 -2.3262,0.88235 -2.3262,2.3262 v 6.09626 c 0,1.44385 0.48128,2.3262 2.3262,2.3262 h 1.84492 c 3.85027,0 6.65775,1.12299 6.65775,4.89305 0,3.60963 -2.24599,5.2139 -6.17647,5.2139 z"
           data-paper-data="{&quot;glyphName&quot;:&quot;B&quot;,&quot;glyphIndex&quot;:0,&quot;firstGlyphOfWord&quot;:true,&quot;word&quot;:1}"
           id="element-id-38472"
           style="fill:#3375cc;fill-opacity:1" />
        <path
           d="M 192.76704,245.43868 H 157.3125 c -1.44385,0 -2.3262,0.48128 -2.3262,2.3262 v 6.57754 c 0,1.84492 0.88235,2.3262 2.3262,2.3262 h 35.45454 c 1.44385,0 2.3262,-0.48128 2.3262,-2.3262 v -6.57754 c 0,-1.84492 -0.88235,-2.3262 -2.3262,-2.3262 z m -4.01069,-20.85561 H 161.3232 c -1.44385,0 -2.3262,0.48128 -2.3262,2.3262 v 6.57754 c 0,1.84492 0.88235,2.3262 2.3262,2.3262 h 27.43315 c 1.44385,0 2.3262,-0.48128 2.3262,-2.3262 v -6.57754 c 0,-1.84492 -0.88235,-2.3262 -2.3262,-2.3262 z m 4.01069,-20.69519 H 157.3125 c -1.44385,0 -2.3262,0.48128 -2.3262,2.3262 v 6.57754 c 0,1.84492 0.88235,2.3262 2.3262,2.3262 h 35.45454 c 1.44385,0 2.3262,-0.48128 2.3262,-2.3262 v -6.57754 c 0,-1.84492 -0.88235,-2.3262 -2.3262,-2.3262 z"
           data-paper-data="{&quot;glyphName&quot;:&quot;ξ&quot;,&quot;glyphIndex&quot;:1,&quot;word&quot;:1}"
           id="element-id-28581"
           style="fill:#3375cc;fill-opacity:1" />
        <path
           d="m 225.33389,220.01088 11.71123,34.17112 c 0.64171,1.92513 1.28342,2.40642 3.04813,2.40642 h 9.14438 c 1.76471,0 1.76471,-1.28342 1.36364,-2.24599 L 232.874,206.2943 c -0.72193,-1.68449 -1.52406,-2.48663 -3.28877,-2.48663 h -7.70053 c -1.76471,0 -2.64706,0.80214 -3.28877,2.48663 l -17.80749,48.04813 c -0.40107,0.96257 -0.40107,2.24599 1.36364,2.24599 h 8.74332 c 1.76471,0 2.40642,-0.48128 3.04813,-2.40642 z"
           data-paper-data="{&quot;glyphName&quot;:&quot;Λ&quot;,&quot;glyphIndex&quot;:2,&quot;word&quot;:1}"
           id="element-id-2947"
           style="fill:#3375cc;fill-opacity:1" />
        <path
           d="m 293.43549,203.80767 h -37.21925 c -1.84492,0 -2.3262,0.88235 -2.3262,2.3262 v 6.65775 c 0,1.44385 0.48128,2.3262 2.3262,2.3262 h 12.35294 v 39.14438 c 0,1.84492 0.88235,2.3262 2.3262,2.3262 h 7.94118 c 1.44385,0 2.3262,-0.48128 2.3262,-2.3262 v -39.14438 h 12.27273 c 1.84492,0 2.3262,-0.88235 2.3262,-2.3262 v -6.65775 c 0,-1.44385 -0.48128,-2.3262 -2.3262,-2.3262 z"
           data-paper-data="{&quot;glyphName&quot;:&quot;T&quot;,&quot;glyphIndex&quot;:3,&quot;word&quot;:1}"
           id="element-id-78181"
           style="fill:#3375cc;fill-opacity:1" />
        <path
           d="m 324.15741,203.80767 h -18.04813 c -1.84492,0 -2.3262,0.88235 -2.3262,2.3262 v 48.12834 c 0,1.84492 0.88235,2.3262 2.3262,2.3262 h 7.94118 c 1.44385,0 2.3262,-0.48128 2.3262,-2.3262 V 240.9467 h 7.70053 c 13.71658,0 21.09626,-7.37968 21.09626,-18.52941 0,-11.06952 -7.21925,-18.60962 -21.01604,-18.60962 z m -0.0802,26.31016 h -7.70053 v -15 h 7.70053 c 6.25668,0 8.98396,3.36898 8.98396,7.54011 0,4.0107 -2.72727,7.45989 -8.98396,7.45989 z"
           data-paper-data="{&quot;glyphName&quot;:&quot;P&quot;,&quot;glyphIndex&quot;:4,&quot;word&quot;:1}"
           id="element-id-33701"
           style="fill:#3375cc;fill-opacity:1" />
        <path
           d="m 374.2911,220.01088 11.71123,34.17112 c 0.64171,1.92513 1.28342,2.40642 3.04813,2.40642 h 9.14438 c 1.76471,0 1.76471,-1.28342 1.36364,-2.24599 L 381.83121,206.2943 c -0.72193,-1.68449 -1.52406,-2.48663 -3.28877,-2.48663 h -7.70053 c -1.76471,0 -2.64706,0.80214 -3.28877,2.48663 l -17.80749,48.04813 c -0.40107,0.96257 -0.40107,2.24599 1.36364,2.24599 h 8.74332 c 1.76471,0 2.40642,-0.48128 3.04813,-2.40642 z"
           data-paper-data="{&quot;glyphName&quot;:&quot;Λ&quot;,&quot;glyphIndex&quot;:5,&quot;word&quot;:1}"
           id="element-id-63845"
           style="fill:#3375cc;fill-opacity:1" />
        <path
           d="m 446.88468,203.80767 h -8.6631 c -1.84492,0 -2.64706,0.24064 -3.68984,2.40642 l -9.06417,17.24599 -9.38503,-17.24599 c -1.12299,-2.16578 -1.92513,-2.40642 -3.77005,-2.40642 h -9.2246 c -1.52406,0 -1.68449,1.36364 -1.28342,2.24599 l 17.16577,30.72192 v 17.48663 c 0,1.84492 0.80214,2.3262 2.3262,2.3262 h 8.02139 c 1.44385,0 2.3262,-0.48128 2.3262,-2.3262 v -17.48663 l 16.52406,-30.72192 c 0.40107,-0.88235 0.24064,-2.24599 -1.28342,-2.24599 z"
           data-paper-data="{&quot;glyphName&quot;:&quot;Y&quot;,&quot;glyphIndex&quot;:6,&quot;lastGlyphOfWord&quot;:true,&quot;word&quot;:1}"
           id="element-id-66663"
           style="fill:#3375cc;fill-opacity:1" />
      </g>
      <path
         d="m 12.182191,129.04227 c 1.42168,1.42152 3.13777,2.13228 5.14826,2.13228 H 422.76881 c 2.01038,0 3.7266,-0.71076 5.14867,-2.13228 1.42152,-1.42152 2.13228,-3.13774 2.13228,-5.14867 V 15.234937 c 0,-2.01038 -0.71076,-3.72633 -2.13228,-5.14784 -1.42152,-1.4215205 -3.13774,-2.1322805 -5.14867,-2.1322805 H 17.330451 c -2.01054,0 -3.72663,0.71076 -5.14826,2.1322805 -1.42163,1.42152 -2.13244,3.13747 -2.13244,5.14784 V 123.8936 c 0,2.01093 0.71081,3.72715 2.13244,5.14867 z M 422.76881,124.86852 H 17.330451 c -0.64956,0 -0.97434,-0.32497 -0.97434,-0.97492 V 15.234937 c 0,-0.6494 0.32478,-0.9741 0.97434,-0.9741 H 422.76881 c 0.64995,0 0.97492,0.3247 0.97492,0.9741 V 123.8936 c 0,0.64995 -0.32497,0.97492 -0.97492,0.97492 z"
         data-paper-data="{&quot;isLogoContainer&quot;:true}"
         fill-rule="evenodd"
         id="element-id-95041"
         style="fill:#3366cc;fill-opacity:1" />
    </g>
  </g>
</svg>
